ISO-10303-21;
HEADER;
/* Generated by software containing ST-Developer
 * from STEP Tools, Inc. (www.steptools.com) 
 */
/* OPTION: using custom schema-name function */

FILE_DESCRIPTION(
/* description */ (''),
/* implementation_level */ '2;1');

FILE_NAME(
/* name */ 'ESP32S3',
/* time_stamp */ '2026-03-30T21:35:09+08:00',
/* author */ (''),
/* organization */ (''),
/* preprocessor_version */ 'ST-DEVELOPER v16.5',
/* originating_system */ 'Rhino 7.15',
/* authorisation */ '');

FILE_SCHEMA (('CONFIG_CONTROL_DESIGN'));
ENDSEC;

DATA;
#10=SHAPE_REPRESENTATION_RELATIONSHIP('','',#820,#12);
#11=MANIFOLD_SOLID_BREP('brep_1',#13);
#12=ADVANCED_BREP_SHAPE_REPRESENTATION('brep_rep_0',(#11,#867),#819);
#13=CLOSED_SHELL('',(#15,#16,#17,#18,#19,#20,#21,#22,#23,#24,#25,#26,#27,
#28,#29,#30,#31,#32,#33,#34,#35,#36,#37,#38,#39,#40,#41,#42,#43,#44,#45,
#46,#47,#48,#49,#50,#51,#52,#53,#54,#55,#56,#57,#58,#59));
#14=FACE_BOUND('',#132,.T.);
#15=ADVANCED_FACE('',(#60),#689,.T.);
#16=ADVANCED_FACE('',(#61),#690,.T.);
#17=ADVANCED_FACE('',(#62),#691,.T.);
#18=ADVANCED_FACE('',(#63),#692,.T.);
#19=ADVANCED_FACE('',(#64),#693,.T.);
#20=ADVANCED_FACE('',(#65),#694,.T.);
#21=ADVANCED_FACE('',(#66),#695,.T.);
#22=ADVANCED_FACE('',(#67),#696,.T.);
#23=ADVANCED_FACE('',(#68),#697,.T.);
#24=ADVANCED_FACE('',(#69),#698,.T.);
#25=ADVANCED_FACE('',(#70),#699,.T.);
#26=ADVANCED_FACE('',(#71),#700,.T.);
#27=ADVANCED_FACE('',(#72),#701,.T.);
#28=ADVANCED_FACE('',(#73),#702,.T.);
#29=ADVANCED_FACE('',(#74),#703,.T.);
#30=ADVANCED_FACE('',(#75),#704,.T.);
#31=ADVANCED_FACE('',(#76),#705,.T.);
#32=ADVANCED_FACE('',(#77),#706,.T.);
#33=ADVANCED_FACE('',(#78),#707,.T.);
#34=ADVANCED_FACE('',(#79),#708,.T.);
#35=ADVANCED_FACE('',(#80),#709,.T.);
#36=ADVANCED_FACE('',(#81),#710,.T.);
#37=ADVANCED_FACE('',(#82),#711,.T.);
#38=ADVANCED_FACE('',(#83),#712,.T.);
#39=ADVANCED_FACE('',(#84),#713,.T.);
#40=ADVANCED_FACE('',(#85),#714,.T.);
#41=ADVANCED_FACE('',(#86,#14),#715,.T.);
#42=ADVANCED_FACE('',(#87),#716,.T.);
#43=ADVANCED_FACE('',(#88),#717,.T.);
#44=ADVANCED_FACE('',(#89),#718,.T.);
#45=ADVANCED_FACE('',(#90),#719,.T.);
#46=ADVANCED_FACE('',(#91),#720,.T.);
#47=ADVANCED_FACE('',(#92),#721,.T.);
#48=ADVANCED_FACE('',(#93),#722,.T.);
#49=ADVANCED_FACE('',(#94),#723,.T.);
#50=ADVANCED_FACE('',(#95),#724,.T.);
#51=ADVANCED_FACE('',(#96),#725,.T.);
#52=ADVANCED_FACE('',(#97),#726,.T.);
#53=ADVANCED_FACE('',(#98),#727,.T.);
#54=ADVANCED_FACE('',(#99),#728,.T.);
#55=ADVANCED_FACE('',(#100),#729,.T.);
#56=ADVANCED_FACE('',(#101),#730,.T.);
#57=ADVANCED_FACE('',(#102),#731,.T.);
#58=ADVANCED_FACE('',(#103),#732,.T.);
#59=ADVANCED_FACE('',(#104),#733,.T.);
#60=FACE_OUTER_BOUND('',#105,.T.);
#61=FACE_OUTER_BOUND('',#106,.T.);
#62=FACE_OUTER_BOUND('',#107,.T.);
#63=FACE_OUTER_BOUND('',#108,.T.);
#64=FACE_OUTER_BOUND('',#109,.T.);
#65=FACE_OUTER_BOUND('',#110,.T.);
#66=FACE_OUTER_BOUND('',#111,.T.);
#67=FACE_OUTER_BOUND('',#112,.T.);
#68=FACE_OUTER_BOUND('',#113,.T.);
#69=FACE_OUTER_BOUND('',#114,.T.);
#70=FACE_OUTER_BOUND('',#115,.T.);
#71=FACE_OUTER_BOUND('',#116,.T.);
#72=FACE_OUTER_BOUND('',#117,.T.);
#73=FACE_OUTER_BOUND('',#118,.T.);
#74=FACE_OUTER_BOUND('',#119,.T.);
#75=FACE_OUTER_BOUND('',#120,.T.);
#76=FACE_OUTER_BOUND('',#121,.T.);
#77=FACE_OUTER_BOUND('',#122,.T.);
#78=FACE_OUTER_BOUND('',#123,.T.);
#79=FACE_OUTER_BOUND('',#124,.T.);
#80=FACE_OUTER_BOUND('',#125,.T.);
#81=FACE_OUTER_BOUND('',#126,.T.);
#82=FACE_OUTER_BOUND('',#127,.T.);
#83=FACE_OUTER_BOUND('',#128,.T.);
#84=FACE_OUTER_BOUND('',#129,.T.);
#85=FACE_OUTER_BOUND('',#130,.T.);
#86=FACE_OUTER_BOUND('',#131,.T.);
#87=FACE_OUTER_BOUND('',#133,.T.);
#88=FACE_OUTER_BOUND('',#134,.T.);
#89=FACE_OUTER_BOUND('',#135,.T.);
#90=FACE_OUTER_BOUND('',#136,.T.);
#91=FACE_OUTER_BOUND('',#137,.T.);
#92=FACE_OUTER_BOUND('',#138,.T.);
#93=FACE_OUTER_BOUND('',#139,.T.);
#94=FACE_OUTER_BOUND('',#140,.T.);
#95=FACE_OUTER_BOUND('',#141,.T.);
#96=FACE_OUTER_BOUND('',#142,.T.);
#97=FACE_OUTER_BOUND('',#143,.T.);
#98=FACE_OUTER_BOUND('',#144,.T.);
#99=FACE_OUTER_BOUND('',#145,.T.);
#100=FACE_OUTER_BOUND('',#146,.T.);
#101=FACE_OUTER_BOUND('',#147,.T.);
#102=FACE_OUTER_BOUND('',#148,.T.);
#103=FACE_OUTER_BOUND('',#149,.T.);
#104=FACE_OUTER_BOUND('',#150,.T.);
#105=EDGE_LOOP('',(#151,#152,#153,#154));
#106=EDGE_LOOP('',(#155,#156,#157,#158,#159,#160,#161,#162));
#107=EDGE_LOOP('',(#163,#164,#165,#166));
#108=EDGE_LOOP('',(#167,#168,#169,#170));
#109=EDGE_LOOP('',(#171,#172,#173,#174));
#110=EDGE_LOOP('',(#175,#176,#177,#178));
#111=EDGE_LOOP('',(#179,#180,#181,#182));
#112=EDGE_LOOP('',(#183,#184,#185,#186));
#113=EDGE_LOOP('',(#187,#188,#189,#190));
#114=EDGE_LOOP('',(#191,#192,#193,#194));
#115=EDGE_LOOP('',(#195,#196,#197,#198,#199,#200,#201,#202));
#116=EDGE_LOOP('',(#203,#204,#205,#206));
#117=EDGE_LOOP('',(#207,#208,#209,#210));
#118=EDGE_LOOP('',(#211,#212,#213,#214));
#119=EDGE_LOOP('',(#215,#216,#217,#218));
#120=EDGE_LOOP('',(#219,#220,#221,#222));
#121=EDGE_LOOP('',(#223,#224,#225,#226));
#122=EDGE_LOOP('',(#227,#228,#229,#230));
#123=EDGE_LOOP('',(#231,#232,#233,#234,#235,#236));
#124=EDGE_LOOP('',(#237,#238,#239,#240,#241,#242));
#125=EDGE_LOOP('',(#243,#244,#245,#246,#247,#248));
#126=EDGE_LOOP('',(#249,#250,#251,#252,#253,#254,#255,#256));
#127=EDGE_LOOP('',(#257,#258,#259,#260));
#128=EDGE_LOOP('',(#261,#262,#263,#264,#265));
#129=EDGE_LOOP('',(#266,#267,#268,#269));
#130=EDGE_LOOP('',(#270,#271,#272,#273,#274));
#131=EDGE_LOOP('',(#275,#276,#277,#278));
#132=EDGE_LOOP('',(#279,#280,#281,#282));
#133=EDGE_LOOP('',(#283,#284,#285,#286));
#134=EDGE_LOOP('',(#287,#288,#289,#290));
#135=EDGE_LOOP('',(#291,#292,#293,#294));
#136=EDGE_LOOP('',(#295,#296,#297,#298));
#137=EDGE_LOOP('',(#299,#300,#301,#302));
#138=EDGE_LOOP('',(#303,#304,#305,#306));
#139=EDGE_LOOP('',(#307,#308,#309,#310));
#140=EDGE_LOOP('',(#311,#312,#313,#314));
#141=EDGE_LOOP('',(#315,#316,#317,#318));
#142=EDGE_LOOP('',(#319,#320,#321,#322));
#143=EDGE_LOOP('',(#323,#324,#325,#326));
#144=EDGE_LOOP('',(#327,#328,#329,#330));
#145=EDGE_LOOP('',(#331,#332,#333,#334));
#146=EDGE_LOOP('',(#335,#336,#337,#338));
#147=EDGE_LOOP('',(#339,#340,#341,#342));
#148=EDGE_LOOP('',(#343,#344,#345,#346));
#149=EDGE_LOOP('',(#347,#348,#349,#350,#351,#352,#353,#354,#355,#356,#357,
#358,#359,#360,#361,#362));
#150=EDGE_LOOP('',(#363,#364,#365,#366,#367,#368,#369,#370,#371,#372,#373,
#374,#375,#376,#377,#378,#379,#380,#381,#382));
#151=ORIENTED_EDGE('',*,*,#397,.T.);
#152=ORIENTED_EDGE('',*,*,#389,.T.);
#153=ORIENTED_EDGE('',*,*,#398,.T.);
#154=ORIENTED_EDGE('',*,*,#390,.F.);
#155=ORIENTED_EDGE('',*,*,#405,.F.);
#156=ORIENTED_EDGE('',*,*,#387,.F.);
#157=ORIENTED_EDGE('',*,*,#403,.F.);
#158=ORIENTED_EDGE('',*,*,#385,.F.);
#159=ORIENTED_EDGE('',*,*,#399,.F.);
#160=ORIENTED_EDGE('',*,*,#383,.F.);
#161=ORIENTED_EDGE('',*,*,#401,.F.);
#162=ORIENTED_EDGE('',*,*,#389,.F.);
#163=ORIENTED_EDGE('',*,*,#384,.F.);
#164=ORIENTED_EDGE('',*,*,#392,.F.);
#165=ORIENTED_EDGE('',*,*,#383,.T.);
#166=ORIENTED_EDGE('',*,*,#391,.F.);
#167=ORIENTED_EDGE('',*,*,#393,.T.);
#168=ORIENTED_EDGE('',*,*,#385,.T.);
#169=ORIENTED_EDGE('',*,*,#394,.F.);
#170=ORIENTED_EDGE('',*,*,#386,.F.);
#171=ORIENTED_EDGE('',*,*,#395,.T.);
#172=ORIENTED_EDGE('',*,*,#387,.T.);
#173=ORIENTED_EDGE('',*,*,#396,.F.);
#174=ORIENTED_EDGE('',*,*,#388,.F.);
#175=ORIENTED_EDGE('',*,*,#391,.T.);
#176=ORIENTED_EDGE('',*,*,#399,.T.);
#177=ORIENTED_EDGE('',*,*,#393,.F.);
#178=ORIENTED_EDGE('',*,*,#400,.F.);
#179=ORIENTED_EDGE('',*,*,#392,.T.);
#180=ORIENTED_EDGE('',*,*,#402,.F.);
#181=ORIENTED_EDGE('',*,*,#398,.F.);
#182=ORIENTED_EDGE('',*,*,#401,.T.);
#183=ORIENTED_EDGE('',*,*,#394,.T.);
#184=ORIENTED_EDGE('',*,*,#403,.T.);
#185=ORIENTED_EDGE('',*,*,#395,.F.);
#186=ORIENTED_EDGE('',*,*,#404,.F.);
#187=ORIENTED_EDGE('',*,*,#396,.T.);
#188=ORIENTED_EDGE('',*,*,#405,.T.);
#189=ORIENTED_EDGE('',*,*,#397,.F.);
#190=ORIENTED_EDGE('',*,*,#406,.F.);
#191=ORIENTED_EDGE('',*,*,#421,.T.);
#192=ORIENTED_EDGE('',*,*,#413,.T.);
#193=ORIENTED_EDGE('',*,*,#422,.T.);
#194=ORIENTED_EDGE('',*,*,#414,.F.);
#195=ORIENTED_EDGE('',*,*,#429,.F.);
#196=ORIENTED_EDGE('',*,*,#411,.F.);
#197=ORIENTED_EDGE('',*,*,#427,.F.);
#198=ORIENTED_EDGE('',*,*,#409,.F.);
#199=ORIENTED_EDGE('',*,*,#423,.F.);
#200=ORIENTED_EDGE('',*,*,#407,.F.);
#201=ORIENTED_EDGE('',*,*,#425,.F.);
#202=ORIENTED_EDGE('',*,*,#413,.F.);
#203=ORIENTED_EDGE('',*,*,#408,.F.);
#204=ORIENTED_EDGE('',*,*,#416,.F.);
#205=ORIENTED_EDGE('',*,*,#407,.T.);
#206=ORIENTED_EDGE('',*,*,#415,.F.);
#207=ORIENTED_EDGE('',*,*,#417,.T.);
#208=ORIENTED_EDGE('',*,*,#409,.T.);
#209=ORIENTED_EDGE('',*,*,#418,.F.);
#210=ORIENTED_EDGE('',*,*,#410,.F.);
#211=ORIENTED_EDGE('',*,*,#419,.T.);
#212=ORIENTED_EDGE('',*,*,#411,.T.);
#213=ORIENTED_EDGE('',*,*,#420,.F.);
#214=ORIENTED_EDGE('',*,*,#412,.F.);
#215=ORIENTED_EDGE('',*,*,#415,.T.);
#216=ORIENTED_EDGE('',*,*,#423,.T.);
#217=ORIENTED_EDGE('',*,*,#417,.F.);
#218=ORIENTED_EDGE('',*,*,#424,.F.);
#219=ORIENTED_EDGE('',*,*,#416,.T.);
#220=ORIENTED_EDGE('',*,*,#426,.F.);
#221=ORIENTED_EDGE('',*,*,#422,.F.);
#222=ORIENTED_EDGE('',*,*,#425,.T.);
#223=ORIENTED_EDGE('',*,*,#418,.T.);
#224=ORIENTED_EDGE('',*,*,#427,.T.);
#225=ORIENTED_EDGE('',*,*,#419,.F.);
#226=ORIENTED_EDGE('',*,*,#428,.F.);
#227=ORIENTED_EDGE('',*,*,#420,.T.);
#228=ORIENTED_EDGE('',*,*,#429,.T.);
#229=ORIENTED_EDGE('',*,*,#421,.F.);
#230=ORIENTED_EDGE('',*,*,#430,.F.);
#231=ORIENTED_EDGE('',*,*,#431,.T.);
#232=ORIENTED_EDGE('',*,*,#386,.T.);
#233=ORIENTED_EDGE('',*,*,#498,.T.);
#234=ORIENTED_EDGE('',*,*,#432,.T.);
#235=ORIENTED_EDGE('',*,*,#433,.F.);
#236=ORIENTED_EDGE('',*,*,#434,.F.);
#237=ORIENTED_EDGE('',*,*,#435,.T.);
#238=ORIENTED_EDGE('',*,*,#436,.T.);
#239=ORIENTED_EDGE('',*,*,#468,.F.);
#240=ORIENTED_EDGE('',*,*,#469,.F.);
#241=ORIENTED_EDGE('',*,*,#437,.F.);
#242=ORIENTED_EDGE('',*,*,#432,.F.);
#243=ORIENTED_EDGE('',*,*,#438,.T.);
#244=ORIENTED_EDGE('',*,*,#414,.T.);
#245=ORIENTED_EDGE('',*,*,#497,.T.);
#246=ORIENTED_EDGE('',*,*,#439,.T.);
#247=ORIENTED_EDGE('',*,*,#440,.F.);
#248=ORIENTED_EDGE('',*,*,#436,.F.);
#249=ORIENTED_EDGE('',*,*,#441,.T.);
#250=ORIENTED_EDGE('',*,*,#434,.T.);
#251=ORIENTED_EDGE('',*,*,#482,.F.);
#252=ORIENTED_EDGE('',*,*,#483,.F.);
#253=ORIENTED_EDGE('',*,*,#495,.F.);
#254=ORIENTED_EDGE('',*,*,#496,.F.);
#255=ORIENTED_EDGE('',*,*,#442,.F.);
#256=ORIENTED_EDGE('',*,*,#439,.F.);
#257=ORIENTED_EDGE('',*,*,#465,.T.);
#258=ORIENTED_EDGE('',*,*,#443,.T.);
#259=ORIENTED_EDGE('',*,*,#444,.F.);
#260=ORIENTED_EDGE('',*,*,#445,.F.);
#261=ORIENTED_EDGE('',*,*,#466,.T.);
#262=ORIENTED_EDGE('',*,*,#470,.T.);
#263=ORIENTED_EDGE('',*,*,#446,.T.);
#264=ORIENTED_EDGE('',*,*,#447,.F.);
#265=ORIENTED_EDGE('',*,*,#443,.F.);
#266=ORIENTED_EDGE('',*,*,#448,.T.);
#267=ORIENTED_EDGE('',*,*,#449,.T.);
#268=ORIENTED_EDGE('',*,*,#450,.F.);
#269=ORIENTED_EDGE('',*,*,#446,.F.);
#270=ORIENTED_EDGE('',*,*,#451,.T.);
#271=ORIENTED_EDGE('',*,*,#467,.T.);
#272=ORIENTED_EDGE('',*,*,#445,.T.);
#273=ORIENTED_EDGE('',*,*,#452,.F.);
#274=ORIENTED_EDGE('',*,*,#449,.F.);
#275=ORIENTED_EDGE('',*,*,#444,.T.);
#276=ORIENTED_EDGE('',*,*,#447,.T.);
#277=ORIENTED_EDGE('',*,*,#450,.T.);
#278=ORIENTED_EDGE('',*,*,#452,.T.);
#279=ORIENTED_EDGE('',*,*,#464,.F.);
#280=ORIENTED_EDGE('',*,*,#463,.F.);
#281=ORIENTED_EDGE('',*,*,#462,.F.);
#282=ORIENTED_EDGE('',*,*,#461,.F.);
#283=ORIENTED_EDGE('',*,*,#461,.T.);
#284=ORIENTED_EDGE('',*,*,#453,.T.);
#285=ORIENTED_EDGE('',*,*,#454,.F.);
#286=ORIENTED_EDGE('',*,*,#455,.F.);
#287=ORIENTED_EDGE('',*,*,#462,.T.);
#288=ORIENTED_EDGE('',*,*,#456,.T.);
#289=ORIENTED_EDGE('',*,*,#457,.F.);
#290=ORIENTED_EDGE('',*,*,#453,.F.);
#291=ORIENTED_EDGE('',*,*,#463,.T.);
#292=ORIENTED_EDGE('',*,*,#458,.T.);
#293=ORIENTED_EDGE('',*,*,#459,.F.);
#294=ORIENTED_EDGE('',*,*,#456,.F.);
#295=ORIENTED_EDGE('',*,*,#464,.T.);
#296=ORIENTED_EDGE('',*,*,#455,.T.);
#297=ORIENTED_EDGE('',*,*,#460,.F.);
#298=ORIENTED_EDGE('',*,*,#458,.F.);
#299=ORIENTED_EDGE('',*,*,#454,.T.);
#300=ORIENTED_EDGE('',*,*,#457,.T.);
#301=ORIENTED_EDGE('',*,*,#459,.T.);
#302=ORIENTED_EDGE('',*,*,#460,.T.);
#303=ORIENTED_EDGE('',*,*,#469,.T.);
#304=ORIENTED_EDGE('',*,*,#451,.F.);
#305=ORIENTED_EDGE('',*,*,#448,.F.);
#306=ORIENTED_EDGE('',*,*,#470,.F.);
#307=ORIENTED_EDGE('',*,*,#479,.T.);
#308=ORIENTED_EDGE('',*,*,#471,.T.);
#309=ORIENTED_EDGE('',*,*,#472,.F.);
#310=ORIENTED_EDGE('',*,*,#473,.F.);
#311=ORIENTED_EDGE('',*,*,#480,.T.);
#312=ORIENTED_EDGE('',*,*,#474,.T.);
#313=ORIENTED_EDGE('',*,*,#475,.F.);
#314=ORIENTED_EDGE('',*,*,#471,.F.);
#315=ORIENTED_EDGE('',*,*,#483,.T.);
#316=ORIENTED_EDGE('',*,*,#476,.T.);
#317=ORIENTED_EDGE('',*,*,#477,.F.);
#318=ORIENTED_EDGE('',*,*,#474,.F.);
#319=ORIENTED_EDGE('',*,*,#481,.T.);
#320=ORIENTED_EDGE('',*,*,#473,.T.);
#321=ORIENTED_EDGE('',*,*,#478,.F.);
#322=ORIENTED_EDGE('',*,*,#476,.F.);
#323=ORIENTED_EDGE('',*,*,#472,.T.);
#324=ORIENTED_EDGE('',*,*,#475,.T.);
#325=ORIENTED_EDGE('',*,*,#477,.T.);
#326=ORIENTED_EDGE('',*,*,#478,.T.);
#327=ORIENTED_EDGE('',*,*,#492,.T.);
#328=ORIENTED_EDGE('',*,*,#484,.T.);
#329=ORIENTED_EDGE('',*,*,#485,.F.);
#330=ORIENTED_EDGE('',*,*,#486,.F.);
#331=ORIENTED_EDGE('',*,*,#493,.T.);
#332=ORIENTED_EDGE('',*,*,#487,.T.);
#333=ORIENTED_EDGE('',*,*,#488,.F.);
#334=ORIENTED_EDGE('',*,*,#484,.F.);
#335=ORIENTED_EDGE('',*,*,#496,.T.);
#336=ORIENTED_EDGE('',*,*,#489,.T.);
#337=ORIENTED_EDGE('',*,*,#490,.F.);
#338=ORIENTED_EDGE('',*,*,#487,.F.);
#339=ORIENTED_EDGE('',*,*,#494,.T.);
#340=ORIENTED_EDGE('',*,*,#486,.T.);
#341=ORIENTED_EDGE('',*,*,#491,.F.);
#342=ORIENTED_EDGE('',*,*,#489,.F.);
#343=ORIENTED_EDGE('',*,*,#485,.T.);
#344=ORIENTED_EDGE('',*,*,#488,.T.);
#345=ORIENTED_EDGE('',*,*,#490,.T.);
#346=ORIENTED_EDGE('',*,*,#491,.T.);
#347=ORIENTED_EDGE('',*,*,#494,.F.);
#348=ORIENTED_EDGE('',*,*,#495,.T.);
#349=ORIENTED_EDGE('',*,*,#480,.F.);
#350=ORIENTED_EDGE('',*,*,#479,.F.);
#351=ORIENTED_EDGE('',*,*,#481,.F.);
#352=ORIENTED_EDGE('',*,*,#482,.T.);
#353=ORIENTED_EDGE('',*,*,#433,.T.);
#354=ORIENTED_EDGE('',*,*,#437,.T.);
#355=ORIENTED_EDGE('',*,*,#466,.F.);
#356=ORIENTED_EDGE('',*,*,#465,.F.);
#357=ORIENTED_EDGE('',*,*,#467,.F.);
#358=ORIENTED_EDGE('',*,*,#468,.T.);
#359=ORIENTED_EDGE('',*,*,#440,.T.);
#360=ORIENTED_EDGE('',*,*,#442,.T.);
#361=ORIENTED_EDGE('',*,*,#493,.F.);
#362=ORIENTED_EDGE('',*,*,#492,.F.);
#363=ORIENTED_EDGE('',*,*,#390,.T.);
#364=ORIENTED_EDGE('',*,*,#402,.T.);
#365=ORIENTED_EDGE('',*,*,#384,.T.);
#366=ORIENTED_EDGE('',*,*,#400,.T.);
#367=ORIENTED_EDGE('',*,*,#431,.F.);
#368=ORIENTED_EDGE('',*,*,#441,.F.);
#369=ORIENTED_EDGE('',*,*,#497,.F.);
#370=ORIENTED_EDGE('',*,*,#426,.T.);
#371=ORIENTED_EDGE('',*,*,#408,.T.);
#372=ORIENTED_EDGE('',*,*,#424,.T.);
#373=ORIENTED_EDGE('',*,*,#410,.T.);
#374=ORIENTED_EDGE('',*,*,#428,.T.);
#375=ORIENTED_EDGE('',*,*,#412,.T.);
#376=ORIENTED_EDGE('',*,*,#430,.T.);
#377=ORIENTED_EDGE('',*,*,#438,.F.);
#378=ORIENTED_EDGE('',*,*,#435,.F.);
#379=ORIENTED_EDGE('',*,*,#498,.F.);
#380=ORIENTED_EDGE('',*,*,#404,.T.);
#381=ORIENTED_EDGE('',*,*,#388,.T.);
#382=ORIENTED_EDGE('',*,*,#406,.T.);
#383=EDGE_CURVE('',#616,#615,#499,.T.);
#384=EDGE_CURVE('',#618,#617,#500,.T.);
#385=EDGE_CURVE('',#620,#619,#501,.T.);
#386=EDGE_CURVE('',#622,#621,#502,.T.);
#387=EDGE_CURVE('',#624,#623,#503,.T.);
#388=EDGE_CURVE('',#626,#625,#504,.T.);
#389=EDGE_CURVE('',#628,#627,#505,.T.);
#390=EDGE_CURVE('',#630,#629,#506,.T.);
#391=EDGE_CURVE('',#617,#615,#507,.T.);
#392=EDGE_CURVE('',#616,#618,#508,.T.);
#393=EDGE_CURVE('',#622,#620,#509,.T.);
#394=EDGE_CURVE('',#621,#619,#510,.T.);
#395=EDGE_CURVE('',#626,#624,#511,.T.);
#396=EDGE_CURVE('',#625,#623,#512,.T.);
#397=EDGE_CURVE('',#630,#628,#513,.T.);
#398=EDGE_CURVE('',#627,#629,#514,.T.);
#399=EDGE_CURVE('',#615,#620,#515,.T.);
#400=EDGE_CURVE('',#617,#622,#516,.T.);
#401=EDGE_CURVE('',#627,#616,#517,.T.);
#402=EDGE_CURVE('',#629,#618,#518,.T.);
#403=EDGE_CURVE('',#619,#624,#519,.T.);
#404=EDGE_CURVE('',#621,#626,#520,.T.);
#405=EDGE_CURVE('',#623,#628,#521,.T.);
#406=EDGE_CURVE('',#625,#630,#522,.T.);
#407=EDGE_CURVE('',#632,#631,#523,.T.);
#408=EDGE_CURVE('',#634,#633,#524,.T.);
#409=EDGE_CURVE('',#636,#635,#525,.T.);
#410=EDGE_CURVE('',#638,#637,#526,.T.);
#411=EDGE_CURVE('',#640,#639,#527,.T.);
#412=EDGE_CURVE('',#642,#641,#528,.T.);
#413=EDGE_CURVE('',#644,#643,#529,.T.);
#414=EDGE_CURVE('',#646,#645,#530,.T.);
#415=EDGE_CURVE('',#633,#631,#531,.T.);
#416=EDGE_CURVE('',#632,#634,#532,.T.);
#417=EDGE_CURVE('',#638,#636,#533,.T.);
#418=EDGE_CURVE('',#637,#635,#534,.T.);
#419=EDGE_CURVE('',#642,#640,#535,.T.);
#420=EDGE_CURVE('',#641,#639,#536,.T.);
#421=EDGE_CURVE('',#646,#644,#537,.T.);
#422=EDGE_CURVE('',#643,#645,#538,.T.);
#423=EDGE_CURVE('',#631,#636,#539,.T.);
#424=EDGE_CURVE('',#633,#638,#540,.T.);
#425=EDGE_CURVE('',#643,#632,#541,.T.);
#426=EDGE_CURVE('',#645,#634,#542,.T.);
#427=EDGE_CURVE('',#635,#640,#543,.T.);
#428=EDGE_CURVE('',#637,#642,#544,.T.);
#429=EDGE_CURVE('',#639,#644,#545,.T.);
#430=EDGE_CURVE('',#641,#646,#546,.T.);
#431=EDGE_CURVE('',#647,#622,#547,.T.);
#432=EDGE_CURVE('',#648,#649,#548,.T.);
#433=EDGE_CURVE('',#650,#649,#549,.T.);
#434=EDGE_CURVE('',#647,#650,#550,.T.);
#435=EDGE_CURVE('',#648,#651,#551,.T.);
#436=EDGE_CURVE('',#651,#652,#552,.T.);
#437=EDGE_CURVE('',#649,#669,#553,.T.);
#438=EDGE_CURVE('',#651,#646,#554,.T.);
#439=EDGE_CURVE('',#653,#654,#555,.T.);
#440=EDGE_CURVE('',#652,#654,#556,.T.);
#441=EDGE_CURVE('',#653,#647,#557,.T.);
#442=EDGE_CURVE('',#654,#685,#558,.T.);
#443=EDGE_CURVE('',#672,#655,#559,.T.);
#444=EDGE_CURVE('',#656,#655,#560,.T.);
#445=EDGE_CURVE('',#671,#656,#561,.T.);
#446=EDGE_CURVE('',#657,#658,#562,.T.);
#447=EDGE_CURVE('',#655,#658,#563,.T.);
#448=EDGE_CURVE('',#657,#659,#564,.T.);
#449=EDGE_CURVE('',#659,#660,#565,.T.);
#450=EDGE_CURVE('',#658,#660,#566,.T.);
#451=EDGE_CURVE('',#659,#670,#567,.T.);
#452=EDGE_CURVE('',#660,#656,#568,.T.);
#453=EDGE_CURVE('',#666,#661,#569,.T.);
#454=EDGE_CURVE('',#662,#661,#570,.T.);
#455=EDGE_CURVE('',#665,#662,#571,.T.);
#456=EDGE_CURVE('',#667,#663,#572,.T.);
#457=EDGE_CURVE('',#661,#663,#573,.T.);
#458=EDGE_CURVE('',#668,#664,#574,.T.);
#459=EDGE_CURVE('',#663,#664,#575,.T.);
#460=EDGE_CURVE('',#664,#662,#576,.T.);
#461=EDGE_CURVE('',#665,#666,#577,.T.);
#462=EDGE_CURVE('',#666,#667,#578,.T.);
#463=EDGE_CURVE('',#667,#668,#579,.T.);
#464=EDGE_CURVE('',#668,#665,#580,.T.);
#465=EDGE_CURVE('',#671,#672,#581,.T.);
#466=EDGE_CURVE('',#672,#669,#582,.T.);
#467=EDGE_CURVE('',#670,#671,#583,.T.);
#468=EDGE_CURVE('',#670,#652,#584,.T.);
#469=EDGE_CURVE('',#669,#670,#585,.T.);
#470=EDGE_CURVE('',#669,#657,#586,.T.);
#471=EDGE_CURVE('',#680,#673,#587,.T.);
#472=EDGE_CURVE('',#674,#673,#588,.T.);
#473=EDGE_CURVE('',#679,#674,#589,.T.);
#474=EDGE_CURVE('',#677,#675,#590,.T.);
#475=EDGE_CURVE('',#673,#675,#591,.T.);
#476=EDGE_CURVE('',#678,#676,#592,.T.);
#477=EDGE_CURVE('',#675,#676,#593,.T.);
#478=EDGE_CURVE('',#676,#674,#594,.T.);
#479=EDGE_CURVE('',#679,#680,#595,.T.);
#480=EDGE_CURVE('',#680,#677,#596,.T.);
#481=EDGE_CURVE('',#678,#679,#597,.T.);
#482=EDGE_CURVE('',#678,#650,#598,.T.);
#483=EDGE_CURVE('',#677,#678,#599,.T.);
#484=EDGE_CURVE('',#688,#681,#600,.T.);
#485=EDGE_CURVE('',#682,#681,#601,.T.);
#486=EDGE_CURVE('',#687,#682,#602,.T.);
#487=EDGE_CURVE('',#685,#683,#603,.T.);
#488=EDGE_CURVE('',#681,#683,#604,.T.);
#489=EDGE_CURVE('',#686,#684,#605,.T.);
#490=EDGE_CURVE('',#683,#684,#606,.T.);
#491=EDGE_CURVE('',#684,#682,#607,.T.);
#492=EDGE_CURVE('',#687,#688,#608,.T.);
#493=EDGE_CURVE('',#688,#685,#609,.T.);
#494=EDGE_CURVE('',#686,#687,#610,.T.);
#495=EDGE_CURVE('',#686,#677,#611,.T.);
#496=EDGE_CURVE('',#685,#686,#612,.T.);
#497=EDGE_CURVE('',#645,#653,#613,.T.);
#498=EDGE_CURVE('',#621,#648,#614,.T.);
#499=B_SPLINE_CURVE_WITH_KNOTS('',1,(#1037,#1038),.UNSPECIFIED.,.F.,.F.,
(2,2),(0.400000000000006,1.99999999999997),.UNSPECIFIED.);
#500=B_SPLINE_CURVE_WITH_KNOTS('',1,(#1039,#1040),.UNSPECIFIED.,.F.,.F.,
(2,2),(0.400000000000006,1.99999999999997),.UNSPECIFIED.);
#501=B_SPLINE_CURVE_WITH_KNOTS('',1,(#1041,#1042),.UNSPECIFIED.,.F.,.F.,
(2,2),(2.80000000000001,57.),.UNSPECIFIED.);
#502=B_SPLINE_CURVE_WITH_KNOTS('',1,(#1043,#1044),.UNSPECIFIED.,.F.,.F.,
(2,2),(2.8,57.),.UNSPECIFIED.);
#503=B_SPLINE_CURVE_WITH_KNOTS('',1,(#1045,#1046),.UNSPECIFIED.,.F.,.F.,
(2,2),(57.8,59.4),.UNSPECIFIED.);
#504=B_SPLINE_CURVE_WITH_KNOTS('',1,(#1047,#1048),.UNSPECIFIED.,.F.,.F.,
(2,2),(57.8,59.4),.UNSPECIFIED.);
#505=B_SPLINE_CURVE_WITH_KNOTS('',1,(#1049,#1050),.UNSPECIFIED.,.F.,.F.,
(2,2),(60.2,114.4),.UNSPECIFIED.);
#506=B_SPLINE_CURVE_WITH_KNOTS('',1,(#1051,#1052),.UNSPECIFIED.,.F.,.F.,
(2,2),(60.2,114.4),.UNSPECIFIED.);
#507=B_SPLINE_CURVE_WITH_KNOTS('',1,(#1053,#1054),.UNSPECIFIED.,.F.,.F.,
(2,2),(0.,2.4),.UNSPECIFIED.);
#508=B_SPLINE_CURVE_WITH_KNOTS('',1,(#1055,#1056),.UNSPECIFIED.,.F.,.F.,
(2,2),(0.,2.4),.UNSPECIFIED.);
#509=B_SPLINE_CURVE_WITH_KNOTS('',1,(#1057,#1058),.UNSPECIFIED.,.F.,.F.,
(2,2),(0.,2.4),.UNSPECIFIED.);
#510=B_SPLINE_CURVE_WITH_KNOTS('',1,(#1059,#1060),.UNSPECIFIED.,.F.,.F.,
(2,2),(0.,2.4),.UNSPECIFIED.);
#511=B_SPLINE_CURVE_WITH_KNOTS('',1,(#1061,#1062),.UNSPECIFIED.,.F.,.F.,
(2,2),(0.,2.4),.UNSPECIFIED.);
#512=B_SPLINE_CURVE_WITH_KNOTS('',1,(#1063,#1064),.UNSPECIFIED.,.F.,.F.,
(2,2),(0.,2.4),.UNSPECIFIED.);
#513=B_SPLINE_CURVE_WITH_KNOTS('',1,(#1065,#1066),.UNSPECIFIED.,.F.,.F.,
(2,2),(0.,2.4),.UNSPECIFIED.);
#514=B_SPLINE_CURVE_WITH_KNOTS('',1,(#1067,#1068),.UNSPECIFIED.,.F.,.F.,
(2,2),(0.,2.4),.UNSPECIFIED.);
#515=B_SPLINE_CURVE_WITH_KNOTS('',1,(#1069,#1070),.UNSPECIFIED.,.F.,.F.,
(2,2),(0.,0.565685424949252),.UNSPECIFIED.);
#516=B_SPLINE_CURVE_WITH_KNOTS('',1,(#1071,#1072),.UNSPECIFIED.,.F.,.F.,
(2,2),(0.,0.565685424949252),.UNSPECIFIED.);
#517=B_SPLINE_CURVE_WITH_KNOTS('',1,(#1073,#1074),.UNSPECIFIED.,.F.,.F.,
(2,2),(-0.565685424949257,0.),.UNSPECIFIED.);
#518=B_SPLINE_CURVE_WITH_KNOTS('',1,(#1075,#1076),.UNSPECIFIED.,.F.,.F.,
(2,2),(-0.565685424949257,0.),.UNSPECIFIED.);
#519=B_SPLINE_CURVE_WITH_KNOTS('',1,(#1077,#1078),.UNSPECIFIED.,.F.,.F.,
(2,2),(0.,0.565685424949276),.UNSPECIFIED.);
#520=B_SPLINE_CURVE_WITH_KNOTS('',1,(#1079,#1080),.UNSPECIFIED.,.F.,.F.,
(2,2),(0.,0.565685424949276),.UNSPECIFIED.);
#521=B_SPLINE_CURVE_WITH_KNOTS('',1,(#1081,#1082),.UNSPECIFIED.,.F.,.F.,
(2,2),(0.,0.565685424949211),.UNSPECIFIED.);
#522=B_SPLINE_CURVE_WITH_KNOTS('',1,(#1083,#1084),.UNSPECIFIED.,.F.,.F.,
(2,2),(0.,0.565685424949211),.UNSPECIFIED.);
#523=B_SPLINE_CURVE_WITH_KNOTS('',1,(#1085,#1086),.UNSPECIFIED.,.F.,.F.,
(2,2),(0.40000000000002,1.99999999999997),.UNSPECIFIED.);
#524=B_SPLINE_CURVE_WITH_KNOTS('',1,(#1087,#1088),.UNSPECIFIED.,.F.,.F.,
(2,2),(0.399999999999991,2.),.UNSPECIFIED.);
#525=B_SPLINE_CURVE_WITH_KNOTS('',1,(#1089,#1090),.UNSPECIFIED.,.F.,.F.,
(2,2),(2.80000000000001,57.),.UNSPECIFIED.);
#526=B_SPLINE_CURVE_WITH_KNOTS('',1,(#1091,#1092),.UNSPECIFIED.,.F.,.F.,
(2,2),(2.8,57.),.UNSPECIFIED.);
#527=B_SPLINE_CURVE_WITH_KNOTS('',1,(#1093,#1094),.UNSPECIFIED.,.F.,.F.,
(2,2),(57.8,59.4),.UNSPECIFIED.);
#528=B_SPLINE_CURVE_WITH_KNOTS('',1,(#1095,#1096),.UNSPECIFIED.,.F.,.F.,
(2,2),(57.8,59.4),.UNSPECIFIED.);
#529=B_SPLINE_CURVE_WITH_KNOTS('',1,(#1097,#1098),.UNSPECIFIED.,.F.,.F.,
(2,2),(60.2,114.4),.UNSPECIFIED.);
#530=B_SPLINE_CURVE_WITH_KNOTS('',1,(#1099,#1100),.UNSPECIFIED.,.F.,.F.,
(2,2),(60.2,114.4),.UNSPECIFIED.);
#531=B_SPLINE_CURVE_WITH_KNOTS('',1,(#1101,#1102),.UNSPECIFIED.,.F.,.F.,
(2,2),(0.,2.4),.UNSPECIFIED.);
#532=B_SPLINE_CURVE_WITH_KNOTS('',1,(#1103,#1104),.UNSPECIFIED.,.F.,.F.,
(2,2),(0.,2.4),.UNSPECIFIED.);
#533=B_SPLINE_CURVE_WITH_KNOTS('',1,(#1105,#1106),.UNSPECIFIED.,.F.,.F.,
(2,2),(0.,2.4),.UNSPECIFIED.);
#534=B_SPLINE_CURVE_WITH_KNOTS('',1,(#1107,#1108),.UNSPECIFIED.,.F.,.F.,
(2,2),(0.,2.4),.UNSPECIFIED.);
#535=B_SPLINE_CURVE_WITH_KNOTS('',1,(#1109,#1110),.UNSPECIFIED.,.F.,.F.,
(2,2),(0.,2.4),.UNSPECIFIED.);
#536=B_SPLINE_CURVE_WITH_KNOTS('',1,(#1111,#1112),.UNSPECIFIED.,.F.,.F.,
(2,2),(0.,2.4),.UNSPECIFIED.);
#537=B_SPLINE_CURVE_WITH_KNOTS('',1,(#1113,#1114),.UNSPECIFIED.,.F.,.F.,
(2,2),(0.,2.4),.UNSPECIFIED.);
#538=B_SPLINE_CURVE_WITH_KNOTS('',1,(#1115,#1116),.UNSPECIFIED.,.F.,.F.,
(2,2),(0.,2.4),.UNSPECIFIED.);
#539=B_SPLINE_CURVE_WITH_KNOTS('',1,(#1117,#1118),.UNSPECIFIED.,.F.,.F.,
(2,2),(0.,0.565685424949313),.UNSPECIFIED.);
#540=B_SPLINE_CURVE_WITH_KNOTS('',1,(#1119,#1120),.UNSPECIFIED.,.F.,.F.,
(2,2),(0.,0.565685424949313),.UNSPECIFIED.);
#541=B_SPLINE_CURVE_WITH_KNOTS('',1,(#1121,#1122),.UNSPECIFIED.,.F.,.F.,
(2,2),(-0.565685424949277,0.),.UNSPECIFIED.);
#542=B_SPLINE_CURVE_WITH_KNOTS('',1,(#1123,#1124),.UNSPECIFIED.,.F.,.F.,
(2,2),(-0.565685424949277,0.),.UNSPECIFIED.);
#543=B_SPLINE_CURVE_WITH_KNOTS('',1,(#1125,#1126),.UNSPECIFIED.,.F.,.F.,
(2,2),(0.,0.565685424949311),.UNSPECIFIED.);
#544=B_SPLINE_CURVE_WITH_KNOTS('',1,(#1127,#1128),.UNSPECIFIED.,.F.,.F.,
(2,2),(0.,0.565685424949311),.UNSPECIFIED.);
#545=B_SPLINE_CURVE_WITH_KNOTS('',1,(#1129,#1130),.UNSPECIFIED.,.F.,.F.,
(2,2),(0.,0.565685424949251),.UNSPECIFIED.);
#546=B_SPLINE_CURVE_WITH_KNOTS('',1,(#1131,#1132),.UNSPECIFIED.,.F.,.F.,
(2,2),(0.,0.565685424949251),.UNSPECIFIED.);
#547=B_SPLINE_CURVE_WITH_KNOTS('',1,(#1133,#1134),.UNSPECIFIED.,.F.,.F.,
(2,2),(0.,1.4),.UNSPECIFIED.);
#548=B_SPLINE_CURVE_WITH_KNOTS('',1,(#1135,#1136),.UNSPECIFIED.,.F.,.F.,
(2,2),(0.,1.1),.UNSPECIFIED.);
#549=B_SPLINE_CURVE_WITH_KNOTS('',1,(#1137,#1138),.UNSPECIFIED.,.F.,.F.,
(2,2),(0.,57.),.UNSPECIFIED.);
#550=B_SPLINE_CURVE_WITH_KNOTS('',1,(#1139,#1140),.UNSPECIFIED.,.F.,.F.,
(2,2),(0.,1.1),.UNSPECIFIED.);
#551=B_SPLINE_CURVE_WITH_KNOTS('',1,(#1141,#1142),.UNSPECIFIED.,.F.,.F.,
(2,2),(57.,85.),.UNSPECIFIED.);
#552=B_SPLINE_CURVE_WITH_KNOTS('',1,(#1143,#1144),.UNSPECIFIED.,.F.,.F.,
(2,2),(0.,1.1),.UNSPECIFIED.);
#553=B_SPLINE_CURVE_WITH_KNOTS('',1,(#1145,#1146),.UNSPECIFIED.,.F.,.F.,
(2,2),(57.,62.),.UNSPECIFIED.);
#554=B_SPLINE_CURVE_WITH_KNOTS('',1,(#1147,#1148),.UNSPECIFIED.,.F.,.F.,
(2,2),(85.,86.4),.UNSPECIFIED.);
#555=B_SPLINE_CURVE_WITH_KNOTS('',1,(#1149,#1150),.UNSPECIFIED.,.F.,.F.,
(2,2),(0.,1.1),.UNSPECIFIED.);
#556=B_SPLINE_CURVE_WITH_KNOTS('',1,(#1151,#1152),.UNSPECIFIED.,.F.,.F.,
(2,2),(85.,142.),.UNSPECIFIED.);
#557=B_SPLINE_CURVE_WITH_KNOTS('',1,(#1153,#1154),.UNSPECIFIED.,.F.,.F.,
(2,2),(142.,170.),.UNSPECIFIED.);
#558=B_SPLINE_CURVE_WITH_KNOTS('',1,(#1155,#1156),.UNSPECIFIED.,.F.,.F.,
(2,2),(142.,145.3),.UNSPECIFIED.);
#559=B_SPLINE_CURVE_WITH_KNOTS('',1,(#1157,#1158),.UNSPECIFIED.,.F.,.F.,
(2,2),(0.,0.7),.UNSPECIFIED.);
#560=B_SPLINE_CURVE_WITH_KNOTS('',1,(#1159,#1160),.UNSPECIFIED.,.F.,.F.,
(2,2),(0.,18.),.UNSPECIFIED.);
#561=B_SPLINE_CURVE_WITH_KNOTS('',1,(#1161,#1162),.UNSPECIFIED.,.F.,.F.,
(2,2),(0.,0.7),.UNSPECIFIED.);
#562=B_SPLINE_CURVE_WITH_KNOTS('',1,(#1163,#1164),.UNSPECIFIED.,.F.,.F.,
(2,2),(0.,0.7),.UNSPECIFIED.);
#563=B_SPLINE_CURVE_WITH_KNOTS('',1,(#1165,#1166),.UNSPECIFIED.,.F.,.F.,
(2,2),(18.,43.),.UNSPECIFIED.);
#564=B_SPLINE_CURVE_WITH_KNOTS('',1,(#1167,#1168),.UNSPECIFIED.,.F.,.F.,
(2,2),(43.,61.),.UNSPECIFIED.);
#565=B_SPLINE_CURVE_WITH_KNOTS('',1,(#1169,#1170),.UNSPECIFIED.,.F.,.F.,
(2,2),(0.,0.7),.UNSPECIFIED.);
#566=B_SPLINE_CURVE_WITH_KNOTS('',1,(#1171,#1172),.UNSPECIFIED.,.F.,.F.,
(2,2),(43.,61.),.UNSPECIFIED.);
#567=B_SPLINE_CURVE_WITH_KNOTS('',1,(#1173,#1174),.UNSPECIFIED.,.F.,.F.,
(2,2),(61.,67.6),.UNSPECIFIED.);
#568=B_SPLINE_CURVE_WITH_KNOTS('',1,(#1175,#1176),.UNSPECIFIED.,.F.,.F.,
(2,2),(61.,86.),.UNSPECIFIED.);
#569=B_SPLINE_CURVE_WITH_KNOTS('',1,(#1177,#1178),.UNSPECIFIED.,.F.,.F.,
(2,2),(0.,2.5),.UNSPECIFIED.);
#570=B_SPLINE_CURVE_WITH_KNOTS('',1,(#1179,#1180),.UNSPECIFIED.,.F.,.F.,
(2,2),(0.,17.),.UNSPECIFIED.);
#571=B_SPLINE_CURVE_WITH_KNOTS('',1,(#1181,#1182),.UNSPECIFIED.,.F.,.F.,
(2,2),(0.,2.5),.UNSPECIFIED.);
#572=B_SPLINE_CURVE_WITH_KNOTS('',1,(#1183,#1184),.UNSPECIFIED.,.F.,.F.,
(2,2),(0.,2.5),.UNSPECIFIED.);
#573=B_SPLINE_CURVE_WITH_KNOTS('',1,(#1185,#1186),.UNSPECIFIED.,.F.,.F.,
(2,2),(17.,32.6),.UNSPECIFIED.);
#574=B_SPLINE_CURVE_WITH_KNOTS('',1,(#1187,#1188),.UNSPECIFIED.,.F.,.F.,
(2,2),(0.,2.5),.UNSPECIFIED.);
#575=B_SPLINE_CURVE_WITH_KNOTS('',1,(#1189,#1190),.UNSPECIFIED.,.F.,.F.,
(2,2),(32.6,49.6),.UNSPECIFIED.);
#576=B_SPLINE_CURVE_WITH_KNOTS('',1,(#1191,#1192),.UNSPECIFIED.,.F.,.F.,
(2,2),(49.6,65.2),.UNSPECIFIED.);
#577=B_SPLINE_CURVE_WITH_KNOTS('',1,(#1193,#1194),.UNSPECIFIED.,.F.,.F.,
(2,2),(0.,17.),.UNSPECIFIED.);
#578=B_SPLINE_CURVE_WITH_KNOTS('',1,(#1195,#1196),.UNSPECIFIED.,.F.,.F.,
(2,2),(17.,32.6),.UNSPECIFIED.);
#579=B_SPLINE_CURVE_WITH_KNOTS('',1,(#1197,#1198),.UNSPECIFIED.,.F.,.F.,
(2,2),(32.6,49.6),.UNSPECIFIED.);
#580=B_SPLINE_CURVE_WITH_KNOTS('',1,(#1199,#1200),.UNSPECIFIED.,.F.,.F.,
(2,2),(49.6,65.2),.UNSPECIFIED.);
#581=B_SPLINE_CURVE_WITH_KNOTS('',1,(#1201,#1202),.UNSPECIFIED.,.F.,.F.,
(2,2),(0.,18.),.UNSPECIFIED.);
#582=B_SPLINE_CURVE_WITH_KNOTS('',1,(#1203,#1204),.UNSPECIFIED.,.F.,.F.,
(2,2),(18.,36.4),.UNSPECIFIED.);
#583=B_SPLINE_CURVE_WITH_KNOTS('',1,(#1205,#1206),.UNSPECIFIED.,.F.,.F.,
(2,2),(67.6,86.),.UNSPECIFIED.);
#584=B_SPLINE_CURVE_WITH_KNOTS('',1,(#1207,#1208),.UNSPECIFIED.,.F.,.F.,
(2,2),(80.,85.),.UNSPECIFIED.);
#585=B_SPLINE_CURVE_WITH_KNOTS('',1,(#1209,#1210),.UNSPECIFIED.,.F.,.F.,
(2,2),(62.,80.),.UNSPECIFIED.);
#586=B_SPLINE_CURVE_WITH_KNOTS('',1,(#1211,#1212),.UNSPECIFIED.,.F.,.F.,
(2,2),(36.4,43.),.UNSPECIFIED.);
#587=B_SPLINE_CURVE_WITH_KNOTS('',1,(#1213,#1214),.UNSPECIFIED.,.F.,.F.,
(2,2),(0.,3.3),.UNSPECIFIED.);
#588=B_SPLINE_CURVE_WITH_KNOTS('',1,(#1215,#1216),.UNSPECIFIED.,.F.,.F.,
(2,2),(0.,8.7),.UNSPECIFIED.);
#589=B_SPLINE_CURVE_WITH_KNOTS('',1,(#1217,#1218),.UNSPECIFIED.,.F.,.F.,
(2,2),(0.,3.3),.UNSPECIFIED.);
#590=B_SPLINE_CURVE_WITH_KNOTS('',1,(#1219,#1220),.UNSPECIFIED.,.F.,.F.,
(2,2),(0.,3.3),.UNSPECIFIED.);
#591=B_SPLINE_CURVE_WITH_KNOTS('',1,(#1221,#1222),.UNSPECIFIED.,.F.,.F.,
(2,2),(8.7,16.1),.UNSPECIFIED.);
#592=B_SPLINE_CURVE_WITH_KNOTS('',1,(#1223,#1224),.UNSPECIFIED.,.F.,.F.,
(2,2),(0.,3.3),.UNSPECIFIED.);
#593=B_SPLINE_CURVE_WITH_KNOTS('',1,(#1225,#1226),.UNSPECIFIED.,.F.,.F.,
(2,2),(16.1,24.8),.UNSPECIFIED.);
#594=B_SPLINE_CURVE_WITH_KNOTS('',1,(#1227,#1228),.UNSPECIFIED.,.F.,.F.,
(2,2),(24.8,32.2),.UNSPECIFIED.);
#595=B_SPLINE_CURVE_WITH_KNOTS('',1,(#1229,#1230),.UNSPECIFIED.,.F.,.F.,
(2,2),(0.,8.7),.UNSPECIFIED.);
#596=B_SPLINE_CURVE_WITH_KNOTS('',1,(#1231,#1232),.UNSPECIFIED.,.F.,.F.,
(2,2),(8.7,16.1),.UNSPECIFIED.);
#597=B_SPLINE_CURVE_WITH_KNOTS('',1,(#1233,#1234),.UNSPECIFIED.,.F.,.F.,
(2,2),(24.8,32.2),.UNSPECIFIED.);
#598=B_SPLINE_CURVE_WITH_KNOTS('',1,(#1235,#1236),.UNSPECIFIED.,.F.,.F.,
(2,2),(166.7,170.),.UNSPECIFIED.);
#599=B_SPLINE_CURVE_WITH_KNOTS('',1,(#1237,#1238),.UNSPECIFIED.,.F.,.F.,
(2,2),(158.,166.7),.UNSPECIFIED.);
#600=B_SPLINE_CURVE_WITH_KNOTS('',1,(#1239,#1240),.UNSPECIFIED.,.F.,.F.,
(2,2),(0.,3.3),.UNSPECIFIED.);
#601=B_SPLINE_CURVE_WITH_KNOTS('',1,(#1241,#1242),.UNSPECIFIED.,.F.,.F.,
(2,2),(0.,8.7),.UNSPECIFIED.);
#602=B_SPLINE_CURVE_WITH_KNOTS('',1,(#1243,#1244),.UNSPECIFIED.,.F.,.F.,
(2,2),(0.,3.3),.UNSPECIFIED.);
#603=B_SPLINE_CURVE_WITH_KNOTS('',1,(#1245,#1246),.UNSPECIFIED.,.F.,.F.,
(2,2),(0.,3.3),.UNSPECIFIED.);
#604=B_SPLINE_CURVE_WITH_KNOTS('',1,(#1247,#1248),.UNSPECIFIED.,.F.,.F.,
(2,2),(8.7,16.1),.UNSPECIFIED.);
#605=B_SPLINE_CURVE_WITH_KNOTS('',1,(#1249,#1250),.UNSPECIFIED.,.F.,.F.,
(2,2),(0.,3.3),.UNSPECIFIED.);
#606=B_SPLINE_CURVE_WITH_KNOTS('',1,(#1251,#1252),.UNSPECIFIED.,.F.,.F.,
(2,2),(16.1,24.8),.UNSPECIFIED.);
#607=B_SPLINE_CURVE_WITH_KNOTS('',1,(#1253,#1254),.UNSPECIFIED.,.F.,.F.,
(2,2),(24.8,32.2),.UNSPECIFIED.);
#608=B_SPLINE_CURVE_WITH_KNOTS('',1,(#1255,#1256),.UNSPECIFIED.,.F.,.F.,
(2,2),(0.,8.7),.UNSPECIFIED.);
#609=B_SPLINE_CURVE_WITH_KNOTS('',1,(#1257,#1258),.UNSPECIFIED.,.F.,.F.,
(2,2),(8.7,16.1),.UNSPECIFIED.);
#610=B_SPLINE_CURVE_WITH_KNOTS('',1,(#1259,#1260),.UNSPECIFIED.,.F.,.F.,
(2,2),(24.8,32.2),.UNSPECIFIED.);
#611=B_SPLINE_CURVE_WITH_KNOTS('',1,(#1261,#1262),.UNSPECIFIED.,.F.,.F.,
(2,2),(154.,158.),.UNSPECIFIED.);
#612=B_SPLINE_CURVE_WITH_KNOTS('',1,(#1263,#1264),.UNSPECIFIED.,.F.,.F.,
(2,2),(145.3,154.),.UNSPECIFIED.);
#613=B_SPLINE_CURVE_WITH_KNOTS('',1,(#1265,#1266),.UNSPECIFIED.,.F.,.F.,
(2,2),(140.6,142.),.UNSPECIFIED.);
#614=B_SPLINE_CURVE_WITH_KNOTS('',1,(#1267,#1268),.UNSPECIFIED.,.F.,.F.,
(2,2),(55.6,57.),.UNSPECIFIED.);
#615=VERTEX_POINT('',#963);
#616=VERTEX_POINT('',#964);
#617=VERTEX_POINT('',#965);
#618=VERTEX_POINT('',#966);
#619=VERTEX_POINT('',#967);
#620=VERTEX_POINT('',#968);
#621=VERTEX_POINT('',#969);
#622=VERTEX_POINT('',#970);
#623=VERTEX_POINT('',#971);
#624=VERTEX_POINT('',#972);
#625=VERTEX_POINT('',#973);
#626=VERTEX_POINT('',#974);
#627=VERTEX_POINT('',#975);
#628=VERTEX_POINT('',#976);
#629=VERTEX_POINT('',#977);
#630=VERTEX_POINT('',#978);
#631=VERTEX_POINT('',#979);
#632=VERTEX_POINT('',#980);
#633=VERTEX_POINT('',#981);
#634=VERTEX_POINT('',#982);
#635=VERTEX_POINT('',#983);
#636=VERTEX_POINT('',#984);
#637=VERTEX_POINT('',#985);
#638=VERTEX_POINT('',#986);
#639=VERTEX_POINT('',#987);
#640=VERTEX_POINT('',#988);
#641=VERTEX_POINT('',#989);
#642=VERTEX_POINT('',#990);
#643=VERTEX_POINT('',#991);
#644=VERTEX_POINT('',#992);
#645=VERTEX_POINT('',#993);
#646=VERTEX_POINT('',#994);
#647=VERTEX_POINT('',#995);
#648=VERTEX_POINT('',#996);
#649=VERTEX_POINT('',#997);
#650=VERTEX_POINT('',#998);
#651=VERTEX_POINT('',#999);
#652=VERTEX_POINT('',#1000);
#653=VERTEX_POINT('',#1001);
#654=VERTEX_POINT('',#1002);
#655=VERTEX_POINT('',#1003);
#656=VERTEX_POINT('',#1004);
#657=VERTEX_POINT('',#1005);
#658=VERTEX_POINT('',#1006);
#659=VERTEX_POINT('',#1007);
#660=VERTEX_POINT('',#1008);
#661=VERTEX_POINT('',#1009);
#662=VERTEX_POINT('',#1010);
#663=VERTEX_POINT('',#1011);
#664=VERTEX_POINT('',#1012);
#665=VERTEX_POINT('',#1013);
#666=VERTEX_POINT('',#1014);
#667=VERTEX_POINT('',#1015);
#668=VERTEX_POINT('',#1016);
#669=VERTEX_POINT('',#1017);
#670=VERTEX_POINT('',#1018);
#671=VERTEX_POINT('',#1019);
#672=VERTEX_POINT('',#1020);
#673=VERTEX_POINT('',#1021);
#674=VERTEX_POINT('',#1022);
#675=VERTEX_POINT('',#1023);
#676=VERTEX_POINT('',#1024);
#677=VERTEX_POINT('',#1025);
#678=VERTEX_POINT('',#1026);
#679=VERTEX_POINT('',#1027);
#680=VERTEX_POINT('',#1028);
#681=VERTEX_POINT('',#1029);
#682=VERTEX_POINT('',#1030);
#683=VERTEX_POINT('',#1031);
#684=VERTEX_POINT('',#1032);
#685=VERTEX_POINT('',#1033);
#686=VERTEX_POINT('',#1034);
#687=VERTEX_POINT('',#1035);
#688=VERTEX_POINT('',#1036);
#689=PLANE('',#822);
#690=PLANE('',#823);
#691=PLANE('',#824);
#692=PLANE('',#825);
#693=PLANE('',#826);
#694=PLANE('',#827);
#695=PLANE('',#828);
#696=PLANE('',#829);
#697=PLANE('',#830);
#698=PLANE('',#831);
#699=PLANE('',#832);
#700=PLANE('',#833);
#701=PLANE('',#834);
#702=PLANE('',#835);
#703=PLANE('',#836);
#704=PLANE('',#837);
#705=PLANE('',#838);
#706=PLANE('',#839);
#707=PLANE('',#840);
#708=PLANE('',#841);
#709=PLANE('',#842);
#710=PLANE('',#843);
#711=PLANE('',#844);
#712=PLANE('',#845);
#713=PLANE('',#846);
#714=PLANE('',#847);
#715=PLANE('',#848);
#716=PLANE('',#849);
#717=PLANE('',#850);
#718=PLANE('',#851);
#719=PLANE('',#852);
#720=PLANE('',#853);
#721=PLANE('',#854);
#722=PLANE('',#855);
#723=PLANE('',#856);
#724=PLANE('',#857);
#725=PLANE('',#858);
#726=PLANE('',#859);
#727=PLANE('',#860);
#728=PLANE('',#861);
#729=PLANE('',#862);
#730=PLANE('',#863);
#731=PLANE('',#864);
#732=PLANE('',#865);
#733=PLANE('',#866);
#734=SHAPE_DEFINITION_REPRESENTATION(#735,#820);
#735=PRODUCT_DEFINITION_SHAPE('Document','',#737);
#736=PRODUCT_DEFINITION_CONTEXT('3D Mechanical Parts',#809,'design');
#737=PRODUCT_DEFINITION('A','First version',#779,#736);
#738=DATE_TIME_ROLE('classification_date');
#739=DATE_TIME_ROLE('creation_date');
#740=APPLIED_DATE_AND_TIME_ASSIGNMENT(#764,#738,(#743));
#741=APPLIED_DATE_AND_TIME_ASSIGNMENT(#766,#739,(#737));
#742=SECURITY_CLASSIFICATION_LEVEL('unclassified');
#743=SECURITY_CLASSIFICATION('A','Security for version',#742);
#744=APPLIED_SECURITY_CLASSIFICATION_ASSIGNMENT(#743,(#779));
#745=APPROVAL_ROLE('Version approval');
#746=APPROVAL_ROLE('Version Security approval');
#747=APPROVAL_ROLE('Definition approval');
#748=APPROVAL_PERSON_ORGANIZATION(#797,#773,#745);
#749=APPROVAL_PERSON_ORGANIZATION(#798,#774,#746);
#750=APPROVAL_PERSON_ORGANIZATION(#801,#775,#747);
#751=COORDINATED_UNIVERSAL_TIME_OFFSET(5,0,.BEHIND.);
#752=LOCAL_TIME(0,0,0.,#751);
#753=LOCAL_TIME(0,0,0.,#751);
#754=LOCAL_TIME(0,0,0.,#751);
#755=LOCAL_TIME(0,0,0.,#751);
#756=LOCAL_TIME(0,0,0.,#751);
#757=CALENDAR_DATE(1999,1,1);
#758=CALENDAR_DATE(1999,1,1);
#759=CALENDAR_DATE(1999,1,1);
#760=CALENDAR_DATE(1999,1,1);
#761=CALENDAR_DATE(1999,1,1);
#762=DATE_AND_TIME(#757,#752);
#763=DATE_AND_TIME(#758,#753);
#764=DATE_AND_TIME(#759,#754);
#765=DATE_AND_TIME(#760,#755);
#766=DATE_AND_TIME(#761,#756);
#767=APPROVAL_DATE_TIME(#762,#773);
#768=APPROVAL_DATE_TIME(#763,#774);
#769=APPROVAL_DATE_TIME(#765,#775);
#770=APPROVAL_STATUS('not_yet_approved');
#771=APPROVAL_STATUS('not_yet_approved');
#772=APPROVAL_STATUS('approved');
#773=APPROVAL(#770,'Version approval');
#774=APPROVAL(#771,'Version Security approval');
#775=APPROVAL(#772,'Definition approval');
#776=APPLIED_APPROVAL_ASSIGNMENT(#773,(#779));
#777=APPLIED_APPROVAL_ASSIGNMENT(#774,(#743));
#778=APPLIED_APPROVAL_ASSIGNMENT(#775,(#737));
#779=PRODUCT_DEFINITION_FORMATION_WITH_SPECIFIED_SOURCE('A',
'First version',#811,.MADE.);
#780=PERSON_AND_ORGANIZATION_ROLE('design_owner');
#781=PERSON_AND_ORGANIZATION_ROLE('creator');
#782=PERSON_AND_ORGANIZATION_ROLE('design_supplier');
#783=PERSON_AND_ORGANIZATION_ROLE('classification_officer');
#784=PERSON_AND_ORGANIZATION_ROLE('creator');
#785=ORGANIZATION('STI','lab','lab');
#786=ORGANIZATION('STI','unknown','unknown');
#787=ORGANIZATION('STI','unknown','unknown');
#788=ORGANIZATION('STI','unknown','unknown');
#789=ORGANIZATION('STI','unknown','unknown');
#790=ORGANIZATION('STI','unknown','unknown');
#791=ORGANIZATION('STI','unknown','unknown');
#792=PERSON('1','Box','vc60',$,$,$);
#793=PERSON('2','last','first',$,$,$);
#794=PERSON('3','President','Mr.',$,$,$);
#795=PERSON_AND_ORGANIZATION(#792,#785);
#796=PERSON_AND_ORGANIZATION(#793,#786);
#797=PERSON_AND_ORGANIZATION(#794,#787);
#798=PERSON_AND_ORGANIZATION(#794,#788);
#799=PERSON_AND_ORGANIZATION(#794,#789);
#800=PERSON_AND_ORGANIZATION(#793,#790);
#801=PERSON_AND_ORGANIZATION(#794,#791);
#802=APPLIED_PERSON_AND_ORGANIZATION_ASSIGNMENT(#795,#780,(#811));
#803=APPLIED_PERSON_AND_ORGANIZATION_ASSIGNMENT(#796,#781,(#779));
#804=APPLIED_PERSON_AND_ORGANIZATION_ASSIGNMENT(#796,#782,(#779));
#805=APPLIED_PERSON_AND_ORGANIZATION_ASSIGNMENT(#799,#783,(#743));
#806=APPLIED_PERSON_AND_ORGANIZATION_ASSIGNMENT(#800,#784,(#737));
#807=PRODUCT_RELATED_PRODUCT_CATEGORY('detail','detail',(#811));
#808=APPLICATION_PROTOCOL_DEFINITION('International Standard',
'config_control_design',1994,#809);
#809=APPLICATION_CONTEXT(
'configuration controlled 3d designs of mechanical parts and assemblie
s');
#810=PRODUCT_CONTEXT('3D Mechanical Parts',#809,'mechanical');
#811=PRODUCT('Document','Document','',(#810));
#812=(
LENGTH_UNIT()
NAMED_UNIT(*)
SI_UNIT(.MILLI.,.METRE.)
);
#813=(
NAMED_UNIT(*)
PLANE_ANGLE_UNIT()
SI_UNIT($,.RADIAN.)
);
#814=DIMENSIONAL_EXPONENTS(0.,0.,0.,0.,0.,0.,0.);
#815=PLANE_ANGLE_MEASURE_WITH_UNIT(PLANE_ANGLE_MEASURE(0.01745329252),#813);
#816=(
CONVERSION_BASED_UNIT('DEGREES',#815)
NAMED_UNIT(#814)
PLANE_ANGLE_UNIT()
);
#817=(
NAMED_UNIT(*)
SI_UNIT($,.STERADIAN.)
SOLID_ANGLE_UNIT()
);
#818=UNCERTAINTY_MEASURE_WITH_UNIT(LENGTH_MEASURE(0.001),#812,
'DISTANCE_ACCURACY_VALUE',
'Maximum model space distance between geometric entities at asserted c
onnectivities');
#819=(
GEOMETRIC_REPRESENTATION_CONTEXT(3)
GLOBAL_UNCERTAINTY_ASSIGNED_CONTEXT((#818))
GLOBAL_UNIT_ASSIGNED_CONTEXT((#817,#816,#812))
REPRESENTATION_CONTEXT('ID1','3D')
);
#820=SHAPE_REPRESENTATION('Document',(#821,#867),#819);
#821=AXIS2_PLACEMENT_3D('',#917,#868,#869);
#822=AXIS2_PLACEMENT_3D('',#918,#870,$);
#823=AXIS2_PLACEMENT_3D('',#919,#871,$);
#824=AXIS2_PLACEMENT_3D('',#920,#872,$);
#825=AXIS2_PLACEMENT_3D('',#921,#873,$);
#826=AXIS2_PLACEMENT_3D('',#922,#874,$);
#827=AXIS2_PLACEMENT_3D('',#923,#875,$);
#828=AXIS2_PLACEMENT_3D('',#924,#876,$);
#829=AXIS2_PLACEMENT_3D('',#925,#877,$);
#830=AXIS2_PLACEMENT_3D('',#926,#878,$);
#831=AXIS2_PLACEMENT_3D('',#927,#879,$);
#832=AXIS2_PLACEMENT_3D('',#928,#880,$);
#833=AXIS2_PLACEMENT_3D('',#929,#881,$);
#834=AXIS2_PLACEMENT_3D('',#930,#882,$);
#835=AXIS2_PLACEMENT_3D('',#931,#883,$);
#836=AXIS2_PLACEMENT_3D('',#932,#884,$);
#837=AXIS2_PLACEMENT_3D('',#933,#885,$);
#838=AXIS2_PLACEMENT_3D('',#934,#886,$);
#839=AXIS2_PLACEMENT_3D('',#935,#887,$);
#840=AXIS2_PLACEMENT_3D('',#936,#888,$);
#841=AXIS2_PLACEMENT_3D('',#937,#889,$);
#842=AXIS2_PLACEMENT_3D('',#938,#890,$);
#843=AXIS2_PLACEMENT_3D('',#939,#891,$);
#844=AXIS2_PLACEMENT_3D('',#940,#892,$);
#845=AXIS2_PLACEMENT_3D('',#941,#893,$);
#846=AXIS2_PLACEMENT_3D('',#942,#894,$);
#847=AXIS2_PLACEMENT_3D('',#943,#895,$);
#848=AXIS2_PLACEMENT_3D('',#944,#896,$);
#849=AXIS2_PLACEMENT_3D('',#945,#897,$);
#850=AXIS2_PLACEMENT_3D('',#946,#898,$);
#851=AXIS2_PLACEMENT_3D('',#947,#899,$);
#852=AXIS2_PLACEMENT_3D('',#948,#900,$);
#853=AXIS2_PLACEMENT_3D('',#949,#901,$);
#854=AXIS2_PLACEMENT_3D('',#950,#902,$);
#855=AXIS2_PLACEMENT_3D('',#951,#903,$);
#856=AXIS2_PLACEMENT_3D('',#952,#904,$);
#857=AXIS2_PLACEMENT_3D('',#953,#905,$);
#858=AXIS2_PLACEMENT_3D('',#954,#906,$);
#859=AXIS2_PLACEMENT_3D('',#955,#907,$);
#860=AXIS2_PLACEMENT_3D('',#956,#908,$);
#861=AXIS2_PLACEMENT_3D('',#957,#909,$);
#862=AXIS2_PLACEMENT_3D('',#958,#910,$);
#863=AXIS2_PLACEMENT_3D('',#959,#911,$);
#864=AXIS2_PLACEMENT_3D('',#960,#912,$);
#865=AXIS2_PLACEMENT_3D('',#961,#913,$);
#866=AXIS2_PLACEMENT_3D('',#962,#914,$);
#867=AXIS2_PLACEMENT_3D('',#1269,#915,#916);
#868=DIRECTION('',(0.,0.,1.));
#869=DIRECTION('',(1.,0.,0.));
#870=DIRECTION('',(0.,1.,0.));
#871=DIRECTION('',(0.,0.,-1.));
#872=DIRECTION('',(-1.,0.,0.));
#873=DIRECTION('',(0.,-1.,0.));
#874=DIRECTION('',(1.,0.,0.));
#875=DIRECTION('',(-0.707106781186538,-0.707106781186557,2.51214793389407E-15));
#876=DIRECTION('',(-0.707106781186485,0.70710678118661,7.53644380168278E-15));
#877=DIRECTION('',(0.70710678118653,-0.707106781186565,2.51214793389398E-15));
#878=DIRECTION('',(0.707106781186537,0.707106781186558,1.256073966947E-15));
#879=DIRECTION('',(0.,1.,0.));
#880=DIRECTION('',(0.,0.,-1.));
#881=DIRECTION('',(-1.,0.,0.));
#882=DIRECTION('',(0.,-1.,0.));
#883=DIRECTION('',(1.,0.,0.));
#884=DIRECTION('',(-0.707106781186633,-0.707106781186463,2.49252177816019E-15));
#885=DIRECTION('',(-0.707106781186576,0.707106781186519,-1.27570012268052E-15));
#886=DIRECTION('',(0.707106781186615,-0.70710678118648,3.76822190084094E-15));
#887=DIRECTION('',(0.707106781186611,0.707106781186484,2.51214793389427E-15));
#888=DIRECTION('',(0.,-1.,0.));
#889=DIRECTION('',(1.,0.,0.));
#890=DIRECTION('',(0.,1.,0.));
#891=DIRECTION('',(-1.,0.,0.));
#892=DIRECTION('',(-1.,0.,0.));
#893=DIRECTION('',(0.,-1.,0.));
#894=DIRECTION('',(1.,0.,0.));
#895=DIRECTION('',(0.,1.,0.));
#896=DIRECTION('',(0.,0.,1.));
#897=DIRECTION('',(0.,-1.,0.));
#898=DIRECTION('',(1.,0.,0.));
#899=DIRECTION('',(0.,1.,0.));
#900=DIRECTION('',(-1.,0.,0.));
#901=DIRECTION('',(0.,0.,1.));
#902=DIRECTION('',(0.,0.,-1.));
#903=DIRECTION('',(1.,0.,0.));
#904=DIRECTION('',(0.,1.,0.));
#905=DIRECTION('',(-1.,0.,0.));
#906=DIRECTION('',(0.,-1.,0.));
#907=DIRECTION('',(0.,0.,1.));
#908=DIRECTION('',(1.,0.,0.));
#909=DIRECTION('',(0.,1.,0.));
#910=DIRECTION('',(-1.,0.,0.));
#911=DIRECTION('',(0.,-1.,0.));
#912=DIRECTION('',(0.,0.,1.));
#913=DIRECTION('',(0.,0.,1.));
#914=DIRECTION('',(0.,0.,-1.));
#915=DIRECTION('',(0.,0.,1.));
#916=DIRECTION('',(1.,0.,0.));
#917=CARTESIAN_POINT('',(0.,0.,0.));
#918=CARTESIAN_POINT('',(56.,-107.6,0.));
#919=CARTESIAN_POINT('',(1.,-107.6,0.));
#920=CARTESIAN_POINT('',(1.,-107.6,0.));
#921=CARTESIAN_POINT('',(1.,-110.,0.));
#922=CARTESIAN_POINT('',(56.,-110.,0.));
#923=CARTESIAN_POINT('',(1.,-109.6,2.8));
#924=CARTESIAN_POINT('',(1.,-108.,-0.400000000000003));
#925=CARTESIAN_POINT('',(55.6,-110.,2.8));
#926=CARTESIAN_POINT('',(56.,-108.,2.8));
#927=CARTESIAN_POINT('',(56.,-82.,0.));
#928=CARTESIAN_POINT('',(1.,-82.,0.));
#929=CARTESIAN_POINT('',(1.,-82.,0.));
#930=CARTESIAN_POINT('',(1.,-84.4,0.));
#931=CARTESIAN_POINT('',(56.,-84.4,0.));
#932=CARTESIAN_POINT('',(1.,-83.9999999999999,2.8));
#933=CARTESIAN_POINT('',(1.,-82.4000000000001,-0.400000000000003));
#934=CARTESIAN_POINT('',(55.6,-84.4,2.8));
#935=CARTESIAN_POINT('',(56.,-82.4,2.8));
#936=CARTESIAN_POINT('',(0.,-110.,2.4));
#937=CARTESIAN_POINT('',(57.,-110.,2.4));
#938=CARTESIAN_POINT('',(57.,-82.,2.4));
#939=CARTESIAN_POINT('',(0.,-82.,2.4));
#940=CARTESIAN_POINT('',(38.6,-87.,3.5));
#941=CARTESIAN_POINT('',(38.6,-105.,3.5));
#942=CARTESIAN_POINT('',(63.6,-105.,3.5));
#943=CARTESIAN_POINT('',(63.6,-87.,3.5));
#944=CARTESIAN_POINT('',(38.6,-87.,4.2));
#945=CARTESIAN_POINT('',(39.6,-103.8,4.2));
#946=CARTESIAN_POINT('',(56.6,-103.8,4.2));
#947=CARTESIAN_POINT('',(56.6,-88.2,4.2));
#948=CARTESIAN_POINT('',(39.6,-88.2,4.2));
#949=CARTESIAN_POINT('',(39.6,-103.8,6.7));
#950=CARTESIAN_POINT('',(38.6,-87.,3.5));
#951=CARTESIAN_POINT('',(7.4,-106.7,3.5));
#952=CARTESIAN_POINT('',(7.4,-98.,3.5));
#953=CARTESIAN_POINT('',(-7.99360577730113E-15,-98.,3.5));
#954=CARTESIAN_POINT('',(-7.99360577730113E-15,-106.7,3.5));
#955=CARTESIAN_POINT('',(7.4,-106.7,6.8));
#956=CARTESIAN_POINT('',(7.4,-94.,3.5));
#957=CARTESIAN_POINT('',(7.4,-85.3,3.5));
#958=CARTESIAN_POINT('',(-7.99360577730113E-15,-85.3,3.5));
#959=CARTESIAN_POINT('',(-7.99360577730113E-15,-94.,3.5));
#960=CARTESIAN_POINT('',(7.4,-94.,6.8));
#961=CARTESIAN_POINT('',(0.,-110.,3.5));
#962=CARTESIAN_POINT('',(0.,-110.,2.4));
#963=CARTESIAN_POINT('',(1.,-109.6,7.105427357601E-16));
#964=CARTESIAN_POINT('',(1.,-108.,3.5527136788005E-16));
#965=CARTESIAN_POINT('',(1.,-109.6,2.4));
#966=CARTESIAN_POINT('',(1.,-108.,2.4));
#967=CARTESIAN_POINT('',(55.6,-110.,3.5527136788005E-16));
#968=CARTESIAN_POINT('',(1.4,-110.,-3.5527136788005E-16));
#969=CARTESIAN_POINT('',(55.6,-110.,2.4));
#970=CARTESIAN_POINT('',(1.4,-110.,2.4));
#971=CARTESIAN_POINT('',(56.,-108.,3.5527136788005E-16));
#972=CARTESIAN_POINT('',(56.,-109.6,7.105427357601E-16));
#973=CARTESIAN_POINT('',(56.,-108.,2.4));
#974=CARTESIAN_POINT('',(56.,-109.6,2.4));
#975=CARTESIAN_POINT('',(1.40000000000001,-107.6,-7.105427357601E-16));
#976=CARTESIAN_POINT('',(55.6,-107.6,7.105427357601E-16));
#977=CARTESIAN_POINT('',(1.39999999999999,-107.6,2.4));
#978=CARTESIAN_POINT('',(55.6,-107.6,2.4));
#979=CARTESIAN_POINT('',(1.,-83.9999999999999,3.5527136788005E-16));
#980=CARTESIAN_POINT('',(1.,-82.4,-1.06581410364015E-15));
#981=CARTESIAN_POINT('',(1.,-83.9999999999999,2.4));
#982=CARTESIAN_POINT('',(1.,-82.4,2.4));
#983=CARTESIAN_POINT('',(55.6,-84.4,-3.5527136788005E-16));
#984=CARTESIAN_POINT('',(1.4,-84.4,3.5527136788005E-16));
#985=CARTESIAN_POINT('',(55.6,-84.4,2.4));
#986=CARTESIAN_POINT('',(1.4,-84.4,2.4));
#987=CARTESIAN_POINT('',(56.,-82.4,-7.105427357601E-16));
#988=CARTESIAN_POINT('',(56.,-84.,-1.06581410364015E-15));
#989=CARTESIAN_POINT('',(56.,-82.4,2.4));
#990=CARTESIAN_POINT('',(56.,-84.,2.4));
#991=CARTESIAN_POINT('',(1.40000000000001,-82.,-1.4210854715202E-15));
#992=CARTESIAN_POINT('',(55.6,-82.,-1.06581410364015E-15));
#993=CARTESIAN_POINT('',(1.39999999999999,-82.,2.4));
#994=CARTESIAN_POINT('',(55.6,-82.,2.4));
#995=CARTESIAN_POINT('',(0.,-110.,2.4));
#996=CARTESIAN_POINT('',(57.,-110.,2.4));
#997=CARTESIAN_POINT('',(57.,-110.,3.5));
#998=CARTESIAN_POINT('',(0.,-110.,3.5));
#999=CARTESIAN_POINT('',(57.,-82.,2.4));
#1000=CARTESIAN_POINT('',(57.,-82.,3.5));
#1001=CARTESIAN_POINT('',(0.,-82.,2.4));
#1002=CARTESIAN_POINT('',(0.,-82.,3.5));
#1003=CARTESIAN_POINT('',(38.6,-105.,4.2));
#1004=CARTESIAN_POINT('',(38.6,-87.,4.2));
#1005=CARTESIAN_POINT('',(63.6,-105.,3.5));
#1006=CARTESIAN_POINT('',(63.6,-105.,4.2));
#1007=CARTESIAN_POINT('',(63.6,-87.,3.5));
#1008=CARTESIAN_POINT('',(63.6,-87.,4.2));
#1009=CARTESIAN_POINT('',(56.6,-103.8,6.7));
#1010=CARTESIAN_POINT('',(39.6,-103.8,6.7));
#1011=CARTESIAN_POINT('',(56.6,-88.2,6.7));
#1012=CARTESIAN_POINT('',(39.6,-88.2,6.7));
#1013=CARTESIAN_POINT('',(39.6,-103.8,4.2));
#1014=CARTESIAN_POINT('',(56.6,-103.8,4.2));
#1015=CARTESIAN_POINT('',(56.6,-88.2,4.2));
#1016=CARTESIAN_POINT('',(39.6,-88.2,4.2));
#1017=CARTESIAN_POINT('',(57.,-105.,3.5));
#1018=CARTESIAN_POINT('',(57.,-87.,3.5));
#1019=CARTESIAN_POINT('',(38.6,-87.,3.5));
#1020=CARTESIAN_POINT('',(38.6,-105.,3.5));
#1021=CARTESIAN_POINT('',(7.4,-98.,6.8));
#1022=CARTESIAN_POINT('',(7.4,-106.7,6.8));
#1023=CARTESIAN_POINT('',(-7.99360577730113E-15,-98.,6.8));
#1024=CARTESIAN_POINT('',(-7.99360577730113E-15,-106.7,6.8));
#1025=CARTESIAN_POINT('',(0.,-98.,3.5));
#1026=CARTESIAN_POINT('',(0.,-106.7,3.5));
#1027=CARTESIAN_POINT('',(7.4,-106.7,3.5));
#1028=CARTESIAN_POINT('',(7.4,-98.,3.5));
#1029=CARTESIAN_POINT('',(7.4,-85.3,6.8));
#1030=CARTESIAN_POINT('',(7.4,-94.,6.8));
#1031=CARTESIAN_POINT('',(-7.99360577730113E-15,-85.3,6.8));
#1032=CARTESIAN_POINT('',(-7.99360577730113E-15,-94.,6.8));
#1033=CARTESIAN_POINT('',(0.,-85.3,3.5));
#1034=CARTESIAN_POINT('',(0.,-94.,3.5));
#1035=CARTESIAN_POINT('',(7.4,-94.,3.5));
#1036=CARTESIAN_POINT('',(7.4,-85.3,3.5));
#1037=CARTESIAN_POINT('',(1.,-108.,3.5527136788005E-16));
#1038=CARTESIAN_POINT('',(1.,-109.6,7.105427357601E-16));
#1039=CARTESIAN_POINT('',(1.,-108.,2.4));
#1040=CARTESIAN_POINT('',(1.,-109.6,2.4));
#1041=CARTESIAN_POINT('',(1.4,-110.,-3.5527136788005E-16));
#1042=CARTESIAN_POINT('',(55.6,-110.,3.5527136788005E-16));
#1043=CARTESIAN_POINT('',(1.4,-110.,2.4));
#1044=CARTESIAN_POINT('',(55.6,-110.,2.4));
#1045=CARTESIAN_POINT('',(56.,-109.6,7.105427357601E-16));
#1046=CARTESIAN_POINT('',(56.,-108.,3.5527136788005E-16));
#1047=CARTESIAN_POINT('',(56.,-109.6,2.4));
#1048=CARTESIAN_POINT('',(56.,-108.,2.4));
#1049=CARTESIAN_POINT('',(55.6,-107.6,7.105427357601E-16));
#1050=CARTESIAN_POINT('',(1.40000000000001,-107.6,-7.105427357601E-16));
#1051=CARTESIAN_POINT('',(55.6,-107.6,2.4));
#1052=CARTESIAN_POINT('',(1.39999999999999,-107.6,2.4));
#1053=CARTESIAN_POINT('',(1.,-109.6,2.4));
#1054=CARTESIAN_POINT('',(1.,-109.6,7.105427357601E-16));
#1055=CARTESIAN_POINT('',(1.,-108.,3.5527136788005E-16));
#1056=CARTESIAN_POINT('',(1.,-108.,2.4));
#1057=CARTESIAN_POINT('',(1.4,-110.,2.4));
#1058=CARTESIAN_POINT('',(1.4,-110.,-3.5527136788005E-16));
#1059=CARTESIAN_POINT('',(55.6,-110.,2.4));
#1060=CARTESIAN_POINT('',(55.6,-110.,3.5527136788005E-16));
#1061=CARTESIAN_POINT('',(56.,-109.6,2.4));
#1062=CARTESIAN_POINT('',(56.,-109.6,7.105427357601E-16));
#1063=CARTESIAN_POINT('',(56.,-108.,2.4));
#1064=CARTESIAN_POINT('',(56.,-108.,3.5527136788005E-16));
#1065=CARTESIAN_POINT('',(55.6,-107.6,2.4));
#1066=CARTESIAN_POINT('',(55.6,-107.6,7.105427357601E-16));
#1067=CARTESIAN_POINT('',(1.40000000000001,-107.6,-7.105427357601E-16));
#1068=CARTESIAN_POINT('',(1.39999999999999,-107.6,2.4));
#1069=CARTESIAN_POINT('',(1.,-109.6,7.105427357601E-16));
#1070=CARTESIAN_POINT('',(1.4,-110.,-3.5527136788005E-16));
#1071=CARTESIAN_POINT('',(1.,-109.6,2.4));
#1072=CARTESIAN_POINT('',(1.4,-110.,2.4));
#1073=CARTESIAN_POINT('',(1.40000000000001,-107.6,-7.105427357601E-16));
#1074=CARTESIAN_POINT('',(1.,-108.,3.5527136788005E-16));
#1075=CARTESIAN_POINT('',(1.39999999999999,-107.6,2.4));
#1076=CARTESIAN_POINT('',(1.,-108.,2.4));
#1077=CARTESIAN_POINT('',(55.6,-110.,3.5527136788005E-16));
#1078=CARTESIAN_POINT('',(56.,-109.6,7.105427357601E-16));
#1079=CARTESIAN_POINT('',(55.6,-110.,2.4));
#1080=CARTESIAN_POINT('',(56.,-109.6,2.4));
#1081=CARTESIAN_POINT('',(56.,-108.,3.5527136788005E-16));
#1082=CARTESIAN_POINT('',(55.6,-107.6,7.105427357601E-16));
#1083=CARTESIAN_POINT('',(56.,-108.,2.4));
#1084=CARTESIAN_POINT('',(55.6,-107.6,2.4));
#1085=CARTESIAN_POINT('',(1.,-82.4,-1.06581410364015E-15));
#1086=CARTESIAN_POINT('',(1.,-83.9999999999999,3.5527136788005E-16));
#1087=CARTESIAN_POINT('',(1.,-82.4,2.4));
#1088=CARTESIAN_POINT('',(1.,-83.9999999999999,2.4));
#1089=CARTESIAN_POINT('',(1.4,-84.4,3.5527136788005E-16));
#1090=CARTESIAN_POINT('',(55.6,-84.4,-3.5527136788005E-16));
#1091=CARTESIAN_POINT('',(1.4,-84.4,2.4));
#1092=CARTESIAN_POINT('',(55.6,-84.4,2.4));
#1093=CARTESIAN_POINT('',(56.,-84.,-1.06581410364015E-15));
#1094=CARTESIAN_POINT('',(56.,-82.4,-7.105427357601E-16));
#1095=CARTESIAN_POINT('',(56.,-84.,2.4));
#1096=CARTESIAN_POINT('',(56.,-82.4,2.4));
#1097=CARTESIAN_POINT('',(55.6,-82.,-1.06581410364015E-15));
#1098=CARTESIAN_POINT('',(1.40000000000001,-82.,-1.4210854715202E-15));
#1099=CARTESIAN_POINT('',(55.6,-82.,2.4));
#1100=CARTESIAN_POINT('',(1.39999999999999,-82.,2.4));
#1101=CARTESIAN_POINT('',(1.,-83.9999999999999,2.4));
#1102=CARTESIAN_POINT('',(1.,-83.9999999999999,3.5527136788005E-16));
#1103=CARTESIAN_POINT('',(1.,-82.4,-1.06581410364015E-15));
#1104=CARTESIAN_POINT('',(1.,-82.4,2.4));
#1105=CARTESIAN_POINT('',(1.4,-84.4,2.4));
#1106=CARTESIAN_POINT('',(1.4,-84.4,3.5527136788005E-16));
#1107=CARTESIAN_POINT('',(55.6,-84.4,2.4));
#1108=CARTESIAN_POINT('',(55.6,-84.4,-3.5527136788005E-16));
#1109=CARTESIAN_POINT('',(56.,-84.,2.4));
#1110=CARTESIAN_POINT('',(56.,-84.,-1.06581410364015E-15));
#1111=CARTESIAN_POINT('',(56.,-82.4,2.4));
#1112=CARTESIAN_POINT('',(56.,-82.4,-7.105427357601E-16));
#1113=CARTESIAN_POINT('',(55.6,-82.,2.4));
#1114=CARTESIAN_POINT('',(55.6,-82.,-1.06581410364015E-15));
#1115=CARTESIAN_POINT('',(1.40000000000001,-82.,-1.4210854715202E-15));
#1116=CARTESIAN_POINT('',(1.39999999999999,-82.,2.4));
#1117=CARTESIAN_POINT('',(1.,-83.9999999999999,3.5527136788005E-16));
#1118=CARTESIAN_POINT('',(1.4,-84.4,3.5527136788005E-16));
#1119=CARTESIAN_POINT('',(1.,-83.9999999999999,2.4));
#1120=CARTESIAN_POINT('',(1.4,-84.4,2.4));
#1121=CARTESIAN_POINT('',(1.40000000000001,-82.,-1.4210854715202E-15));
#1122=CARTESIAN_POINT('',(1.,-82.4,-1.06581410364015E-15));
#1123=CARTESIAN_POINT('',(1.39999999999999,-82.,2.4));
#1124=CARTESIAN_POINT('',(1.,-82.4,2.4));
#1125=CARTESIAN_POINT('',(55.6,-84.4,-3.5527136788005E-16));
#1126=CARTESIAN_POINT('',(56.,-84.,-1.06581410364015E-15));
#1127=CARTESIAN_POINT('',(55.6,-84.4,2.4));
#1128=CARTESIAN_POINT('',(56.,-84.,2.4));
#1129=CARTESIAN_POINT('',(56.,-82.4,-7.105427357601E-16));
#1130=CARTESIAN_POINT('',(55.6,-82.,-1.06581410364015E-15));
#1131=CARTESIAN_POINT('',(56.,-82.4,2.4));
#1132=CARTESIAN_POINT('',(55.6,-82.,2.4));
#1133=CARTESIAN_POINT('',(0.,-110.,2.4));
#1134=CARTESIAN_POINT('',(1.4,-110.,2.4));
#1135=CARTESIAN_POINT('',(57.,-110.,2.4));
#1136=CARTESIAN_POINT('',(57.,-110.,3.5));
#1137=CARTESIAN_POINT('',(0.,-110.,3.5));
#1138=CARTESIAN_POINT('',(57.,-110.,3.5));
#1139=CARTESIAN_POINT('',(0.,-110.,2.4));
#1140=CARTESIAN_POINT('',(0.,-110.,3.5));
#1141=CARTESIAN_POINT('',(57.,-110.,2.4));
#1142=CARTESIAN_POINT('',(57.,-82.,2.4));
#1143=CARTESIAN_POINT('',(57.,-82.,2.4));
#1144=CARTESIAN_POINT('',(57.,-82.,3.5));
#1145=CARTESIAN_POINT('',(57.,-110.,3.5));
#1146=CARTESIAN_POINT('',(57.,-105.,3.5));
#1147=CARTESIAN_POINT('',(57.,-82.,2.4));
#1148=CARTESIAN_POINT('',(55.6,-82.,2.4));
#1149=CARTESIAN_POINT('',(0.,-82.,2.4));
#1150=CARTESIAN_POINT('',(0.,-82.,3.5));
#1151=CARTESIAN_POINT('',(57.,-82.,3.5));
#1152=CARTESIAN_POINT('',(0.,-82.,3.5));
#1153=CARTESIAN_POINT('',(0.,-82.,2.4));
#1154=CARTESIAN_POINT('',(0.,-110.,2.4));
#1155=CARTESIAN_POINT('',(0.,-82.,3.5));
#1156=CARTESIAN_POINT('',(0.,-85.3,3.5));
#1157=CARTESIAN_POINT('',(38.6,-105.,3.5));
#1158=CARTESIAN_POINT('',(38.6,-105.,4.2));
#1159=CARTESIAN_POINT('',(38.6,-87.,4.2));
#1160=CARTESIAN_POINT('',(38.6,-105.,4.2));
#1161=CARTESIAN_POINT('',(38.6,-87.,3.5));
#1162=CARTESIAN_POINT('',(38.6,-87.,4.2));
#1163=CARTESIAN_POINT('',(63.6,-105.,3.5));
#1164=CARTESIAN_POINT('',(63.6,-105.,4.2));
#1165=CARTESIAN_POINT('',(38.6,-105.,4.2));
#1166=CARTESIAN_POINT('',(63.6,-105.,4.2));
#1167=CARTESIAN_POINT('',(63.6,-105.,3.5));
#1168=CARTESIAN_POINT('',(63.6,-87.,3.5));
#1169=CARTESIAN_POINT('',(63.6,-87.,3.5));
#1170=CARTESIAN_POINT('',(63.6,-87.,4.2));
#1171=CARTESIAN_POINT('',(63.6,-105.,4.2));
#1172=CARTESIAN_POINT('',(63.6,-87.,4.2));
#1173=CARTESIAN_POINT('',(63.6,-87.,3.5));
#1174=CARTESIAN_POINT('',(57.,-87.,3.5));
#1175=CARTESIAN_POINT('',(63.6,-87.,4.2));
#1176=CARTESIAN_POINT('',(38.6,-87.,4.2));
#1177=CARTESIAN_POINT('',(56.6,-103.8,4.2));
#1178=CARTESIAN_POINT('',(56.6,-103.8,6.7));
#1179=CARTESIAN_POINT('',(39.6,-103.8,6.7));
#1180=CARTESIAN_POINT('',(56.6,-103.8,6.7));
#1181=CARTESIAN_POINT('',(39.6,-103.8,4.2));
#1182=CARTESIAN_POINT('',(39.6,-103.8,6.7));
#1183=CARTESIAN_POINT('',(56.6,-88.2,4.2));
#1184=CARTESIAN_POINT('',(56.6,-88.2,6.7));
#1185=CARTESIAN_POINT('',(56.6,-103.8,6.7));
#1186=CARTESIAN_POINT('',(56.6,-88.2,6.7));
#1187=CARTESIAN_POINT('',(39.6,-88.2,4.2));
#1188=CARTESIAN_POINT('',(39.6,-88.2,6.7));
#1189=CARTESIAN_POINT('',(56.6,-88.2,6.7));
#1190=CARTESIAN_POINT('',(39.6,-88.2,6.7));
#1191=CARTESIAN_POINT('',(39.6,-88.2,6.7));
#1192=CARTESIAN_POINT('',(39.6,-103.8,6.7));
#1193=CARTESIAN_POINT('',(39.6,-103.8,4.2));
#1194=CARTESIAN_POINT('',(56.6,-103.8,4.2));
#1195=CARTESIAN_POINT('',(56.6,-103.8,4.2));
#1196=CARTESIAN_POINT('',(56.6,-88.2,4.2));
#1197=CARTESIAN_POINT('',(56.6,-88.2,4.2));
#1198=CARTESIAN_POINT('',(39.6,-88.2,4.2));
#1199=CARTESIAN_POINT('',(39.6,-88.2,4.2));
#1200=CARTESIAN_POINT('',(39.6,-103.8,4.2));
#1201=CARTESIAN_POINT('',(38.6,-87.,3.5));
#1202=CARTESIAN_POINT('',(38.6,-105.,3.5));
#1203=CARTESIAN_POINT('',(38.6,-105.,3.5));
#1204=CARTESIAN_POINT('',(57.,-105.,3.5));
#1205=CARTESIAN_POINT('',(57.,-87.,3.5));
#1206=CARTESIAN_POINT('',(38.6,-87.,3.5));
#1207=CARTESIAN_POINT('',(57.,-87.,3.5));
#1208=CARTESIAN_POINT('',(57.,-82.,3.5));
#1209=CARTESIAN_POINT('',(57.,-105.,3.5));
#1210=CARTESIAN_POINT('',(57.,-87.,3.5));
#1211=CARTESIAN_POINT('',(57.,-105.,3.5));
#1212=CARTESIAN_POINT('',(63.6,-105.,3.5));
#1213=CARTESIAN_POINT('',(7.4,-98.,3.5));
#1214=CARTESIAN_POINT('',(7.4,-98.,6.8));
#1215=CARTESIAN_POINT('',(7.4,-106.7,6.8));
#1216=CARTESIAN_POINT('',(7.4,-98.,6.8));
#1217=CARTESIAN_POINT('',(7.4,-106.7,3.5));
#1218=CARTESIAN_POINT('',(7.4,-106.7,6.8));
#1219=CARTESIAN_POINT('',(0.,-98.,3.5));
#1220=CARTESIAN_POINT('',(-7.99360577730113E-15,-98.,6.8));
#1221=CARTESIAN_POINT('',(7.4,-98.,6.8));
#1222=CARTESIAN_POINT('',(-7.99360577730113E-15,-98.,6.8));
#1223=CARTESIAN_POINT('',(0.,-106.7,3.5));
#1224=CARTESIAN_POINT('',(-7.99360577730113E-15,-106.7,6.8));
#1225=CARTESIAN_POINT('',(-7.99360577730113E-15,-98.,6.8));
#1226=CARTESIAN_POINT('',(-7.99360577730113E-15,-106.7,6.8));
#1227=CARTESIAN_POINT('',(-7.99360577730113E-15,-106.7,6.8));
#1228=CARTESIAN_POINT('',(7.4,-106.7,6.8));
#1229=CARTESIAN_POINT('',(7.4,-106.7,3.5));
#1230=CARTESIAN_POINT('',(7.4,-98.,3.5));
#1231=CARTESIAN_POINT('',(7.4,-98.,3.5));
#1232=CARTESIAN_POINT('',(0.,-98.,3.5));
#1233=CARTESIAN_POINT('',(0.,-106.7,3.5));
#1234=CARTESIAN_POINT('',(7.4,-106.7,3.5));
#1235=CARTESIAN_POINT('',(0.,-106.7,3.5));
#1236=CARTESIAN_POINT('',(0.,-110.,3.5));
#1237=CARTESIAN_POINT('',(0.,-98.,3.5));
#1238=CARTESIAN_POINT('',(0.,-106.7,3.5));
#1239=CARTESIAN_POINT('',(7.4,-85.3,3.5));
#1240=CARTESIAN_POINT('',(7.4,-85.3,6.8));
#1241=CARTESIAN_POINT('',(7.4,-94.,6.8));
#1242=CARTESIAN_POINT('',(7.4,-85.3,6.8));
#1243=CARTESIAN_POINT('',(7.4,-94.,3.5));
#1244=CARTESIAN_POINT('',(7.4,-94.,6.8));
#1245=CARTESIAN_POINT('',(0.,-85.3,3.5));
#1246=CARTESIAN_POINT('',(-7.99360577730113E-15,-85.3,6.8));
#1247=CARTESIAN_POINT('',(7.4,-85.3,6.8));
#1248=CARTESIAN_POINT('',(-7.99360577730113E-15,-85.3,6.8));
#1249=CARTESIAN_POINT('',(0.,-94.,3.5));
#1250=CARTESIAN_POINT('',(-7.99360577730113E-15,-94.,6.8));
#1251=CARTESIAN_POINT('',(-7.99360577730113E-15,-85.3,6.8));
#1252=CARTESIAN_POINT('',(-7.99360577730113E-15,-94.,6.8));
#1253=CARTESIAN_POINT('',(-7.99360577730113E-15,-94.,6.8));
#1254=CARTESIAN_POINT('',(7.4,-94.,6.8));
#1255=CARTESIAN_POINT('',(7.4,-94.,3.5));
#1256=CARTESIAN_POINT('',(7.4,-85.3,3.5));
#1257=CARTESIAN_POINT('',(7.4,-85.3,3.5));
#1258=CARTESIAN_POINT('',(0.,-85.3,3.5));
#1259=CARTESIAN_POINT('',(0.,-94.,3.5));
#1260=CARTESIAN_POINT('',(7.4,-94.,3.5));
#1261=CARTESIAN_POINT('',(0.,-94.,3.5));
#1262=CARTESIAN_POINT('',(0.,-98.,3.5));
#1263=CARTESIAN_POINT('',(0.,-85.3,3.5));
#1264=CARTESIAN_POINT('',(0.,-94.,3.5));
#1265=CARTESIAN_POINT('',(1.39999999999999,-82.,2.4));
#1266=CARTESIAN_POINT('',(0.,-82.,2.4));
#1267=CARTESIAN_POINT('',(55.6,-110.,2.4));
#1268=CARTESIAN_POINT('',(57.,-110.,2.4));
#1269=CARTESIAN_POINT('',(0.,0.,0.));
ENDSEC;
END-ISO-10303-21;
