ISO-10303-21;
HEADER;
/* Generated by software containing ST-Developer
 * from STEP Tools, Inc. (www.steptools.com) 
 */
/* OPTION: using custom schema-name function */

FILE_DESCRIPTION(
/* description */ (''),
/* implementation_level */ '2;1');

FILE_NAME(
/* name */ 'TTL\X2\8F6C\X0\RS485\X2\6A215757\X0\',
/* time_stamp */ '2026-03-30T21:34:51+08:00',
/* author */ (''),
/* organization */ (''),
/* preprocessor_version */ 'ST-DEVELOPER v16.5',
/* originating_system */ 'Rhino 7.15',
/* authorisation */ '');

FILE_SCHEMA (('CONFIG_CONTROL_DESIGN'));
ENDSEC;

DATA;
#10=SHAPE_REPRESENTATION_RELATIONSHIP('','',#480,#12);
#11=MANIFOLD_SOLID_BREP('brep_1',#13);
#12=ADVANCED_BREP_SHAPE_REPRESENTATION('brep_rep_0',(#11,#506),#479);
#13=CLOSED_SHELL('',(#16,#17,#18,#19,#20,#21,#22,#23,#24,#25,#26,#27,#28,
#29,#30,#31,#32,#33,#34,#35,#36,#37,#38,#39));
#14=FACE_BOUND('',#81,.T.);
#15=FACE_BOUND('',#82,.T.);
#16=ADVANCED_FACE('',(#40),#374,.T.);
#17=ADVANCED_FACE('',(#41),#375,.T.);
#18=ADVANCED_FACE('',(#42),#376,.T.);
#19=ADVANCED_FACE('',(#43),#377,.T.);
#20=ADVANCED_FACE('',(#44),#378,.T.);
#21=ADVANCED_FACE('',(#45),#379,.T.);
#22=ADVANCED_FACE('',(#46),#380,.T.);
#23=ADVANCED_FACE('',(#47),#381,.T.);
#24=ADVANCED_FACE('',(#48),#382,.T.);
#25=ADVANCED_FACE('',(#49),#383,.T.);
#26=ADVANCED_FACE('',(#50),#384,.T.);
#27=ADVANCED_FACE('',(#51),#385,.T.);
#28=ADVANCED_FACE('',(#52),#386,.T.);
#29=ADVANCED_FACE('',(#53),#387,.T.);
#30=ADVANCED_FACE('',(#54),#388,.T.);
#31=ADVANCED_FACE('',(#55),#389,.T.);
#32=ADVANCED_FACE('',(#56,#14,#15),#390,.T.);
#33=ADVANCED_FACE('',(#57),#391,.T.);
#34=ADVANCED_FACE('',(#58),#392,.T.);
#35=ADVANCED_FACE('',(#59),#393,.T.);
#36=ADVANCED_FACE('',(#60),#370,.T.);
#37=ADVANCED_FACE('',(#61),#371,.T.);
#38=ADVANCED_FACE('',(#62),#372,.T.);
#39=ADVANCED_FACE('',(#63),#373,.T.);
#40=FACE_OUTER_BOUND('',#64,.T.);
#41=FACE_OUTER_BOUND('',#65,.T.);
#42=FACE_OUTER_BOUND('',#66,.T.);
#43=FACE_OUTER_BOUND('',#67,.T.);
#44=FACE_OUTER_BOUND('',#68,.T.);
#45=FACE_OUTER_BOUND('',#69,.T.);
#46=FACE_OUTER_BOUND('',#70,.T.);
#47=FACE_OUTER_BOUND('',#71,.T.);
#48=FACE_OUTER_BOUND('',#72,.T.);
#49=FACE_OUTER_BOUND('',#73,.T.);
#50=FACE_OUTER_BOUND('',#74,.T.);
#51=FACE_OUTER_BOUND('',#75,.T.);
#52=FACE_OUTER_BOUND('',#76,.T.);
#53=FACE_OUTER_BOUND('',#77,.T.);
#54=FACE_OUTER_BOUND('',#78,.T.);
#55=FACE_OUTER_BOUND('',#79,.T.);
#56=FACE_OUTER_BOUND('',#80,.T.);
#57=FACE_OUTER_BOUND('',#83,.T.);
#58=FACE_OUTER_BOUND('',#84,.T.);
#59=FACE_OUTER_BOUND('',#85,.T.);
#60=FACE_OUTER_BOUND('',#86,.T.);
#61=FACE_OUTER_BOUND('',#87,.T.);
#62=FACE_OUTER_BOUND('',#88,.T.);
#63=FACE_OUTER_BOUND('',#89,.T.);
#64=EDGE_LOOP('',(#90,#91,#92,#93));
#65=EDGE_LOOP('',(#94,#95,#96,#97,#98,#99,#100,#101));
#66=EDGE_LOOP('',(#102,#103,#104,#105));
#67=EDGE_LOOP('',(#106,#107,#108,#109));
#68=EDGE_LOOP('',(#110,#111,#112,#113));
#69=EDGE_LOOP('',(#114,#115,#116,#117));
#70=EDGE_LOOP('',(#118,#119,#120,#121));
#71=EDGE_LOOP('',(#122,#123,#124,#125));
#72=EDGE_LOOP('',(#126,#127,#128,#129));
#73=EDGE_LOOP('',(#130,#131,#132,#133));
#74=EDGE_LOOP('',(#134,#135,#136,#137));
#75=EDGE_LOOP('',(#138,#139,#140,#141));
#76=EDGE_LOOP('',(#142,#143,#144,#145));
#77=EDGE_LOOP('',(#146,#147,#148,#149));
#78=EDGE_LOOP('',(#150,#151,#152,#153));
#79=EDGE_LOOP('',(#154,#155,#156,#157,#158,#159,#160,#161));
#80=EDGE_LOOP('',(#162,#163,#164,#165,#166,#167,#168,#169));
#81=EDGE_LOOP('',(#170,#171,#172,#173));
#82=EDGE_LOOP('',(#174,#175,#176,#177,#178,#179,#180,#181));
#83=EDGE_LOOP('',(#182,#183,#184,#185));
#84=EDGE_LOOP('',(#186,#187,#188,#189));
#85=EDGE_LOOP('',(#190,#191,#192,#193));
#86=EDGE_LOOP('',(#194,#195,#196,#197));
#87=EDGE_LOOP('',(#198,#199,#200,#201));
#88=EDGE_LOOP('',(#202,#203,#204,#205));
#89=EDGE_LOOP('',(#206,#207,#208,#209));
#90=ORIENTED_EDGE('',*,*,#224,.T.);
#91=ORIENTED_EDGE('',*,*,#216,.T.);
#92=ORIENTED_EDGE('',*,*,#225,.T.);
#93=ORIENTED_EDGE('',*,*,#217,.F.);
#94=ORIENTED_EDGE('',*,*,#217,.T.);
#95=ORIENTED_EDGE('',*,*,#229,.T.);
#96=ORIENTED_EDGE('',*,*,#211,.T.);
#97=ORIENTED_EDGE('',*,*,#227,.T.);
#98=ORIENTED_EDGE('',*,*,#213,.T.);
#99=ORIENTED_EDGE('',*,*,#231,.T.);
#100=ORIENTED_EDGE('',*,*,#215,.T.);
#101=ORIENTED_EDGE('',*,*,#233,.T.);
#102=ORIENTED_EDGE('',*,*,#211,.F.);
#103=ORIENTED_EDGE('',*,*,#219,.F.);
#104=ORIENTED_EDGE('',*,*,#210,.T.);
#105=ORIENTED_EDGE('',*,*,#218,.F.);
#106=ORIENTED_EDGE('',*,*,#220,.T.);
#107=ORIENTED_EDGE('',*,*,#212,.T.);
#108=ORIENTED_EDGE('',*,*,#221,.F.);
#109=ORIENTED_EDGE('',*,*,#213,.F.);
#110=ORIENTED_EDGE('',*,*,#222,.T.);
#111=ORIENTED_EDGE('',*,*,#214,.T.);
#112=ORIENTED_EDGE('',*,*,#223,.F.);
#113=ORIENTED_EDGE('',*,*,#215,.F.);
#114=ORIENTED_EDGE('',*,*,#218,.T.);
#115=ORIENTED_EDGE('',*,*,#226,.T.);
#116=ORIENTED_EDGE('',*,*,#220,.F.);
#117=ORIENTED_EDGE('',*,*,#227,.F.);
#118=ORIENTED_EDGE('',*,*,#219,.T.);
#119=ORIENTED_EDGE('',*,*,#229,.F.);
#120=ORIENTED_EDGE('',*,*,#225,.F.);
#121=ORIENTED_EDGE('',*,*,#228,.T.);
#122=ORIENTED_EDGE('',*,*,#221,.T.);
#123=ORIENTED_EDGE('',*,*,#230,.T.);
#124=ORIENTED_EDGE('',*,*,#222,.F.);
#125=ORIENTED_EDGE('',*,*,#231,.F.);
#126=ORIENTED_EDGE('',*,*,#223,.T.);
#127=ORIENTED_EDGE('',*,*,#232,.T.);
#128=ORIENTED_EDGE('',*,*,#224,.F.);
#129=ORIENTED_EDGE('',*,*,#233,.F.);
#130=ORIENTED_EDGE('',*,*,#234,.T.);
#131=ORIENTED_EDGE('',*,*,#235,.T.);
#132=ORIENTED_EDGE('',*,*,#236,.F.);
#133=ORIENTED_EDGE('',*,*,#237,.F.);
#134=ORIENTED_EDGE('',*,*,#238,.T.);
#135=ORIENTED_EDGE('',*,*,#239,.T.);
#136=ORIENTED_EDGE('',*,*,#240,.F.);
#137=ORIENTED_EDGE('',*,*,#235,.F.);
#138=ORIENTED_EDGE('',*,*,#241,.T.);
#139=ORIENTED_EDGE('',*,*,#242,.T.);
#140=ORIENTED_EDGE('',*,*,#243,.F.);
#141=ORIENTED_EDGE('',*,*,#239,.F.);
#142=ORIENTED_EDGE('',*,*,#244,.T.);
#143=ORIENTED_EDGE('',*,*,#237,.T.);
#144=ORIENTED_EDGE('',*,*,#245,.F.);
#145=ORIENTED_EDGE('',*,*,#242,.F.);
#146=ORIENTED_EDGE('',*,*,#236,.T.);
#147=ORIENTED_EDGE('',*,*,#240,.T.);
#148=ORIENTED_EDGE('',*,*,#243,.T.);
#149=ORIENTED_EDGE('',*,*,#245,.T.);
#150=ORIENTED_EDGE('',*,*,#260,.T.);
#151=ORIENTED_EDGE('',*,*,#252,.T.);
#152=ORIENTED_EDGE('',*,*,#261,.T.);
#153=ORIENTED_EDGE('',*,*,#253,.F.);
#154=ORIENTED_EDGE('',*,*,#268,.F.);
#155=ORIENTED_EDGE('',*,*,#250,.F.);
#156=ORIENTED_EDGE('',*,*,#266,.F.);
#157=ORIENTED_EDGE('',*,*,#248,.F.);
#158=ORIENTED_EDGE('',*,*,#262,.F.);
#159=ORIENTED_EDGE('',*,*,#246,.F.);
#160=ORIENTED_EDGE('',*,*,#264,.F.);
#161=ORIENTED_EDGE('',*,*,#252,.F.);
#162=ORIENTED_EDGE('',*,*,#253,.T.);
#163=ORIENTED_EDGE('',*,*,#265,.T.);
#164=ORIENTED_EDGE('',*,*,#247,.T.);
#165=ORIENTED_EDGE('',*,*,#263,.T.);
#166=ORIENTED_EDGE('',*,*,#249,.T.);
#167=ORIENTED_EDGE('',*,*,#267,.T.);
#168=ORIENTED_EDGE('',*,*,#251,.T.);
#169=ORIENTED_EDGE('',*,*,#269,.T.);
#170=ORIENTED_EDGE('',*,*,#244,.F.);
#171=ORIENTED_EDGE('',*,*,#241,.F.);
#172=ORIENTED_EDGE('',*,*,#238,.F.);
#173=ORIENTED_EDGE('',*,*,#234,.F.);
#174=ORIENTED_EDGE('',*,*,#232,.F.);
#175=ORIENTED_EDGE('',*,*,#214,.F.);
#176=ORIENTED_EDGE('',*,*,#230,.F.);
#177=ORIENTED_EDGE('',*,*,#212,.F.);
#178=ORIENTED_EDGE('',*,*,#226,.F.);
#179=ORIENTED_EDGE('',*,*,#210,.F.);
#180=ORIENTED_EDGE('',*,*,#228,.F.);
#181=ORIENTED_EDGE('',*,*,#216,.F.);
#182=ORIENTED_EDGE('',*,*,#247,.F.);
#183=ORIENTED_EDGE('',*,*,#255,.F.);
#184=ORIENTED_EDGE('',*,*,#246,.T.);
#185=ORIENTED_EDGE('',*,*,#254,.F.);
#186=ORIENTED_EDGE('',*,*,#256,.T.);
#187=ORIENTED_EDGE('',*,*,#248,.T.);
#188=ORIENTED_EDGE('',*,*,#257,.F.);
#189=ORIENTED_EDGE('',*,*,#249,.F.);
#190=ORIENTED_EDGE('',*,*,#258,.T.);
#191=ORIENTED_EDGE('',*,*,#250,.T.);
#192=ORIENTED_EDGE('',*,*,#259,.F.);
#193=ORIENTED_EDGE('',*,*,#251,.F.);
#194=ORIENTED_EDGE('',*,*,#254,.T.);
#195=ORIENTED_EDGE('',*,*,#262,.T.);
#196=ORIENTED_EDGE('',*,*,#256,.F.);
#197=ORIENTED_EDGE('',*,*,#263,.F.);
#198=ORIENTED_EDGE('',*,*,#255,.T.);
#199=ORIENTED_EDGE('',*,*,#265,.F.);
#200=ORIENTED_EDGE('',*,*,#261,.F.);
#201=ORIENTED_EDGE('',*,*,#264,.T.);
#202=ORIENTED_EDGE('',*,*,#257,.T.);
#203=ORIENTED_EDGE('',*,*,#266,.T.);
#204=ORIENTED_EDGE('',*,*,#258,.F.);
#205=ORIENTED_EDGE('',*,*,#267,.F.);
#206=ORIENTED_EDGE('',*,*,#259,.T.);
#207=ORIENTED_EDGE('',*,*,#268,.T.);
#208=ORIENTED_EDGE('',*,*,#260,.F.);
#209=ORIENTED_EDGE('',*,*,#269,.F.);
#210=EDGE_CURVE('',#331,#330,#278,.T.);
#211=EDGE_CURVE('',#333,#332,#279,.T.);
#212=EDGE_CURVE('',#335,#334,#280,.T.);
#213=EDGE_CURVE('',#337,#336,#281,.T.);
#214=EDGE_CURVE('',#339,#338,#282,.T.);
#215=EDGE_CURVE('',#341,#340,#283,.T.);
#216=EDGE_CURVE('',#343,#342,#284,.T.);
#217=EDGE_CURVE('',#345,#344,#285,.T.);
#218=EDGE_CURVE('',#332,#330,#286,.T.);
#219=EDGE_CURVE('',#331,#333,#287,.T.);
#220=EDGE_CURVE('',#337,#335,#288,.T.);
#221=EDGE_CURVE('',#336,#334,#289,.T.);
#222=EDGE_CURVE('',#341,#339,#290,.T.);
#223=EDGE_CURVE('',#340,#338,#291,.T.);
#224=EDGE_CURVE('',#345,#343,#292,.T.);
#225=EDGE_CURVE('',#342,#344,#293,.T.);
#226=EDGE_CURVE('',#330,#335,#294,.T.);
#227=EDGE_CURVE('',#332,#337,#295,.T.);
#228=EDGE_CURVE('',#342,#331,#296,.T.);
#229=EDGE_CURVE('',#344,#333,#297,.T.);
#230=EDGE_CURVE('',#334,#339,#298,.T.);
#231=EDGE_CURVE('',#336,#341,#299,.T.);
#232=EDGE_CURVE('',#338,#343,#300,.T.);
#233=EDGE_CURVE('',#340,#345,#301,.T.);
#234=EDGE_CURVE('',#346,#347,#302,.T.);
#235=EDGE_CURVE('',#347,#348,#303,.T.);
#236=EDGE_CURVE('',#349,#348,#304,.T.);
#237=EDGE_CURVE('',#346,#349,#305,.T.);
#238=EDGE_CURVE('',#347,#350,#306,.T.);
#239=EDGE_CURVE('',#350,#351,#307,.T.);
#240=EDGE_CURVE('',#348,#351,#308,.T.);
#241=EDGE_CURVE('',#350,#352,#309,.T.);
#242=EDGE_CURVE('',#352,#353,#310,.T.);
#243=EDGE_CURVE('',#351,#353,#311,.T.);
#244=EDGE_CURVE('',#352,#346,#312,.T.);
#245=EDGE_CURVE('',#353,#349,#313,.T.);
#246=EDGE_CURVE('',#355,#354,#314,.T.);
#247=EDGE_CURVE('',#357,#356,#315,.T.);
#248=EDGE_CURVE('',#359,#358,#316,.T.);
#249=EDGE_CURVE('',#361,#360,#317,.T.);
#250=EDGE_CURVE('',#363,#362,#318,.T.);
#251=EDGE_CURVE('',#365,#364,#319,.T.);
#252=EDGE_CURVE('',#367,#366,#320,.T.);
#253=EDGE_CURVE('',#369,#368,#321,.T.);
#254=EDGE_CURVE('',#356,#354,#322,.T.);
#255=EDGE_CURVE('',#355,#357,#323,.T.);
#256=EDGE_CURVE('',#361,#359,#324,.T.);
#257=EDGE_CURVE('',#360,#358,#325,.T.);
#258=EDGE_CURVE('',#365,#363,#326,.T.);
#259=EDGE_CURVE('',#364,#362,#327,.T.);
#260=EDGE_CURVE('',#369,#367,#328,.T.);
#261=EDGE_CURVE('',#366,#368,#329,.T.);
#262=EDGE_CURVE('',#354,#359,#270,.T.);
#263=EDGE_CURVE('',#356,#361,#271,.T.);
#264=EDGE_CURVE('',#366,#355,#272,.T.);
#265=EDGE_CURVE('',#368,#357,#273,.T.);
#266=EDGE_CURVE('',#358,#363,#274,.T.);
#267=EDGE_CURVE('',#360,#365,#275,.T.);
#268=EDGE_CURVE('',#362,#367,#276,.T.);
#269=EDGE_CURVE('',#364,#369,#277,.T.);
#270=(
BOUNDED_CURVE()
B_SPLINE_CURVE(2,(#704,#705,#706),.UNSPECIFIED.,.F.,.F.)
B_SPLINE_CURVE_WITH_KNOTS((3,3),(0.,3.14159265359098),.UNSPECIFIED.)
CURVE()
GEOMETRIC_REPRESENTATION_ITEM()
RATIONAL_B_SPLINE_CURVE((1.,0.707106781186539,1.))
REPRESENTATION_ITEM('')
);
#271=(
BOUNDED_CURVE()
B_SPLINE_CURVE(2,(#707,#708,#709),.UNSPECIFIED.,.F.,.F.)
B_SPLINE_CURVE_WITH_KNOTS((3,3),(0.,3.14159265359098),.UNSPECIFIED.)
CURVE()
GEOMETRIC_REPRESENTATION_ITEM()
RATIONAL_B_SPLINE_CURVE((1.,0.707106781186537,1.))
REPRESENTATION_ITEM('')
);
#272=(
BOUNDED_CURVE()
B_SPLINE_CURVE(2,(#710,#711,#712),.UNSPECIFIED.,.F.,.F.)
B_SPLINE_CURVE_WITH_KNOTS((3,3),(-3.14159265359072,0.),.UNSPECIFIED.)
CURVE()
GEOMETRIC_REPRESENTATION_ITEM()
RATIONAL_B_SPLINE_CURVE((1.,0.707106781186568,1.))
REPRESENTATION_ITEM('')
);
#273=(
BOUNDED_CURVE()
B_SPLINE_CURVE(2,(#713,#714,#715),.UNSPECIFIED.,.F.,.F.)
B_SPLINE_CURVE_WITH_KNOTS((3,3),(-3.14159265359072,0.),.UNSPECIFIED.)
CURVE()
GEOMETRIC_REPRESENTATION_ITEM()
RATIONAL_B_SPLINE_CURVE((1.,0.707106781186568,1.))
REPRESENTATION_ITEM('')
);
#274=(
BOUNDED_CURVE()
B_SPLINE_CURVE(2,(#716,#717,#718),.UNSPECIFIED.,.F.,.F.)
B_SPLINE_CURVE_WITH_KNOTS((3,3),(0.,3.14159265359029),.UNSPECIFIED.)
CURVE()
GEOMETRIC_REPRESENTATION_ITEM()
RATIONAL_B_SPLINE_CURVE((1.,0.707106781186566,1.))
REPRESENTATION_ITEM('')
);
#275=(
BOUNDED_CURVE()
B_SPLINE_CURVE(2,(#719,#720,#721),.UNSPECIFIED.,.F.,.F.)
B_SPLINE_CURVE_WITH_KNOTS((3,3),(0.,3.14159265359029),.UNSPECIFIED.)
CURVE()
GEOMETRIC_REPRESENTATION_ITEM()
RATIONAL_B_SPLINE_CURVE((1.,0.707106781186566,1.))
REPRESENTATION_ITEM('')
);
#276=(
BOUNDED_CURVE()
B_SPLINE_CURVE(2,(#722,#723,#724),.UNSPECIFIED.,.F.,.F.)
B_SPLINE_CURVE_WITH_KNOTS((3,3),(0.,3.14159265359069),.UNSPECIFIED.)
CURVE()
GEOMETRIC_REPRESENTATION_ITEM()
RATIONAL_B_SPLINE_CURVE((1.,0.707106781186604,1.))
REPRESENTATION_ITEM('')
);
#277=(
BOUNDED_CURVE()
B_SPLINE_CURVE(2,(#725,#726,#727),.UNSPECIFIED.,.F.,.F.)
B_SPLINE_CURVE_WITH_KNOTS((3,3),(0.,3.14159265359069),.UNSPECIFIED.)
CURVE()
GEOMETRIC_REPRESENTATION_ITEM()
RATIONAL_B_SPLINE_CURVE((1.,0.707106781186604,1.))
REPRESENTATION_ITEM('')
);
#278=B_SPLINE_CURVE_WITH_KNOTS('',1,(#600,#601),.UNSPECIFIED.,.F.,.F.,(2,
2),(0.400000000000006,12.),.UNSPECIFIED.);
#279=B_SPLINE_CURVE_WITH_KNOTS('',1,(#602,#603),.UNSPECIFIED.,.F.,.F.,(2,
2),(0.399999999999991,12.),.UNSPECIFIED.);
#280=B_SPLINE_CURVE_WITH_KNOTS('',1,(#604,#605),.UNSPECIFIED.,.F.,.F.,(2,
2),(12.8,14.4),.UNSPECIFIED.);
#281=B_SPLINE_CURVE_WITH_KNOTS('',1,(#606,#607),.UNSPECIFIED.,.F.,.F.,(2,
2),(12.8,14.4),.UNSPECIFIED.);
#282=B_SPLINE_CURVE_WITH_KNOTS('',1,(#608,#609),.UNSPECIFIED.,.F.,.F.,(2,
2),(15.2,26.8),.UNSPECIFIED.);
#283=B_SPLINE_CURVE_WITH_KNOTS('',1,(#610,#611),.UNSPECIFIED.,.F.,.F.,(2,
2),(15.2,26.8),.UNSPECIFIED.);
#284=B_SPLINE_CURVE_WITH_KNOTS('',1,(#612,#613),.UNSPECIFIED.,.F.,.F.,(2,
2),(27.6,29.2),.UNSPECIFIED.);
#285=B_SPLINE_CURVE_WITH_KNOTS('',1,(#614,#615),.UNSPECIFIED.,.F.,.F.,(2,
2),(27.6,29.2),.UNSPECIFIED.);
#286=B_SPLINE_CURVE_WITH_KNOTS('',1,(#616,#617),.UNSPECIFIED.,.F.,.F.,(2,
2),(0.,2.4),.UNSPECIFIED.);
#287=B_SPLINE_CURVE_WITH_KNOTS('',1,(#618,#619),.UNSPECIFIED.,.F.,.F.,(2,
2),(0.,2.4),.UNSPECIFIED.);
#288=B_SPLINE_CURVE_WITH_KNOTS('',1,(#620,#621),.UNSPECIFIED.,.F.,.F.,(2,
2),(0.,2.4),.UNSPECIFIED.);
#289=B_SPLINE_CURVE_WITH_KNOTS('',1,(#622,#623),.UNSPECIFIED.,.F.,.F.,(2,
2),(0.,2.4),.UNSPECIFIED.);
#290=B_SPLINE_CURVE_WITH_KNOTS('',1,(#624,#625),.UNSPECIFIED.,.F.,.F.,(2,
2),(0.,2.4),.UNSPECIFIED.);
#291=B_SPLINE_CURVE_WITH_KNOTS('',1,(#626,#627),.UNSPECIFIED.,.F.,.F.,(2,
2),(0.,2.4),.UNSPECIFIED.);
#292=B_SPLINE_CURVE_WITH_KNOTS('',1,(#628,#629),.UNSPECIFIED.,.F.,.F.,(2,
2),(0.,2.4),.UNSPECIFIED.);
#293=B_SPLINE_CURVE_WITH_KNOTS('',1,(#630,#631),.UNSPECIFIED.,.F.,.F.,(2,
2),(0.,2.4),.UNSPECIFIED.);
#294=B_SPLINE_CURVE_WITH_KNOTS('',1,(#632,#633),.UNSPECIFIED.,.F.,.F.,(2,
2),(0.,0.565685424949222),.UNSPECIFIED.);
#295=B_SPLINE_CURVE_WITH_KNOTS('',1,(#634,#635),.UNSPECIFIED.,.F.,.F.,(2,
2),(0.,0.565685424949222),.UNSPECIFIED.);
#296=B_SPLINE_CURVE_WITH_KNOTS('',1,(#636,#637),.UNSPECIFIED.,.F.,.F.,(2,
2),(-0.565685424949267,0.),.UNSPECIFIED.);
#297=B_SPLINE_CURVE_WITH_KNOTS('',1,(#638,#639),.UNSPECIFIED.,.F.,.F.,(2,
2),(-0.565685424949267,0.),.UNSPECIFIED.);
#298=B_SPLINE_CURVE_WITH_KNOTS('',1,(#640,#641),.UNSPECIFIED.,.F.,.F.,(2,
2),(0.,0.565685424949355),.UNSPECIFIED.);
#299=B_SPLINE_CURVE_WITH_KNOTS('',1,(#642,#643),.UNSPECIFIED.,.F.,.F.,(2,
2),(0.,0.565685424949355),.UNSPECIFIED.);
#300=B_SPLINE_CURVE_WITH_KNOTS('',1,(#644,#645),.UNSPECIFIED.,.F.,.F.,(2,
2),(0.,0.565685424949325),.UNSPECIFIED.);
#301=B_SPLINE_CURVE_WITH_KNOTS('',1,(#646,#647),.UNSPECIFIED.,.F.,.F.,(2,
2),(0.,0.565685424949325),.UNSPECIFIED.);
#302=B_SPLINE_CURVE_WITH_KNOTS('',1,(#648,#649),.UNSPECIFIED.,.F.,.F.,(2,
2),(0.,14.7),.UNSPECIFIED.);
#303=B_SPLINE_CURVE_WITH_KNOTS('',1,(#650,#651),.UNSPECIFIED.,.F.,.F.,(2,
2),(0.,10.2),.UNSPECIFIED.);
#304=B_SPLINE_CURVE_WITH_KNOTS('',1,(#652,#653),.UNSPECIFIED.,.F.,.F.,(2,
2),(0.,14.7),.UNSPECIFIED.);
#305=B_SPLINE_CURVE_WITH_KNOTS('',1,(#654,#655),.UNSPECIFIED.,.F.,.F.,(2,
2),(0.,10.2),.UNSPECIFIED.);
#306=B_SPLINE_CURVE_WITH_KNOTS('',1,(#656,#657),.UNSPECIFIED.,.F.,.F.,(2,
2),(14.7,22.3),.UNSPECIFIED.);
#307=B_SPLINE_CURVE_WITH_KNOTS('',1,(#658,#659),.UNSPECIFIED.,.F.,.F.,(2,
2),(0.,10.2),.UNSPECIFIED.);
#308=B_SPLINE_CURVE_WITH_KNOTS('',1,(#660,#661),.UNSPECIFIED.,.F.,.F.,(2,
2),(14.7,22.3),.UNSPECIFIED.);
#309=B_SPLINE_CURVE_WITH_KNOTS('',1,(#662,#663),.UNSPECIFIED.,.F.,.F.,(2,
2),(22.3,37.),.UNSPECIFIED.);
#310=B_SPLINE_CURVE_WITH_KNOTS('',1,(#664,#665),.UNSPECIFIED.,.F.,.F.,(2,
2),(0.,10.2),.UNSPECIFIED.);
#311=B_SPLINE_CURVE_WITH_KNOTS('',1,(#666,#667),.UNSPECIFIED.,.F.,.F.,(2,
2),(22.3,37.),.UNSPECIFIED.);
#312=B_SPLINE_CURVE_WITH_KNOTS('',1,(#668,#669),.UNSPECIFIED.,.F.,.F.,(2,
2),(37.,44.6),.UNSPECIFIED.);
#313=B_SPLINE_CURVE_WITH_KNOTS('',1,(#670,#671),.UNSPECIFIED.,.F.,.F.,(2,
2),(37.,44.6),.UNSPECIFIED.);
#314=B_SPLINE_CURVE_WITH_KNOTS('',1,(#672,#673),.UNSPECIFIED.,.F.,.F.,(2,
2),(2.,31.),.UNSPECIFIED.);
#315=B_SPLINE_CURVE_WITH_KNOTS('',1,(#674,#675),.UNSPECIFIED.,.F.,.F.,(2,
2),(2.,31.),.UNSPECIFIED.);
#316=B_SPLINE_CURVE_WITH_KNOTS('',1,(#676,#677),.UNSPECIFIED.,.F.,.F.,(2,
2),(35.,49.),.UNSPECIFIED.);
#317=B_SPLINE_CURVE_WITH_KNOTS('',1,(#678,#679),.UNSPECIFIED.,.F.,.F.,(2,
2),(35.,49.),.UNSPECIFIED.);
#318=B_SPLINE_CURVE_WITH_KNOTS('',1,(#680,#681),.UNSPECIFIED.,.F.,.F.,(2,
2),(53.,82.),.UNSPECIFIED.);
#319=B_SPLINE_CURVE_WITH_KNOTS('',1,(#682,#683),.UNSPECIFIED.,.F.,.F.,(2,
2),(53.,82.),.UNSPECIFIED.);
#320=B_SPLINE_CURVE_WITH_KNOTS('',1,(#684,#685),.UNSPECIFIED.,.F.,.F.,(2,
2),(86.,100.),.UNSPECIFIED.);
#321=B_SPLINE_CURVE_WITH_KNOTS('',1,(#686,#687),.UNSPECIFIED.,.F.,.F.,(2,
2),(86.,100.),.UNSPECIFIED.);
#322=B_SPLINE_CURVE_WITH_KNOTS('',1,(#688,#689),.UNSPECIFIED.,.F.,.F.,(2,
2),(0.,1.4),.UNSPECIFIED.);
#323=B_SPLINE_CURVE_WITH_KNOTS('',1,(#690,#691),.UNSPECIFIED.,.F.,.F.,(2,
2),(0.,1.4),.UNSPECIFIED.);
#324=B_SPLINE_CURVE_WITH_KNOTS('',1,(#692,#693),.UNSPECIFIED.,.F.,.F.,(2,
2),(0.,1.4),.UNSPECIFIED.);
#325=B_SPLINE_CURVE_WITH_KNOTS('',1,(#694,#695),.UNSPECIFIED.,.F.,.F.,(2,
2),(0.,1.4),.UNSPECIFIED.);
#326=B_SPLINE_CURVE_WITH_KNOTS('',1,(#696,#697),.UNSPECIFIED.,.F.,.F.,(2,
2),(0.,1.4),.UNSPECIFIED.);
#327=B_SPLINE_CURVE_WITH_KNOTS('',1,(#698,#699),.UNSPECIFIED.,.F.,.F.,(2,
2),(0.,1.4),.UNSPECIFIED.);
#328=B_SPLINE_CURVE_WITH_KNOTS('',1,(#700,#701),.UNSPECIFIED.,.F.,.F.,(2,
2),(0.,1.4),.UNSPECIFIED.);
#329=B_SPLINE_CURVE_WITH_KNOTS('',1,(#702,#703),.UNSPECIFIED.,.F.,.F.,(2,
2),(0.,1.4),.UNSPECIFIED.);
#330=VERTEX_POINT('',#560);
#331=VERTEX_POINT('',#561);
#332=VERTEX_POINT('',#562);
#333=VERTEX_POINT('',#563);
#334=VERTEX_POINT('',#564);
#335=VERTEX_POINT('',#565);
#336=VERTEX_POINT('',#566);
#337=VERTEX_POINT('',#567);
#338=VERTEX_POINT('',#568);
#339=VERTEX_POINT('',#569);
#340=VERTEX_POINT('',#570);
#341=VERTEX_POINT('',#571);
#342=VERTEX_POINT('',#572);
#343=VERTEX_POINT('',#573);
#344=VERTEX_POINT('',#574);
#345=VERTEX_POINT('',#575);
#346=VERTEX_POINT('',#576);
#347=VERTEX_POINT('',#577);
#348=VERTEX_POINT('',#578);
#349=VERTEX_POINT('',#579);
#350=VERTEX_POINT('',#580);
#351=VERTEX_POINT('',#581);
#352=VERTEX_POINT('',#582);
#353=VERTEX_POINT('',#583);
#354=VERTEX_POINT('',#584);
#355=VERTEX_POINT('',#585);
#356=VERTEX_POINT('',#586);
#357=VERTEX_POINT('',#587);
#358=VERTEX_POINT('',#588);
#359=VERTEX_POINT('',#589);
#360=VERTEX_POINT('',#590);
#361=VERTEX_POINT('',#591);
#362=VERTEX_POINT('',#592);
#363=VERTEX_POINT('',#593);
#364=VERTEX_POINT('',#594);
#365=VERTEX_POINT('',#595);
#366=VERTEX_POINT('',#596);
#367=VERTEX_POINT('',#597);
#368=VERTEX_POINT('',#598);
#369=VERTEX_POINT('',#599);
#370=CYLINDRICAL_SURFACE('',#502,1.99999999999986);
#371=CYLINDRICAL_SURFACE('',#503,2.00000000000006);
#372=CYLINDRICAL_SURFACE('',#504,1.99999999999985);
#373=CYLINDRICAL_SURFACE('',#505,2.00000000000021);
#374=PLANE('',#482);
#375=PLANE('',#483);
#376=PLANE('',#484);
#377=PLANE('',#485);
#378=PLANE('',#486);
#379=PLANE('',#487);
#380=PLANE('',#488);
#381=PLANE('',#489);
#382=PLANE('',#490);
#383=PLANE('',#491);
#384=PLANE('',#492);
#385=PLANE('',#493);
#386=PLANE('',#494);
#387=PLANE('',#495);
#388=PLANE('',#496);
#389=PLANE('',#497);
#390=PLANE('',#498);
#391=PLANE('',#499);
#392=PLANE('',#500);
#393=PLANE('',#501);
#394=SHAPE_DEFINITION_REPRESENTATION(#395,#480);
#395=PRODUCT_DEFINITION_SHAPE('Document','',#397);
#396=PRODUCT_DEFINITION_CONTEXT('3D Mechanical Parts',#469,'design');
#397=PRODUCT_DEFINITION('A','First version',#439,#396);
#398=DATE_TIME_ROLE('classification_date');
#399=DATE_TIME_ROLE('creation_date');
#400=APPLIED_DATE_AND_TIME_ASSIGNMENT(#424,#398,(#403));
#401=APPLIED_DATE_AND_TIME_ASSIGNMENT(#426,#399,(#397));
#402=SECURITY_CLASSIFICATION_LEVEL('unclassified');
#403=SECURITY_CLASSIFICATION('A','Security for version',#402);
#404=APPLIED_SECURITY_CLASSIFICATION_ASSIGNMENT(#403,(#439));
#405=APPROVAL_ROLE('Version approval');
#406=APPROVAL_ROLE('Version Security approval');
#407=APPROVAL_ROLE('Definition approval');
#408=APPROVAL_PERSON_ORGANIZATION(#457,#433,#405);
#409=APPROVAL_PERSON_ORGANIZATION(#458,#434,#406);
#410=APPROVAL_PERSON_ORGANIZATION(#461,#435,#407);
#411=COORDINATED_UNIVERSAL_TIME_OFFSET(5,0,.BEHIND.);
#412=LOCAL_TIME(0,0,0.,#411);
#413=LOCAL_TIME(0,0,0.,#411);
#414=LOCAL_TIME(0,0,0.,#411);
#415=LOCAL_TIME(0,0,0.,#411);
#416=LOCAL_TIME(0,0,0.,#411);
#417=CALENDAR_DATE(1999,1,1);
#418=CALENDAR_DATE(1999,1,1);
#419=CALENDAR_DATE(1999,1,1);
#420=CALENDAR_DATE(1999,1,1);
#421=CALENDAR_DATE(1999,1,1);
#422=DATE_AND_TIME(#417,#412);
#423=DATE_AND_TIME(#418,#413);
#424=DATE_AND_TIME(#419,#414);
#425=DATE_AND_TIME(#420,#415);
#426=DATE_AND_TIME(#421,#416);
#427=APPROVAL_DATE_TIME(#422,#433);
#428=APPROVAL_DATE_TIME(#423,#434);
#429=APPROVAL_DATE_TIME(#425,#435);
#430=APPROVAL_STATUS('not_yet_approved');
#431=APPROVAL_STATUS('not_yet_approved');
#432=APPROVAL_STATUS('approved');
#433=APPROVAL(#430,'Version approval');
#434=APPROVAL(#431,'Version Security approval');
#435=APPROVAL(#432,'Definition approval');
#436=APPLIED_APPROVAL_ASSIGNMENT(#433,(#439));
#437=APPLIED_APPROVAL_ASSIGNMENT(#434,(#403));
#438=APPLIED_APPROVAL_ASSIGNMENT(#435,(#397));
#439=PRODUCT_DEFINITION_FORMATION_WITH_SPECIFIED_SOURCE('A',
'First version',#471,.MADE.);
#440=PERSON_AND_ORGANIZATION_ROLE('design_owner');
#441=PERSON_AND_ORGANIZATION_ROLE('creator');
#442=PERSON_AND_ORGANIZATION_ROLE('design_supplier');
#443=PERSON_AND_ORGANIZATION_ROLE('classification_officer');
#444=PERSON_AND_ORGANIZATION_ROLE('creator');
#445=ORGANIZATION('STI','lab','lab');
#446=ORGANIZATION('STI','unknown','unknown');
#447=ORGANIZATION('STI','unknown','unknown');
#448=ORGANIZATION('STI','unknown','unknown');
#449=ORGANIZATION('STI','unknown','unknown');
#450=ORGANIZATION('STI','unknown','unknown');
#451=ORGANIZATION('STI','unknown','unknown');
#452=PERSON('1','Box','vc60',$,$,$);
#453=PERSON('2','last','first',$,$,$);
#454=PERSON('3','President','Mr.',$,$,$);
#455=PERSON_AND_ORGANIZATION(#452,#445);
#456=PERSON_AND_ORGANIZATION(#453,#446);
#457=PERSON_AND_ORGANIZATION(#454,#447);
#458=PERSON_AND_ORGANIZATION(#454,#448);
#459=PERSON_AND_ORGANIZATION(#454,#449);
#460=PERSON_AND_ORGANIZATION(#453,#450);
#461=PERSON_AND_ORGANIZATION(#454,#451);
#462=APPLIED_PERSON_AND_ORGANIZATION_ASSIGNMENT(#455,#440,(#471));
#463=APPLIED_PERSON_AND_ORGANIZATION_ASSIGNMENT(#456,#441,(#439));
#464=APPLIED_PERSON_AND_ORGANIZATION_ASSIGNMENT(#456,#442,(#439));
#465=APPLIED_PERSON_AND_ORGANIZATION_ASSIGNMENT(#459,#443,(#403));
#466=APPLIED_PERSON_AND_ORGANIZATION_ASSIGNMENT(#460,#444,(#397));
#467=PRODUCT_RELATED_PRODUCT_CATEGORY('detail','detail',(#471));
#468=APPLICATION_PROTOCOL_DEFINITION('International Standard',
'config_control_design',1994,#469);
#469=APPLICATION_CONTEXT(
'configuration controlled 3d designs of mechanical parts and assemblie
s');
#470=PRODUCT_CONTEXT('3D Mechanical Parts',#469,'mechanical');
#471=PRODUCT('Document','Document','',(#470));
#472=(
LENGTH_UNIT()
NAMED_UNIT(*)
SI_UNIT(.MILLI.,.METRE.)
);
#473=(
NAMED_UNIT(*)
PLANE_ANGLE_UNIT()
SI_UNIT($,.RADIAN.)
);
#474=DIMENSIONAL_EXPONENTS(0.,0.,0.,0.,0.,0.,0.);
#475=PLANE_ANGLE_MEASURE_WITH_UNIT(PLANE_ANGLE_MEASURE(0.01745329252),#473);
#476=(
CONVERSION_BASED_UNIT('DEGREES',#475)
NAMED_UNIT(#474)
PLANE_ANGLE_UNIT()
);
#477=(
NAMED_UNIT(*)
SI_UNIT($,.STERADIAN.)
SOLID_ANGLE_UNIT()
);
#478=UNCERTAINTY_MEASURE_WITH_UNIT(LENGTH_MEASURE(0.001),#472,
'DISTANCE_ACCURACY_VALUE',
'Maximum model space distance between geometric entities at asserted c
onnectivities');
#479=(
GEOMETRIC_REPRESENTATION_CONTEXT(3)
GLOBAL_UNCERTAINTY_ASSIGNED_CONTEXT((#478))
GLOBAL_UNIT_ASSIGNED_CONTEXT((#477,#476,#472))
REPRESENTATION_CONTEXT('ID1','3D')
);
#480=SHAPE_REPRESENTATION('Document',(#481,#506),#479);
#481=AXIS2_PLACEMENT_3D('',#535,#507,#508);
#482=AXIS2_PLACEMENT_3D('',#536,#509,$);
#483=AXIS2_PLACEMENT_3D('',#537,#510,$);
#484=AXIS2_PLACEMENT_3D('',#538,#511,$);
#485=AXIS2_PLACEMENT_3D('',#539,#512,$);
#486=AXIS2_PLACEMENT_3D('',#540,#513,$);
#487=AXIS2_PLACEMENT_3D('',#541,#514,$);
#488=AXIS2_PLACEMENT_3D('',#542,#515,$);
#489=AXIS2_PLACEMENT_3D('',#543,#516,$);
#490=AXIS2_PLACEMENT_3D('',#544,#517,$);
#491=AXIS2_PLACEMENT_3D('',#545,#518,$);
#492=AXIS2_PLACEMENT_3D('',#546,#519,$);
#493=AXIS2_PLACEMENT_3D('',#547,#520,$);
#494=AXIS2_PLACEMENT_3D('',#548,#521,$);
#495=AXIS2_PLACEMENT_3D('',#549,#522,$);
#496=AXIS2_PLACEMENT_3D('',#550,#523,$);
#497=AXIS2_PLACEMENT_3D('',#551,#524,$);
#498=AXIS2_PLACEMENT_3D('',#552,#525,$);
#499=AXIS2_PLACEMENT_3D('',#553,#526,$);
#500=AXIS2_PLACEMENT_3D('',#554,#527,$);
#501=AXIS2_PLACEMENT_3D('',#555,#528,$);
#502=AXIS2_PLACEMENT_3D('',#556,#529,$);
#503=AXIS2_PLACEMENT_3D('',#557,#530,$);
#504=AXIS2_PLACEMENT_3D('',#558,#531,$);
#505=AXIS2_PLACEMENT_3D('',#559,#532,$);
#506=AXIS2_PLACEMENT_3D('',#728,#533,#534);
#507=DIRECTION('',(0.,0.,1.));
#508=DIRECTION('',(1.,0.,0.));
#509=DIRECTION('',(0.,1.,0.));
#510=DIRECTION('',(0.,0.,1.));
#511=DIRECTION('',(-1.,0.,0.));
#512=DIRECTION('',(0.,-1.,0.));
#513=DIRECTION('',(1.,0.,0.));
#514=DIRECTION('',(-0.707106781186521,-0.707106781186574,-3.7682219008412E-15));
#515=DIRECTION('',(-0.707106781186532,0.707106781186563,-2.43364331095991E-15));
#516=DIRECTION('',(0.707106781186633,-0.707106781186462,-1.17756934401267E-15));
#517=DIRECTION('',(0.707106781186627,0.707106781186468,-1.33457858988108E-15));
#518=DIRECTION('',(1.,0.,0.));
#519=DIRECTION('',(0.,1.,0.));
#520=DIRECTION('',(-1.,0.,0.));
#521=DIRECTION('',(0.,-1.,0.));
#522=DIRECTION('',(0.,0.,1.));
#523=DIRECTION('',(-1.,0.,0.));
#524=DIRECTION('',(0.,0.,-1.));
#525=DIRECTION('',(0.,0.,1.));
#526=DIRECTION('',(0.,-1.,0.));
#527=DIRECTION('',(1.,0.,0.));
#528=DIRECTION('',(0.,1.,0.));
#529=DIRECTION('',(1.38961514147328E-12,-1.38772776233141E-12,1.));
#530=DIRECTION('',(7.81101173289753E-16,5.59056568364697E-16,-1.));
#531=DIRECTION('',(-5.05641515926215E-13,-5.05641515926269E-13,1.));
#532=DIRECTION('',(5.72375792308882E-13,-5.74263171450686E-13,1.));
#533=DIRECTION('',(0.,0.,1.));
#534=DIRECTION('',(1.,0.,0.));
#535=CARTESIAN_POINT('',(0.,0.,0.));
#536=CARTESIAN_POINT('',(6.,-52.8,1.4));
#537=CARTESIAN_POINT('',(3.6,-52.8,3.8));
#538=CARTESIAN_POINT('',(3.6,-52.8,1.4));
#539=CARTESIAN_POINT('',(3.6,-65.2,1.4));
#540=CARTESIAN_POINT('',(6.,-65.2,1.4));
#541=CARTESIAN_POINT('',(3.6,-64.8000000000001,4.2));
#542=CARTESIAN_POINT('',(3.6,-53.2,0.999999999999992));
#543=CARTESIAN_POINT('',(5.6,-65.2,4.2));
#544=CARTESIAN_POINT('',(6.,-53.2,4.2));
#545=CARTESIAN_POINT('',(31.9500000000001,-66.25,1.4));
#546=CARTESIAN_POINT('',(31.9500000000001,-51.55,1.4));
#547=CARTESIAN_POINT('',(24.3500000000001,-51.55,1.4));
#548=CARTESIAN_POINT('',(24.3500000000001,-66.25,1.4));
#549=CARTESIAN_POINT('',(31.9500000000001,-66.25,11.6));
#550=CARTESIAN_POINT('',(0.,-50.,0.));
#551=CARTESIAN_POINT('',(0.,-68.,0.));
#552=CARTESIAN_POINT('',(0.,-68.,1.4));
#553=CARTESIAN_POINT('',(0.,-68.,0.));
#554=CARTESIAN_POINT('',(33.,-68.,0.));
#555=CARTESIAN_POINT('',(33.,-50.,0.));
#556=CARTESIAN_POINT('',(31.0000000000001,-66.0000000000001,0.700000000002775));
#557=CARTESIAN_POINT('',(2.00000000000006,-65.9999999999999,0.700000000000002));
#558=CARTESIAN_POINT('',(31.0000000000001,-51.9999999999998,0.699999999998974));
#559=CARTESIAN_POINT('',(2.0000000000002,-52.0000000000002,0.699999999998851));
#560=CARTESIAN_POINT('',(3.6,-64.8,1.4));
#561=CARTESIAN_POINT('',(3.6,-53.2,1.4));
#562=CARTESIAN_POINT('',(3.6,-64.8,3.8));
#563=CARTESIAN_POINT('',(3.6,-53.2,3.8));
#564=CARTESIAN_POINT('',(5.6,-65.2,1.4));
#565=CARTESIAN_POINT('',(4.,-65.2,1.4));
#566=CARTESIAN_POINT('',(5.6,-65.2,3.8));
#567=CARTESIAN_POINT('',(4.,-65.2,3.8));
#568=CARTESIAN_POINT('',(6.,-53.2,1.4));
#569=CARTESIAN_POINT('',(6.,-64.8,1.4));
#570=CARTESIAN_POINT('',(6.,-53.2,3.8));
#571=CARTESIAN_POINT('',(6.,-64.8,3.8));
#572=CARTESIAN_POINT('',(4.,-52.8,1.4));
#573=CARTESIAN_POINT('',(5.6,-52.8,1.4));
#574=CARTESIAN_POINT('',(4.,-52.8,3.8));
#575=CARTESIAN_POINT('',(5.6,-52.8,3.8));
#576=CARTESIAN_POINT('',(31.9500000000001,-66.25,1.4));
#577=CARTESIAN_POINT('',(31.9500000000001,-51.55,1.4));
#578=CARTESIAN_POINT('',(31.9500000000001,-51.55,11.6));
#579=CARTESIAN_POINT('',(31.9500000000001,-66.25,11.6));
#580=CARTESIAN_POINT('',(24.3500000000001,-51.55,1.4));
#581=CARTESIAN_POINT('',(24.3500000000001,-51.55,11.6));
#582=CARTESIAN_POINT('',(24.3500000000001,-66.25,1.4));
#583=CARTESIAN_POINT('',(24.3500000000001,-66.25,11.6));
#584=CARTESIAN_POINT('',(31.,-68.,1.4210854715202E-15));
#585=CARTESIAN_POINT('',(2.,-68.,-1.4210854715202E-15));
#586=CARTESIAN_POINT('',(31.,-68.,1.4));
#587=CARTESIAN_POINT('',(2.,-68.,1.4));
#588=CARTESIAN_POINT('',(33.,-51.9999999999999,-1.27897692436818E-14));
#589=CARTESIAN_POINT('',(33.,-66.,0.));
#590=CARTESIAN_POINT('',(33.,-51.9999999999999,1.4));
#591=CARTESIAN_POINT('',(33.,-66.,1.4));
#592=CARTESIAN_POINT('',(2.,-50.,1.4210854715202E-15));
#593=CARTESIAN_POINT('',(31.,-50.,-1.27897692436818E-14));
#594=CARTESIAN_POINT('',(1.99999999999999,-50.,1.4));
#595=CARTESIAN_POINT('',(31.,-50.,1.4));
#596=CARTESIAN_POINT('',(0.,-66.,4.2632564145606E-15));
#597=CARTESIAN_POINT('',(0.,-52.0000000000001,0.));
#598=CARTESIAN_POINT('',(0.,-65.9999999999999,1.4));
#599=CARTESIAN_POINT('',(0.,-52.0000000000001,1.4));
#600=CARTESIAN_POINT('',(3.6,-53.2,1.4));
#601=CARTESIAN_POINT('',(3.6,-64.8,1.4));
#602=CARTESIAN_POINT('',(3.6,-53.2,3.8));
#603=CARTESIAN_POINT('',(3.6,-64.8,3.8));
#604=CARTESIAN_POINT('',(4.,-65.2,1.4));
#605=CARTESIAN_POINT('',(5.6,-65.2,1.4));
#606=CARTESIAN_POINT('',(4.,-65.2,3.8));
#607=CARTESIAN_POINT('',(5.6,-65.2,3.8));
#608=CARTESIAN_POINT('',(6.,-64.8,1.4));
#609=CARTESIAN_POINT('',(6.,-53.2,1.4));
#610=CARTESIAN_POINT('',(6.,-64.8,3.8));
#611=CARTESIAN_POINT('',(6.,-53.2,3.8));
#612=CARTESIAN_POINT('',(5.6,-52.8,1.4));
#613=CARTESIAN_POINT('',(4.,-52.8,1.4));
#614=CARTESIAN_POINT('',(5.6,-52.8,3.8));
#615=CARTESIAN_POINT('',(4.,-52.8,3.8));
#616=CARTESIAN_POINT('',(3.6,-64.8,3.8));
#617=CARTESIAN_POINT('',(3.6,-64.8,1.4));
#618=CARTESIAN_POINT('',(3.6,-53.2,1.4));
#619=CARTESIAN_POINT('',(3.6,-53.2,3.8));
#620=CARTESIAN_POINT('',(4.,-65.2,3.8));
#621=CARTESIAN_POINT('',(4.,-65.2,1.4));
#622=CARTESIAN_POINT('',(5.6,-65.2,3.8));
#623=CARTESIAN_POINT('',(5.6,-65.2,1.4));
#624=CARTESIAN_POINT('',(6.,-64.8,3.8));
#625=CARTESIAN_POINT('',(6.,-64.8,1.4));
#626=CARTESIAN_POINT('',(6.,-53.2,3.8));
#627=CARTESIAN_POINT('',(6.,-53.2,1.4));
#628=CARTESIAN_POINT('',(5.6,-52.8,3.8));
#629=CARTESIAN_POINT('',(5.6,-52.8,1.4));
#630=CARTESIAN_POINT('',(4.,-52.8,1.4));
#631=CARTESIAN_POINT('',(4.,-52.8,3.8));
#632=CARTESIAN_POINT('',(3.6,-64.8,1.4));
#633=CARTESIAN_POINT('',(4.,-65.2,1.4));
#634=CARTESIAN_POINT('',(3.6,-64.8,3.8));
#635=CARTESIAN_POINT('',(4.,-65.2,3.8));
#636=CARTESIAN_POINT('',(4.,-52.8,1.4));
#637=CARTESIAN_POINT('',(3.6,-53.2,1.4));
#638=CARTESIAN_POINT('',(4.,-52.8,3.8));
#639=CARTESIAN_POINT('',(3.6,-53.2,3.8));
#640=CARTESIAN_POINT('',(5.6,-65.2,1.4));
#641=CARTESIAN_POINT('',(6.,-64.8,1.4));
#642=CARTESIAN_POINT('',(5.6,-65.2,3.8));
#643=CARTESIAN_POINT('',(6.,-64.8,3.8));
#644=CARTESIAN_POINT('',(6.,-53.2,1.4));
#645=CARTESIAN_POINT('',(5.6,-52.8,1.4));
#646=CARTESIAN_POINT('',(6.,-53.2,3.8));
#647=CARTESIAN_POINT('',(5.6,-52.8,3.8));
#648=CARTESIAN_POINT('',(31.9500000000001,-66.25,1.4));
#649=CARTESIAN_POINT('',(31.9500000000001,-51.55,1.4));
#650=CARTESIAN_POINT('',(31.9500000000001,-51.55,1.4));
#651=CARTESIAN_POINT('',(31.9500000000001,-51.55,11.6));
#652=CARTESIAN_POINT('',(31.9500000000001,-66.25,11.6));
#653=CARTESIAN_POINT('',(31.9500000000001,-51.55,11.6));
#654=CARTESIAN_POINT('',(31.9500000000001,-66.25,1.4));
#655=CARTESIAN_POINT('',(31.9500000000001,-66.25,11.6));
#656=CARTESIAN_POINT('',(31.9500000000001,-51.55,1.4));
#657=CARTESIAN_POINT('',(24.3500000000001,-51.55,1.4));
#658=CARTESIAN_POINT('',(24.3500000000001,-51.55,1.4));
#659=CARTESIAN_POINT('',(24.3500000000001,-51.55,11.6));
#660=CARTESIAN_POINT('',(31.9500000000001,-51.55,11.6));
#661=CARTESIAN_POINT('',(24.3500000000001,-51.55,11.6));
#662=CARTESIAN_POINT('',(24.3500000000001,-51.55,1.4));
#663=CARTESIAN_POINT('',(24.3500000000001,-66.25,1.4));
#664=CARTESIAN_POINT('',(24.3500000000001,-66.25,1.4));
#665=CARTESIAN_POINT('',(24.3500000000001,-66.25,11.6));
#666=CARTESIAN_POINT('',(24.3500000000001,-51.55,11.6));
#667=CARTESIAN_POINT('',(24.3500000000001,-66.25,11.6));
#668=CARTESIAN_POINT('',(24.3500000000001,-66.25,1.4));
#669=CARTESIAN_POINT('',(31.9500000000001,-66.25,1.4));
#670=CARTESIAN_POINT('',(24.3500000000001,-66.25,11.6));
#671=CARTESIAN_POINT('',(31.9500000000001,-66.25,11.6));
#672=CARTESIAN_POINT('',(2.,-68.,-1.4210854715202E-15));
#673=CARTESIAN_POINT('',(31.,-68.,1.4210854715202E-15));
#674=CARTESIAN_POINT('',(2.,-68.,1.4));
#675=CARTESIAN_POINT('',(31.,-68.,1.4));
#676=CARTESIAN_POINT('',(33.,-66.,0.));
#677=CARTESIAN_POINT('',(33.,-51.9999999999999,-1.27897692436818E-14));
#678=CARTESIAN_POINT('',(33.,-66.,1.4));
#679=CARTESIAN_POINT('',(33.,-51.9999999999999,1.4));
#680=CARTESIAN_POINT('',(31.,-50.,-1.27897692436818E-14));
#681=CARTESIAN_POINT('',(2.,-50.,1.4210854715202E-15));
#682=CARTESIAN_POINT('',(31.,-50.,1.4));
#683=CARTESIAN_POINT('',(1.99999999999999,-50.,1.4));
#684=CARTESIAN_POINT('',(0.,-52.0000000000001,0.));
#685=CARTESIAN_POINT('',(0.,-66.,4.2632564145606E-15));
#686=CARTESIAN_POINT('',(0.,-52.0000000000001,1.4));
#687=CARTESIAN_POINT('',(0.,-65.9999999999999,1.4));
#688=CARTESIAN_POINT('',(31.,-68.,1.4));
#689=CARTESIAN_POINT('',(31.,-68.,1.4210854715202E-15));
#690=CARTESIAN_POINT('',(2.,-68.,-1.4210854715202E-15));
#691=CARTESIAN_POINT('',(2.,-68.,1.4));
#692=CARTESIAN_POINT('',(33.,-66.,1.4));
#693=CARTESIAN_POINT('',(33.,-66.,0.));
#694=CARTESIAN_POINT('',(33.,-51.9999999999999,1.4));
#695=CARTESIAN_POINT('',(33.,-51.9999999999999,-1.27897692436818E-14));
#696=CARTESIAN_POINT('',(31.,-50.,1.4));
#697=CARTESIAN_POINT('',(31.,-50.,-1.27897692436818E-14));
#698=CARTESIAN_POINT('',(1.99999999999999,-50.,1.4));
#699=CARTESIAN_POINT('',(2.,-50.,1.4210854715202E-15));
#700=CARTESIAN_POINT('',(0.,-52.0000000000001,1.4));
#701=CARTESIAN_POINT('',(0.,-52.0000000000001,0.));
#702=CARTESIAN_POINT('',(0.,-66.,4.2632564145606E-15));
#703=CARTESIAN_POINT('',(0.,-65.9999999999999,1.4));
#704=CARTESIAN_POINT('',(31.,-68.,1.4210854715202E-15));
#705=CARTESIAN_POINT('',(33.,-68.,-2.77447713312269E-12));
#706=CARTESIAN_POINT('',(33.,-66.,0.));
#707=CARTESIAN_POINT('',(31.,-68.,1.4));
#708=CARTESIAN_POINT('',(33.,-68.,1.39999999999722));
#709=CARTESIAN_POINT('',(33.,-66.,1.4));
#710=CARTESIAN_POINT('',(0.,-66.,4.2632564145606E-15));
#711=CARTESIAN_POINT('',(-8.35195907942962E-15,-67.9999999999999,-6.60046018292856E-16));
#712=CARTESIAN_POINT('',(2.,-68.,-1.4210854715202E-15));
#713=CARTESIAN_POINT('',(0.,-65.9999999999999,1.4));
#714=CARTESIAN_POINT('',(-9.14110257101643E-15,-67.9999999999999,1.4));
#715=CARTESIAN_POINT('',(2.,-68.,1.4));
#716=CARTESIAN_POINT('',(33.,-51.9999999999999,-1.27897692436818E-14));
#717=CARTESIAN_POINT('',(32.9999999999999,-50.,9.96231667293535E-13));
#718=CARTESIAN_POINT('',(31.,-50.,-1.27897692436818E-14));
#719=CARTESIAN_POINT('',(33.,-51.9999999999999,1.4));
#720=CARTESIAN_POINT('',(32.9999999999999,-50.,1.40000000000101));
#721=CARTESIAN_POINT('',(31.,-50.,1.4));
#722=CARTESIAN_POINT('',(2.,-50.,1.4210854715202E-15));
#723=CARTESIAN_POINT('',(2.98578257232814E-15,-50.0000000000001,1.14698579168585E-12));
#724=CARTESIAN_POINT('',(0.,-52.0000000000001,0.));
#725=CARTESIAN_POINT('',(1.99999999999999,-50.,1.4));
#726=CARTESIAN_POINT('',(-5.5937333174796E-15,-50.0000000000001,1.40000000000115));
#727=CARTESIAN_POINT('',(0.,-52.0000000000001,1.4));
#728=CARTESIAN_POINT('',(0.,0.,0.));
ENDSEC;
END-ISO-10303-21;
