ISO-10303-21;
HEADER;
/* Generated by software containing ST-Developer
 * from STEP Tools, Inc. (www.steptools.com) 
 */
/* OPTION: using custom schema-name function */

FILE_DESCRIPTION(
/* description */ (''),
/* implementation_level */ '2;1');

FILE_NAME(
/* name */ '\X2\8235673A9A7152A8677F\X0\',
/* time_stamp */ '2026-03-30T21:33:52+08:00',
/* author */ (''),
/* organization */ (''),
/* preprocessor_version */ 'ST-DEVELOPER v16.5',
/* originating_system */ 'Rhino 7.15',
/* authorisation */ '');

FILE_SCHEMA (('CONFIG_CONTROL_DESIGN'));
ENDSEC;

DATA;
#10=SHAPE_REPRESENTATION_RELATIONSHIP('','',#689,#12);
#11=MANIFOLD_SOLID_BREP('brep_1',#13);
#12=ADVANCED_BREP_SHAPE_REPRESENTATION('brep_rep_0',(#11,#726),#688);
#13=CLOSED_SHELL('',(#24,#25,#26,#27,#28,#29,#30,#31,#32,#33,#34,#35,#36,
#37,#38,#39,#40,#41,#42,#43,#44,#45,#46,#47,#48,#49,#50,#51,#52,#53,#54,
#55,#56,#57,#58));
#14=FACE_BOUND('',#96,.T.);
#15=FACE_BOUND('',#97,.T.);
#16=FACE_BOUND('',#98,.T.);
#17=FACE_BOUND('',#99,.T.);
#18=FACE_BOUND('',#116,.T.);
#19=FACE_BOUND('',#117,.T.);
#20=FACE_BOUND('',#118,.T.);
#21=FACE_BOUND('',#119,.T.);
#22=FACE_BOUND('',#120,.T.);
#23=FACE_BOUND('',#121,.T.);
#24=ADVANCED_FACE('',(#59),#582,.T.);
#25=ADVANCED_FACE('',(#60,#14,#15,#16,#17),#583,.T.);
#26=ADVANCED_FACE('',(#61),#584,.T.);
#27=ADVANCED_FACE('',(#62),#585,.T.);
#28=ADVANCED_FACE('',(#63),#586,.T.);
#29=ADVANCED_FACE('',(#64),#568,.T.);
#30=ADVANCED_FACE('',(#65),#569,.T.);
#31=ADVANCED_FACE('',(#66),#570,.T.);
#32=ADVANCED_FACE('',(#67),#571,.T.);
#33=ADVANCED_FACE('',(#68),#572,.F.);
#34=ADVANCED_FACE('',(#69),#573,.F.);
#35=ADVANCED_FACE('',(#70),#574,.F.);
#36=ADVANCED_FACE('',(#71),#575,.F.);
#37=ADVANCED_FACE('',(#72),#587,.T.);
#38=ADVANCED_FACE('',(#73),#588,.T.);
#39=ADVANCED_FACE('',(#74),#576,.T.);
#40=ADVANCED_FACE('',(#75),#589,.T.);
#41=ADVANCED_FACE('',(#76,#18,#19,#20,#21,#22,#23),#590,.T.);
#42=ADVANCED_FACE('',(#77),#591,.T.);
#43=ADVANCED_FACE('',(#78),#592,.T.);
#44=ADVANCED_FACE('',(#79),#593,.T.);
#45=ADVANCED_FACE('',(#80),#594,.T.);
#46=ADVANCED_FACE('',(#81),#595,.T.);
#47=ADVANCED_FACE('',(#82),#596,.T.);
#48=ADVANCED_FACE('',(#83),#597,.T.);
#49=ADVANCED_FACE('',(#84),#598,.T.);
#50=ADVANCED_FACE('',(#85),#599,.T.);
#51=ADVANCED_FACE('',(#86),#600,.T.);
#52=ADVANCED_FACE('',(#87),#601,.T.);
#53=ADVANCED_FACE('',(#88),#602,.T.);
#54=ADVANCED_FACE('',(#89),#577,.F.);
#55=ADVANCED_FACE('',(#90),#578,.F.);
#56=ADVANCED_FACE('',(#91),#579,.F.);
#57=ADVANCED_FACE('',(#92),#580,.F.);
#58=ADVANCED_FACE('',(#93),#581,.T.);
#59=FACE_OUTER_BOUND('',#94,.T.);
#60=FACE_OUTER_BOUND('',#95,.T.);
#61=FACE_OUTER_BOUND('',#100,.T.);
#62=FACE_OUTER_BOUND('',#101,.T.);
#63=FACE_OUTER_BOUND('',#102,.T.);
#64=FACE_OUTER_BOUND('',#103,.T.);
#65=FACE_OUTER_BOUND('',#104,.T.);
#66=FACE_OUTER_BOUND('',#105,.T.);
#67=FACE_OUTER_BOUND('',#106,.T.);
#68=FACE_OUTER_BOUND('',#107,.T.);
#69=FACE_OUTER_BOUND('',#108,.T.);
#70=FACE_OUTER_BOUND('',#109,.T.);
#71=FACE_OUTER_BOUND('',#110,.T.);
#72=FACE_OUTER_BOUND('',#111,.T.);
#73=FACE_OUTER_BOUND('',#112,.T.);
#74=FACE_OUTER_BOUND('',#113,.T.);
#75=FACE_OUTER_BOUND('',#114,.T.);
#76=FACE_OUTER_BOUND('',#115,.T.);
#77=FACE_OUTER_BOUND('',#122,.T.);
#78=FACE_OUTER_BOUND('',#123,.T.);
#79=FACE_OUTER_BOUND('',#124,.T.);
#80=FACE_OUTER_BOUND('',#125,.T.);
#81=FACE_OUTER_BOUND('',#126,.T.);
#82=FACE_OUTER_BOUND('',#127,.T.);
#83=FACE_OUTER_BOUND('',#128,.T.);
#84=FACE_OUTER_BOUND('',#129,.T.);
#85=FACE_OUTER_BOUND('',#130,.T.);
#86=FACE_OUTER_BOUND('',#131,.T.);
#87=FACE_OUTER_BOUND('',#132,.T.);
#88=FACE_OUTER_BOUND('',#133,.T.);
#89=FACE_OUTER_BOUND('',#134,.T.);
#90=FACE_OUTER_BOUND('',#135,.T.);
#91=FACE_OUTER_BOUND('',#136,.T.);
#92=FACE_OUTER_BOUND('',#137,.T.);
#93=FACE_OUTER_BOUND('',#138,.T.);
#94=EDGE_LOOP('',(#139,#140,#141,#142));
#95=EDGE_LOOP('',(#143,#144,#145,#146,#147,#148,#149,#150));
#96=EDGE_LOOP('',(#151,#152));
#97=EDGE_LOOP('',(#153,#154));
#98=EDGE_LOOP('',(#155,#156));
#99=EDGE_LOOP('',(#157,#158));
#100=EDGE_LOOP('',(#159,#160,#161,#162));
#101=EDGE_LOOP('',(#163,#164,#165,#166));
#102=EDGE_LOOP('',(#167,#168,#169,#170,#171));
#103=EDGE_LOOP('',(#172,#173,#174,#175));
#104=EDGE_LOOP('',(#176,#177,#178,#179));
#105=EDGE_LOOP('',(#180,#181,#182,#183));
#106=EDGE_LOOP('',(#184,#185,#186,#187));
#107=EDGE_LOOP('',(#188,#189,#190,#191));
#108=EDGE_LOOP('',(#192,#193,#194,#195));
#109=EDGE_LOOP('',(#196,#197,#198,#199));
#110=EDGE_LOOP('',(#200,#201,#202,#203));
#111=EDGE_LOOP('',(#204,#205,#206,#207));
#112=EDGE_LOOP('',(#208,#209,#210,#211,#212,#213,#214,#215));
#113=EDGE_LOOP('',(#216,#217,#218,#219,#220));
#114=EDGE_LOOP('',(#221,#222));
#115=EDGE_LOOP('',(#223,#224,#225,#226,#227,#228,#229,#230,#231,#232,#233,
#234));
#116=EDGE_LOOP('',(#235,#236));
#117=EDGE_LOOP('',(#237,#238));
#118=EDGE_LOOP('',(#239,#240));
#119=EDGE_LOOP('',(#241,#242));
#120=EDGE_LOOP('',(#243,#244,#245,#246,#247,#248,#249,#250));
#121=EDGE_LOOP('',(#251,#252,#253,#254));
#122=EDGE_LOOP('',(#255,#256,#257,#258));
#123=EDGE_LOOP('',(#259,#260,#261,#262));
#124=EDGE_LOOP('',(#263,#264,#265,#266));
#125=EDGE_LOOP('',(#267,#268,#269,#270));
#126=EDGE_LOOP('',(#271,#272,#273,#274));
#127=EDGE_LOOP('',(#275,#276,#277,#278));
#128=EDGE_LOOP('',(#279,#280,#281,#282));
#129=EDGE_LOOP('',(#283,#284,#285,#286));
#130=EDGE_LOOP('',(#287,#288,#289,#290));
#131=EDGE_LOOP('',(#291,#292,#293,#294));
#132=EDGE_LOOP('',(#295,#296,#297,#298));
#133=EDGE_LOOP('',(#299,#300,#301,#302));
#134=EDGE_LOOP('',(#303,#304,#305,#306));
#135=EDGE_LOOP('',(#307,#308,#309,#310));
#136=EDGE_LOOP('',(#311,#312,#313,#314));
#137=EDGE_LOOP('',(#315,#316,#317,#318));
#138=EDGE_LOOP('',(#319,#320,#321,#322));
#139=ORIENTED_EDGE('',*,*,#337,.T.);
#140=ORIENTED_EDGE('',*,*,#329,.T.);
#141=ORIENTED_EDGE('',*,*,#338,.T.);
#142=ORIENTED_EDGE('',*,*,#330,.F.);
#143=ORIENTED_EDGE('',*,*,#345,.F.);
#144=ORIENTED_EDGE('',*,*,#327,.F.);
#145=ORIENTED_EDGE('',*,*,#343,.F.);
#146=ORIENTED_EDGE('',*,*,#325,.F.);
#147=ORIENTED_EDGE('',*,*,#339,.F.);
#148=ORIENTED_EDGE('',*,*,#323,.F.);
#149=ORIENTED_EDGE('',*,*,#341,.F.);
#150=ORIENTED_EDGE('',*,*,#329,.F.);
#151=ORIENTED_EDGE('',*,*,#401,.F.);
#152=ORIENTED_EDGE('',*,*,#347,.F.);
#153=ORIENTED_EDGE('',*,*,#404,.F.);
#154=ORIENTED_EDGE('',*,*,#350,.F.);
#155=ORIENTED_EDGE('',*,*,#407,.F.);
#156=ORIENTED_EDGE('',*,*,#353,.F.);
#157=ORIENTED_EDGE('',*,*,#410,.F.);
#158=ORIENTED_EDGE('',*,*,#356,.F.);
#159=ORIENTED_EDGE('',*,*,#324,.F.);
#160=ORIENTED_EDGE('',*,*,#332,.F.);
#161=ORIENTED_EDGE('',*,*,#323,.T.);
#162=ORIENTED_EDGE('',*,*,#331,.F.);
#163=ORIENTED_EDGE('',*,*,#333,.T.);
#164=ORIENTED_EDGE('',*,*,#325,.T.);
#165=ORIENTED_EDGE('',*,*,#334,.F.);
#166=ORIENTED_EDGE('',*,*,#326,.F.);
#167=ORIENTED_EDGE('',*,*,#335,.T.);
#168=ORIENTED_EDGE('',*,*,#327,.T.);
#169=ORIENTED_EDGE('',*,*,#336,.F.);
#170=ORIENTED_EDGE('',*,*,#362,.F.);
#171=ORIENTED_EDGE('',*,*,#328,.F.);
#172=ORIENTED_EDGE('',*,*,#331,.T.);
#173=ORIENTED_EDGE('',*,*,#339,.T.);
#174=ORIENTED_EDGE('',*,*,#333,.F.);
#175=ORIENTED_EDGE('',*,*,#340,.F.);
#176=ORIENTED_EDGE('',*,*,#332,.T.);
#177=ORIENTED_EDGE('',*,*,#342,.F.);
#178=ORIENTED_EDGE('',*,*,#338,.F.);
#179=ORIENTED_EDGE('',*,*,#341,.T.);
#180=ORIENTED_EDGE('',*,*,#334,.T.);
#181=ORIENTED_EDGE('',*,*,#343,.T.);
#182=ORIENTED_EDGE('',*,*,#335,.F.);
#183=ORIENTED_EDGE('',*,*,#344,.F.);
#184=ORIENTED_EDGE('',*,*,#336,.T.);
#185=ORIENTED_EDGE('',*,*,#345,.T.);
#186=ORIENTED_EDGE('',*,*,#337,.F.);
#187=ORIENTED_EDGE('',*,*,#346,.F.);
#188=ORIENTED_EDGE('',*,*,#401,.T.);
#189=ORIENTED_EDGE('',*,*,#349,.T.);
#190=ORIENTED_EDGE('',*,*,#402,.F.);
#191=ORIENTED_EDGE('',*,*,#400,.F.);
#192=ORIENTED_EDGE('',*,*,#404,.T.);
#193=ORIENTED_EDGE('',*,*,#352,.T.);
#194=ORIENTED_EDGE('',*,*,#405,.F.);
#195=ORIENTED_EDGE('',*,*,#403,.F.);
#196=ORIENTED_EDGE('',*,*,#407,.T.);
#197=ORIENTED_EDGE('',*,*,#355,.T.);
#198=ORIENTED_EDGE('',*,*,#408,.F.);
#199=ORIENTED_EDGE('',*,*,#406,.F.);
#200=ORIENTED_EDGE('',*,*,#410,.T.);
#201=ORIENTED_EDGE('',*,*,#358,.T.);
#202=ORIENTED_EDGE('',*,*,#411,.F.);
#203=ORIENTED_EDGE('',*,*,#409,.F.);
#204=ORIENTED_EDGE('',*,*,#378,.T.);
#205=ORIENTED_EDGE('',*,*,#371,.T.);
#206=ORIENTED_EDGE('',*,*,#379,.T.);
#207=ORIENTED_EDGE('',*,*,#367,.F.);
#208=ORIENTED_EDGE('',*,*,#367,.T.);
#209=ORIENTED_EDGE('',*,*,#382,.T.);
#210=ORIENTED_EDGE('',*,*,#364,.T.);
#211=ORIENTED_EDGE('',*,*,#380,.T.);
#212=ORIENTED_EDGE('',*,*,#365,.T.);
#213=ORIENTED_EDGE('',*,*,#384,.T.);
#214=ORIENTED_EDGE('',*,*,#366,.T.);
#215=ORIENTED_EDGE('',*,*,#386,.T.);
#216=ORIENTED_EDGE('',*,*,#412,.T.);
#217=ORIENTED_EDGE('',*,*,#361,.F.);
#218=ORIENTED_EDGE('',*,*,#360,.F.);
#219=ORIENTED_EDGE('',*,*,#359,.T.);
#220=ORIENTED_EDGE('',*,*,#363,.T.);
#221=ORIENTED_EDGE('',*,*,#361,.T.);
#222=ORIENTED_EDGE('',*,*,#413,.T.);
#223=ORIENTED_EDGE('',*,*,#414,.F.);
#224=ORIENTED_EDGE('',*,*,#363,.F.);
#225=ORIENTED_EDGE('',*,*,#362,.T.);
#226=ORIENTED_EDGE('',*,*,#346,.T.);
#227=ORIENTED_EDGE('',*,*,#330,.T.);
#228=ORIENTED_EDGE('',*,*,#342,.T.);
#229=ORIENTED_EDGE('',*,*,#324,.T.);
#230=ORIENTED_EDGE('',*,*,#340,.T.);
#231=ORIENTED_EDGE('',*,*,#326,.T.);
#232=ORIENTED_EDGE('',*,*,#344,.T.);
#233=ORIENTED_EDGE('',*,*,#328,.T.);
#234=ORIENTED_EDGE('',*,*,#359,.F.);
#235=ORIENTED_EDGE('',*,*,#348,.T.);
#236=ORIENTED_EDGE('',*,*,#402,.T.);
#237=ORIENTED_EDGE('',*,*,#351,.T.);
#238=ORIENTED_EDGE('',*,*,#405,.T.);
#239=ORIENTED_EDGE('',*,*,#354,.T.);
#240=ORIENTED_EDGE('',*,*,#408,.T.);
#241=ORIENTED_EDGE('',*,*,#357,.T.);
#242=ORIENTED_EDGE('',*,*,#411,.T.);
#243=ORIENTED_EDGE('',*,*,#370,.F.);
#244=ORIENTED_EDGE('',*,*,#385,.T.);
#245=ORIENTED_EDGE('',*,*,#369,.F.);
#246=ORIENTED_EDGE('',*,*,#381,.T.);
#247=ORIENTED_EDGE('',*,*,#368,.F.);
#248=ORIENTED_EDGE('',*,*,#383,.T.);
#249=ORIENTED_EDGE('',*,*,#371,.F.);
#250=ORIENTED_EDGE('',*,*,#387,.T.);
#251=ORIENTED_EDGE('',*,*,#399,.F.);
#252=ORIENTED_EDGE('',*,*,#398,.F.);
#253=ORIENTED_EDGE('',*,*,#397,.F.);
#254=ORIENTED_EDGE('',*,*,#396,.F.);
#255=ORIENTED_EDGE('',*,*,#364,.F.);
#256=ORIENTED_EDGE('',*,*,#373,.F.);
#257=ORIENTED_EDGE('',*,*,#368,.T.);
#258=ORIENTED_EDGE('',*,*,#372,.F.);
#259=ORIENTED_EDGE('',*,*,#374,.T.);
#260=ORIENTED_EDGE('',*,*,#369,.T.);
#261=ORIENTED_EDGE('',*,*,#375,.F.);
#262=ORIENTED_EDGE('',*,*,#365,.F.);
#263=ORIENTED_EDGE('',*,*,#376,.T.);
#264=ORIENTED_EDGE('',*,*,#370,.T.);
#265=ORIENTED_EDGE('',*,*,#377,.F.);
#266=ORIENTED_EDGE('',*,*,#366,.F.);
#267=ORIENTED_EDGE('',*,*,#372,.T.);
#268=ORIENTED_EDGE('',*,*,#381,.F.);
#269=ORIENTED_EDGE('',*,*,#374,.F.);
#270=ORIENTED_EDGE('',*,*,#380,.F.);
#271=ORIENTED_EDGE('',*,*,#373,.T.);
#272=ORIENTED_EDGE('',*,*,#382,.F.);
#273=ORIENTED_EDGE('',*,*,#379,.F.);
#274=ORIENTED_EDGE('',*,*,#383,.F.);
#275=ORIENTED_EDGE('',*,*,#375,.T.);
#276=ORIENTED_EDGE('',*,*,#385,.F.);
#277=ORIENTED_EDGE('',*,*,#376,.F.);
#278=ORIENTED_EDGE('',*,*,#384,.F.);
#279=ORIENTED_EDGE('',*,*,#377,.T.);
#280=ORIENTED_EDGE('',*,*,#387,.F.);
#281=ORIENTED_EDGE('',*,*,#378,.F.);
#282=ORIENTED_EDGE('',*,*,#386,.F.);
#283=ORIENTED_EDGE('',*,*,#396,.T.);
#284=ORIENTED_EDGE('',*,*,#388,.T.);
#285=ORIENTED_EDGE('',*,*,#389,.F.);
#286=ORIENTED_EDGE('',*,*,#390,.F.);
#287=ORIENTED_EDGE('',*,*,#397,.T.);
#288=ORIENTED_EDGE('',*,*,#391,.T.);
#289=ORIENTED_EDGE('',*,*,#392,.F.);
#290=ORIENTED_EDGE('',*,*,#388,.F.);
#291=ORIENTED_EDGE('',*,*,#398,.T.);
#292=ORIENTED_EDGE('',*,*,#393,.T.);
#293=ORIENTED_EDGE('',*,*,#394,.F.);
#294=ORIENTED_EDGE('',*,*,#391,.F.);
#295=ORIENTED_EDGE('',*,*,#399,.T.);
#296=ORIENTED_EDGE('',*,*,#390,.T.);
#297=ORIENTED_EDGE('',*,*,#395,.F.);
#298=ORIENTED_EDGE('',*,*,#393,.F.);
#299=ORIENTED_EDGE('',*,*,#389,.T.);
#300=ORIENTED_EDGE('',*,*,#392,.T.);
#301=ORIENTED_EDGE('',*,*,#394,.T.);
#302=ORIENTED_EDGE('',*,*,#395,.T.);
#303=ORIENTED_EDGE('',*,*,#400,.T.);
#304=ORIENTED_EDGE('',*,*,#348,.F.);
#305=ORIENTED_EDGE('',*,*,#349,.F.);
#306=ORIENTED_EDGE('',*,*,#347,.T.);
#307=ORIENTED_EDGE('',*,*,#403,.T.);
#308=ORIENTED_EDGE('',*,*,#351,.F.);
#309=ORIENTED_EDGE('',*,*,#352,.F.);
#310=ORIENTED_EDGE('',*,*,#350,.T.);
#311=ORIENTED_EDGE('',*,*,#406,.T.);
#312=ORIENTED_EDGE('',*,*,#354,.F.);
#313=ORIENTED_EDGE('',*,*,#355,.F.);
#314=ORIENTED_EDGE('',*,*,#353,.T.);
#315=ORIENTED_EDGE('',*,*,#409,.T.);
#316=ORIENTED_EDGE('',*,*,#357,.F.);
#317=ORIENTED_EDGE('',*,*,#358,.F.);
#318=ORIENTED_EDGE('',*,*,#356,.T.);
#319=ORIENTED_EDGE('',*,*,#414,.T.);
#320=ORIENTED_EDGE('',*,*,#360,.T.);
#321=ORIENTED_EDGE('',*,*,#413,.F.);
#322=ORIENTED_EDGE('',*,*,#412,.F.);
#323=EDGE_CURVE('',#508,#507,#454,.T.);
#324=EDGE_CURVE('',#510,#509,#455,.T.);
#325=EDGE_CURVE('',#512,#511,#456,.T.);
#326=EDGE_CURVE('',#514,#513,#457,.T.);
#327=EDGE_CURVE('',#516,#515,#458,.T.);
#328=EDGE_CURVE('',#518,#533,#459,.T.);
#329=EDGE_CURVE('',#520,#519,#460,.T.);
#330=EDGE_CURVE('',#522,#521,#461,.T.);
#331=EDGE_CURVE('',#509,#507,#462,.T.);
#332=EDGE_CURVE('',#508,#510,#463,.T.);
#333=EDGE_CURVE('',#514,#512,#464,.T.);
#334=EDGE_CURVE('',#513,#511,#465,.T.);
#335=EDGE_CURVE('',#518,#516,#466,.T.);
#336=EDGE_CURVE('',#517,#515,#467,.T.);
#337=EDGE_CURVE('',#522,#520,#468,.T.);
#338=EDGE_CURVE('',#519,#521,#469,.T.);
#339=EDGE_CURVE('',#507,#512,#415,.T.);
#340=EDGE_CURVE('',#509,#514,#416,.T.);
#341=EDGE_CURVE('',#519,#508,#417,.T.);
#342=EDGE_CURVE('',#521,#510,#418,.T.);
#343=EDGE_CURVE('',#511,#516,#419,.T.);
#344=EDGE_CURVE('',#513,#518,#420,.T.);
#345=EDGE_CURVE('',#515,#520,#421,.T.);
#346=EDGE_CURVE('',#517,#522,#422,.T.);
#347=EDGE_CURVE('',#523,#558,#423,.T.);
#348=EDGE_CURVE('',#524,#559,#424,.T.);
#349=EDGE_CURVE('',#523,#524,#425,.T.);
#350=EDGE_CURVE('',#525,#560,#426,.T.);
#351=EDGE_CURVE('',#526,#561,#427,.T.);
#352=EDGE_CURVE('',#525,#526,#428,.T.);
#353=EDGE_CURVE('',#527,#562,#429,.T.);
#354=EDGE_CURVE('',#528,#563,#430,.T.);
#355=EDGE_CURVE('',#527,#528,#431,.T.);
#356=EDGE_CURVE('',#529,#564,#432,.T.);
#357=EDGE_CURVE('',#530,#565,#433,.T.);
#358=EDGE_CURVE('',#529,#530,#434,.T.);
#359=EDGE_CURVE('',#532,#533,#435,.T.);
#360=EDGE_CURVE('',#532,#531,#436,.T.);
#361=EDGE_CURVE('',#531,#567,#437,.T.);
#362=EDGE_CURVE('',#533,#517,#470,.T.);
#363=EDGE_CURVE('',#533,#566,#438,.T.);
#364=EDGE_CURVE('',#535,#534,#471,.T.);
#365=EDGE_CURVE('',#537,#536,#472,.T.);
#366=EDGE_CURVE('',#539,#538,#473,.T.);
#367=EDGE_CURVE('',#541,#540,#474,.T.);
#368=EDGE_CURVE('',#543,#542,#475,.T.);
#369=EDGE_CURVE('',#545,#544,#476,.T.);
#370=EDGE_CURVE('',#547,#546,#477,.T.);
#371=EDGE_CURVE('',#549,#548,#478,.T.);
#372=EDGE_CURVE('',#534,#542,#479,.T.);
#373=EDGE_CURVE('',#543,#535,#480,.T.);
#374=EDGE_CURVE('',#537,#545,#481,.T.);
#375=EDGE_CURVE('',#536,#544,#482,.T.);
#376=EDGE_CURVE('',#539,#547,#483,.T.);
#377=EDGE_CURVE('',#538,#546,#484,.T.);
#378=EDGE_CURVE('',#541,#549,#485,.T.);
#379=EDGE_CURVE('',#548,#540,#486,.T.);
#380=EDGE_CURVE('',#534,#537,#487,.T.);
#381=EDGE_CURVE('',#545,#542,#488,.T.);
#382=EDGE_CURVE('',#540,#535,#489,.T.);
#383=EDGE_CURVE('',#543,#548,#490,.T.);
#384=EDGE_CURVE('',#536,#539,#491,.T.);
#385=EDGE_CURVE('',#547,#544,#492,.T.);
#386=EDGE_CURVE('',#538,#541,#493,.T.);
#387=EDGE_CURVE('',#549,#546,#494,.T.);
#388=EDGE_CURVE('',#555,#550,#495,.T.);
#389=EDGE_CURVE('',#551,#550,#496,.T.);
#390=EDGE_CURVE('',#554,#551,#497,.T.);
#391=EDGE_CURVE('',#556,#552,#498,.T.);
#392=EDGE_CURVE('',#550,#552,#499,.T.);
#393=EDGE_CURVE('',#557,#553,#500,.T.);
#394=EDGE_CURVE('',#552,#553,#501,.T.);
#395=EDGE_CURVE('',#553,#551,#502,.T.);
#396=EDGE_CURVE('',#554,#555,#503,.T.);
#397=EDGE_CURVE('',#555,#556,#504,.T.);
#398=EDGE_CURVE('',#556,#557,#505,.T.);
#399=EDGE_CURVE('',#557,#554,#506,.T.);
#400=EDGE_CURVE('',#558,#559,#439,.T.);
#401=EDGE_CURVE('',#558,#523,#440,.T.);
#402=EDGE_CURVE('',#559,#524,#441,.T.);
#403=EDGE_CURVE('',#560,#561,#442,.T.);
#404=EDGE_CURVE('',#560,#525,#443,.T.);
#405=EDGE_CURVE('',#561,#526,#444,.T.);
#406=EDGE_CURVE('',#562,#563,#445,.T.);
#407=EDGE_CURVE('',#562,#527,#446,.T.);
#408=EDGE_CURVE('',#563,#528,#447,.T.);
#409=EDGE_CURVE('',#564,#565,#448,.T.);
#410=EDGE_CURVE('',#564,#529,#449,.T.);
#411=EDGE_CURVE('',#565,#530,#450,.T.);
#412=EDGE_CURVE('',#566,#567,#451,.T.);
#413=EDGE_CURVE('',#567,#531,#452,.T.);
#414=EDGE_CURVE('',#566,#532,#453,.T.);
#415=(
BOUNDED_CURVE()
B_SPLINE_CURVE(2,(#895,#896,#897),.UNSPECIFIED.,.F.,.F.)
B_SPLINE_CURVE_WITH_KNOTS((3,3),(0.,3.92699081698779),.UNSPECIFIED.)
CURVE()
GEOMETRIC_REPRESENTATION_ITEM()
RATIONAL_B_SPLINE_CURVE((1.,0.707106781186567,1.))
REPRESENTATION_ITEM('')
);
#416=(
BOUNDED_CURVE()
B_SPLINE_CURVE(2,(#898,#899,#900),.UNSPECIFIED.,.F.,.F.)
B_SPLINE_CURVE_WITH_KNOTS((3,3),(0.,3.92699081698779),.UNSPECIFIED.)
CURVE()
GEOMETRIC_REPRESENTATION_ITEM()
RATIONAL_B_SPLINE_CURVE((1.,0.707106781186567,1.))
REPRESENTATION_ITEM('')
);
#417=(
BOUNDED_CURVE()
B_SPLINE_CURVE(2,(#901,#902,#903),.UNSPECIFIED.,.F.,.F.)
B_SPLINE_CURVE_WITH_KNOTS((3,3),(-3.92699081698728,0.),.UNSPECIFIED.)
CURVE()
GEOMETRIC_REPRESENTATION_ITEM()
RATIONAL_B_SPLINE_CURVE((1.,0.707106781186547,1.))
REPRESENTATION_ITEM('')
);
#418=(
BOUNDED_CURVE()
B_SPLINE_CURVE(2,(#904,#905,#906),.UNSPECIFIED.,.F.,.F.)
B_SPLINE_CURVE_WITH_KNOTS((3,3),(-3.92699081698728,0.),.UNSPECIFIED.)
CURVE()
GEOMETRIC_REPRESENTATION_ITEM()
RATIONAL_B_SPLINE_CURVE((1.,0.707106781186548,1.))
REPRESENTATION_ITEM('')
);
#419=(
BOUNDED_CURVE()
B_SPLINE_CURVE(2,(#907,#908,#909),.UNSPECIFIED.,.F.,.F.)
B_SPLINE_CURVE_WITH_KNOTS((3,3),(0.,3.92699081698943),.UNSPECIFIED.)
CURVE()
GEOMETRIC_REPRESENTATION_ITEM()
RATIONAL_B_SPLINE_CURVE((1.,0.707106781186545,1.))
REPRESENTATION_ITEM('')
);
#420=(
BOUNDED_CURVE()
B_SPLINE_CURVE(2,(#910,#911,#912),.UNSPECIFIED.,.F.,.F.)
B_SPLINE_CURVE_WITH_KNOTS((3,3),(0.,3.92699081698943),.UNSPECIFIED.)
CURVE()
GEOMETRIC_REPRESENTATION_ITEM()
RATIONAL_B_SPLINE_CURVE((1.,0.707106781186545,1.))
REPRESENTATION_ITEM('')
);
#421=(
BOUNDED_CURVE()
B_SPLINE_CURVE(2,(#913,#914,#915),.UNSPECIFIED.,.F.,.F.)
B_SPLINE_CURVE_WITH_KNOTS((3,3),(0.,3.92699081698793),.UNSPECIFIED.)
CURVE()
GEOMETRIC_REPRESENTATION_ITEM()
RATIONAL_B_SPLINE_CURVE((1.,0.707106781186574,1.))
REPRESENTATION_ITEM('')
);
#422=(
BOUNDED_CURVE()
B_SPLINE_CURVE(2,(#916,#917,#918),.UNSPECIFIED.,.F.,.F.)
B_SPLINE_CURVE_WITH_KNOTS((3,3),(0.,3.92699081698793),.UNSPECIFIED.)
CURVE()
GEOMETRIC_REPRESENTATION_ITEM()
RATIONAL_B_SPLINE_CURVE((1.,0.707106781186574,1.))
REPRESENTATION_ITEM('')
);
#423=(
BOUNDED_CURVE()
B_SPLINE_CURVE(2,(#919,#920,#921,#922,#923),.UNSPECIFIED.,.F.,.F.)
B_SPLINE_CURVE_WITH_KNOTS((3,2,3),(-9.42477796076938,-7.06858347057703,
-4.71238898038469),.UNSPECIFIED.)
CURVE()
GEOMETRIC_REPRESENTATION_ITEM()
RATIONAL_B_SPLINE_CURVE((1.,0.707106781186548,1.,0.707106781186547,1.))
REPRESENTATION_ITEM('')
);
#424=(
BOUNDED_CURVE()
B_SPLINE_CURVE(2,(#924,#925,#926,#927,#928),.UNSPECIFIED.,.F.,.F.)
B_SPLINE_CURVE_WITH_KNOTS((3,2,3),(-9.42477796076938,-7.06858347057703,
-4.71238898038469),.UNSPECIFIED.)
CURVE()
GEOMETRIC_REPRESENTATION_ITEM()
RATIONAL_B_SPLINE_CURVE((1.,0.707106781186548,1.,0.707106781186548,1.))
REPRESENTATION_ITEM('')
);
#425=(
BOUNDED_CURVE()
B_SPLINE_CURVE(1,(#929,#930),.UNSPECIFIED.,.F.,.F.)
B_SPLINE_CURVE_WITH_KNOTS((2,2),(5.,6.),.UNSPECIFIED.)
CURVE()
GEOMETRIC_REPRESENTATION_ITEM()
RATIONAL_B_SPLINE_CURVE((1.,1.))
REPRESENTATION_ITEM('')
);
#426=(
BOUNDED_CURVE()
B_SPLINE_CURVE(2,(#931,#932,#933,#934,#935),.UNSPECIFIED.,.F.,.F.)
B_SPLINE_CURVE_WITH_KNOTS((3,2,3),(-9.42477796076938,-7.06858347057703,
-4.71238898038469),.UNSPECIFIED.)
CURVE()
GEOMETRIC_REPRESENTATION_ITEM()
RATIONAL_B_SPLINE_CURVE((1.,0.707106781186548,1.,0.707106781186548,1.))
REPRESENTATION_ITEM('')
);
#427=(
BOUNDED_CURVE()
B_SPLINE_CURVE(2,(#936,#937,#938,#939,#940),.UNSPECIFIED.,.F.,.F.)
B_SPLINE_CURVE_WITH_KNOTS((3,2,3),(-9.42477796076938,-7.06858347057703,
-4.71238898038469),.UNSPECIFIED.)
CURVE()
GEOMETRIC_REPRESENTATION_ITEM()
RATIONAL_B_SPLINE_CURVE((1.,0.707106781186548,1.,0.707106781186548,1.))
REPRESENTATION_ITEM('')
);
#428=(
BOUNDED_CURVE()
B_SPLINE_CURVE(1,(#941,#942),.UNSPECIFIED.,.F.,.F.)
B_SPLINE_CURVE_WITH_KNOTS((2,2),(5.,6.),.UNSPECIFIED.)
CURVE()
GEOMETRIC_REPRESENTATION_ITEM()
RATIONAL_B_SPLINE_CURVE((1.,1.))
REPRESENTATION_ITEM('')
);
#429=(
BOUNDED_CURVE()
B_SPLINE_CURVE(2,(#943,#944,#945,#946,#947),.UNSPECIFIED.,.F.,.F.)
B_SPLINE_CURVE_WITH_KNOTS((3,2,3),(-9.42477796076938,-7.06858347057703,
-4.71238898038469),.UNSPECIFIED.)
CURVE()
GEOMETRIC_REPRESENTATION_ITEM()
RATIONAL_B_SPLINE_CURVE((1.,0.707106781186548,1.,0.707106781186548,1.))
REPRESENTATION_ITEM('')
);
#430=(
BOUNDED_CURVE()
B_SPLINE_CURVE(2,(#948,#949,#950,#951,#952),.UNSPECIFIED.,.F.,.F.)
B_SPLINE_CURVE_WITH_KNOTS((3,2,3),(-9.42477796076938,-7.06858347057703,
-4.71238898038469),.UNSPECIFIED.)
CURVE()
GEOMETRIC_REPRESENTATION_ITEM()
RATIONAL_B_SPLINE_CURVE((1.,0.707106781186548,1.,0.707106781186548,1.))
REPRESENTATION_ITEM('')
);
#431=(
BOUNDED_CURVE()
B_SPLINE_CURVE(1,(#953,#954),.UNSPECIFIED.,.F.,.F.)
B_SPLINE_CURVE_WITH_KNOTS((2,2),(5.,6.),.UNSPECIFIED.)
CURVE()
GEOMETRIC_REPRESENTATION_ITEM()
RATIONAL_B_SPLINE_CURVE((1.,1.))
REPRESENTATION_ITEM('')
);
#432=(
BOUNDED_CURVE()
B_SPLINE_CURVE(2,(#955,#956,#957,#958,#959),.UNSPECIFIED.,.F.,.F.)
B_SPLINE_CURVE_WITH_KNOTS((3,2,3),(-9.42477796076938,-7.06858347057703,
-4.71238898038469),.UNSPECIFIED.)
CURVE()
GEOMETRIC_REPRESENTATION_ITEM()
RATIONAL_B_SPLINE_CURVE((1.,0.707106781186548,1.,0.707106781186548,1.))
REPRESENTATION_ITEM('')
);
#433=(
BOUNDED_CURVE()
B_SPLINE_CURVE(2,(#960,#961,#962,#963,#964),.UNSPECIFIED.,.F.,.F.)
B_SPLINE_CURVE_WITH_KNOTS((3,2,3),(-9.42477796076938,-7.06858347057703,
-4.71238898038469),.UNSPECIFIED.)
CURVE()
GEOMETRIC_REPRESENTATION_ITEM()
RATIONAL_B_SPLINE_CURVE((1.,0.707106781186548,1.,0.707106781186548,1.))
REPRESENTATION_ITEM('')
);
#434=(
BOUNDED_CURVE()
B_SPLINE_CURVE(1,(#965,#966),.UNSPECIFIED.,.F.,.F.)
B_SPLINE_CURVE_WITH_KNOTS((2,2),(5.,6.),.UNSPECIFIED.)
CURVE()
GEOMETRIC_REPRESENTATION_ITEM()
RATIONAL_B_SPLINE_CURVE((1.,1.))
REPRESENTATION_ITEM('')
);
#435=(
BOUNDED_CURVE()
B_SPLINE_CURVE(2,(#967,#968,#969),.UNSPECIFIED.,.F.,.F.)
B_SPLINE_CURVE_WITH_KNOTS((3,3),(0.,6.28318530717959),.UNSPECIFIED.)
CURVE()
GEOMETRIC_REPRESENTATION_ITEM()
RATIONAL_B_SPLINE_CURVE((1.,0.707106781186548,1.))
REPRESENTATION_ITEM('')
);
#436=(
BOUNDED_CURVE()
B_SPLINE_CURVE(1,(#970,#971),.UNSPECIFIED.,.F.,.F.)
B_SPLINE_CURVE_WITH_KNOTS((2,2),(0.,13.),.UNSPECIFIED.)
CURVE()
GEOMETRIC_REPRESENTATION_ITEM()
RATIONAL_B_SPLINE_CURVE((1.,1.))
REPRESENTATION_ITEM('')
);
#437=(
BOUNDED_CURVE()
B_SPLINE_CURVE(2,(#972,#973,#974,#975,#976),.UNSPECIFIED.,.F.,.F.)
B_SPLINE_CURVE_WITH_KNOTS((3,2,3),(0.,6.28318530717959,12.5663706143592),
 .UNSPECIFIED.)
CURVE()
GEOMETRIC_REPRESENTATION_ITEM()
RATIONAL_B_SPLINE_CURVE((1.,0.707106781186548,1.,0.707106781186548,1.))
REPRESENTATION_ITEM('')
);
#438=(
BOUNDED_CURVE()
B_SPLINE_CURVE(2,(#979,#980,#981),.UNSPECIFIED.,.F.,.F.)
B_SPLINE_CURVE_WITH_KNOTS((3,3),(6.28318530717959,12.5663706143592),
 .UNSPECIFIED.)
CURVE()
GEOMETRIC_REPRESENTATION_ITEM()
RATIONAL_B_SPLINE_CURVE((1.,0.707106781186548,1.))
REPRESENTATION_ITEM('')
);
#439=(
BOUNDED_CURVE()
B_SPLINE_CURVE(1,(#1054,#1055),.UNSPECIFIED.,.F.,.F.)
B_SPLINE_CURVE_WITH_KNOTS((2,2),(5.,6.),.UNSPECIFIED.)
CURVE()
GEOMETRIC_REPRESENTATION_ITEM()
RATIONAL_B_SPLINE_CURVE((1.,1.))
REPRESENTATION_ITEM('')
);
#440=(
BOUNDED_CURVE()
B_SPLINE_CURVE(2,(#1056,#1057,#1058,#1059,#1060),.UNSPECIFIED.,.F.,.F.)
B_SPLINE_CURVE_WITH_KNOTS((3,2,3),(-4.71238898038469,-2.35619449019234,
0.),.UNSPECIFIED.)
CURVE()
GEOMETRIC_REPRESENTATION_ITEM()
RATIONAL_B_SPLINE_CURVE((1.,0.707106781186548,1.,0.707106781186548,1.))
REPRESENTATION_ITEM('')
);
#441=(
BOUNDED_CURVE()
B_SPLINE_CURVE(2,(#1061,#1062,#1063,#1064,#1065),.UNSPECIFIED.,.F.,.F.)
B_SPLINE_CURVE_WITH_KNOTS((3,2,3),(-4.71238898038469,-2.35619449019234,
0.),.UNSPECIFIED.)
CURVE()
GEOMETRIC_REPRESENTATION_ITEM()
RATIONAL_B_SPLINE_CURVE((1.,0.707106781186548,1.,0.707106781186548,1.))
REPRESENTATION_ITEM('')
);
#442=(
BOUNDED_CURVE()
B_SPLINE_CURVE(1,(#1066,#1067),.UNSPECIFIED.,.F.,.F.)
B_SPLINE_CURVE_WITH_KNOTS((2,2),(5.,6.),.UNSPECIFIED.)
CURVE()
GEOMETRIC_REPRESENTATION_ITEM()
RATIONAL_B_SPLINE_CURVE((1.,1.))
REPRESENTATION_ITEM('')
);
#443=(
BOUNDED_CURVE()
B_SPLINE_CURVE(2,(#1068,#1069,#1070,#1071,#1072),.UNSPECIFIED.,.F.,.F.)
B_SPLINE_CURVE_WITH_KNOTS((3,2,3),(-4.71238898038469,-2.35619449019234,
0.),.UNSPECIFIED.)
CURVE()
GEOMETRIC_REPRESENTATION_ITEM()
RATIONAL_B_SPLINE_CURVE((1.,0.707106781186548,1.,0.707106781186548,1.))
REPRESENTATION_ITEM('')
);
#444=(
BOUNDED_CURVE()
B_SPLINE_CURVE(2,(#1073,#1074,#1075,#1076,#1077),.UNSPECIFIED.,.F.,.F.)
B_SPLINE_CURVE_WITH_KNOTS((3,2,3),(-4.71238898038469,-2.35619449019234,
0.),.UNSPECIFIED.)
CURVE()
GEOMETRIC_REPRESENTATION_ITEM()
RATIONAL_B_SPLINE_CURVE((1.,0.707106781186548,1.,0.707106781186548,1.))
REPRESENTATION_ITEM('')
);
#445=(
BOUNDED_CURVE()
B_SPLINE_CURVE(1,(#1078,#1079),.UNSPECIFIED.,.F.,.F.)
B_SPLINE_CURVE_WITH_KNOTS((2,2),(5.,6.),.UNSPECIFIED.)
CURVE()
GEOMETRIC_REPRESENTATION_ITEM()
RATIONAL_B_SPLINE_CURVE((1.,1.))
REPRESENTATION_ITEM('')
);
#446=(
BOUNDED_CURVE()
B_SPLINE_CURVE(2,(#1080,#1081,#1082,#1083,#1084),.UNSPECIFIED.,.F.,.F.)
B_SPLINE_CURVE_WITH_KNOTS((3,2,3),(-4.71238898038469,-2.35619449019234,
0.),.UNSPECIFIED.)
CURVE()
GEOMETRIC_REPRESENTATION_ITEM()
RATIONAL_B_SPLINE_CURVE((1.,0.707106781186548,1.,0.707106781186548,1.))
REPRESENTATION_ITEM('')
);
#447=(
BOUNDED_CURVE()
B_SPLINE_CURVE(2,(#1085,#1086,#1087,#1088,#1089),.UNSPECIFIED.,.F.,.F.)
B_SPLINE_CURVE_WITH_KNOTS((3,2,3),(-4.71238898038469,-2.35619449019234,
0.),.UNSPECIFIED.)
CURVE()
GEOMETRIC_REPRESENTATION_ITEM()
RATIONAL_B_SPLINE_CURVE((1.,0.707106781186548,1.,0.707106781186548,1.))
REPRESENTATION_ITEM('')
);
#448=(
BOUNDED_CURVE()
B_SPLINE_CURVE(1,(#1090,#1091),.UNSPECIFIED.,.F.,.F.)
B_SPLINE_CURVE_WITH_KNOTS((2,2),(5.,6.),.UNSPECIFIED.)
CURVE()
GEOMETRIC_REPRESENTATION_ITEM()
RATIONAL_B_SPLINE_CURVE((1.,1.))
REPRESENTATION_ITEM('')
);
#449=(
BOUNDED_CURVE()
B_SPLINE_CURVE(2,(#1092,#1093,#1094,#1095,#1096),.UNSPECIFIED.,.F.,.F.)
B_SPLINE_CURVE_WITH_KNOTS((3,2,3),(-4.71238898038469,-2.35619449019234,
0.),.UNSPECIFIED.)
CURVE()
GEOMETRIC_REPRESENTATION_ITEM()
RATIONAL_B_SPLINE_CURVE((1.,0.707106781186548,1.,0.707106781186548,1.))
REPRESENTATION_ITEM('')
);
#450=(
BOUNDED_CURVE()
B_SPLINE_CURVE(2,(#1097,#1098,#1099,#1100,#1101),.UNSPECIFIED.,.F.,.F.)
B_SPLINE_CURVE_WITH_KNOTS((3,2,3),(-4.71238898038469,-2.35619449019234,
0.),.UNSPECIFIED.)
CURVE()
GEOMETRIC_REPRESENTATION_ITEM()
RATIONAL_B_SPLINE_CURVE((1.,0.707106781186548,1.,0.707106781186548,1.))
REPRESENTATION_ITEM('')
);
#451=(
BOUNDED_CURVE()
B_SPLINE_CURVE(1,(#1102,#1103),.UNSPECIFIED.,.F.,.F.)
B_SPLINE_CURVE_WITH_KNOTS((2,2),(0.,13.),.UNSPECIFIED.)
CURVE()
GEOMETRIC_REPRESENTATION_ITEM()
RATIONAL_B_SPLINE_CURVE((1.,1.))
REPRESENTATION_ITEM('')
);
#452=(
BOUNDED_CURVE()
B_SPLINE_CURVE(2,(#1104,#1105,#1106,#1107,#1108),.UNSPECIFIED.,.F.,.F.)
B_SPLINE_CURVE_WITH_KNOTS((3,2,3),(12.5663706143592,18.8495559215388,25.1327412287183),
 .UNSPECIFIED.)
CURVE()
GEOMETRIC_REPRESENTATION_ITEM()
RATIONAL_B_SPLINE_CURVE((1.,0.707106781186548,1.,0.707106781186548,1.))
REPRESENTATION_ITEM('')
);
#453=(
BOUNDED_CURVE()
B_SPLINE_CURVE(2,(#1109,#1110,#1111,#1112,#1113),.UNSPECIFIED.,.F.,.F.)
B_SPLINE_CURVE_WITH_KNOTS((3,2,3),(12.5663706143592,18.8495559215388,25.1327412287183),
 .UNSPECIFIED.)
CURVE()
GEOMETRIC_REPRESENTATION_ITEM()
RATIONAL_B_SPLINE_CURVE((1.,0.707106781186548,1.,0.707106781186548,1.))
REPRESENTATION_ITEM('')
);
#454=B_SPLINE_CURVE_WITH_KNOTS('',1,(#863,#864),.UNSPECIFIED.,.F.,.F.,(2,
2),(2.5,59.5),.UNSPECIFIED.);
#455=B_SPLINE_CURVE_WITH_KNOTS('',1,(#865,#866),.UNSPECIFIED.,.F.,.F.,(2,
2),(2.5,59.5),.UNSPECIFIED.);
#456=B_SPLINE_CURVE_WITH_KNOTS('',1,(#867,#868),.UNSPECIFIED.,.F.,.F.,(2,
2),(64.5,84.5),.UNSPECIFIED.);
#457=B_SPLINE_CURVE_WITH_KNOTS('',1,(#869,#870),.UNSPECIFIED.,.F.,.F.,(2,
2),(64.5,84.5),.UNSPECIFIED.);
#458=B_SPLINE_CURVE_WITH_KNOTS('',1,(#871,#872),.UNSPECIFIED.,.F.,.F.,(2,
2),(89.5,146.5),.UNSPECIFIED.);
#459=B_SPLINE_CURVE_WITH_KNOTS('',1,(#873,#874),.UNSPECIFIED.,.F.,.F.,(2,
2),(89.5,137.),.UNSPECIFIED.);
#460=B_SPLINE_CURVE_WITH_KNOTS('',1,(#875,#876),.UNSPECIFIED.,.F.,.F.,(2,
2),(151.5,171.5),.UNSPECIFIED.);
#461=B_SPLINE_CURVE_WITH_KNOTS('',1,(#877,#878),.UNSPECIFIED.,.F.,.F.,(2,
2),(151.5,171.5),.UNSPECIFIED.);
#462=B_SPLINE_CURVE_WITH_KNOTS('',1,(#879,#880),.UNSPECIFIED.,.F.,.F.,(2,
2),(0.,1.),.UNSPECIFIED.);
#463=B_SPLINE_CURVE_WITH_KNOTS('',1,(#881,#882),.UNSPECIFIED.,.F.,.F.,(2,
2),(0.,1.),.UNSPECIFIED.);
#464=B_SPLINE_CURVE_WITH_KNOTS('',1,(#883,#884),.UNSPECIFIED.,.F.,.F.,(2,
2),(0.,1.),.UNSPECIFIED.);
#465=B_SPLINE_CURVE_WITH_KNOTS('',1,(#885,#886),.UNSPECIFIED.,.F.,.F.,(2,
2),(0.,1.),.UNSPECIFIED.);
#466=B_SPLINE_CURVE_WITH_KNOTS('',1,(#887,#888),.UNSPECIFIED.,.F.,.F.,(2,
2),(0.,1.),.UNSPECIFIED.);
#467=B_SPLINE_CURVE_WITH_KNOTS('',1,(#889,#890),.UNSPECIFIED.,.F.,.F.,(2,
2),(0.,1.),.UNSPECIFIED.);
#468=B_SPLINE_CURVE_WITH_KNOTS('',1,(#891,#892),.UNSPECIFIED.,.F.,.F.,(2,
2),(0.,1.),.UNSPECIFIED.);
#469=B_SPLINE_CURVE_WITH_KNOTS('',1,(#893,#894),.UNSPECIFIED.,.F.,.F.,(2,
2),(0.,1.),.UNSPECIFIED.);
#470=B_SPLINE_CURVE_WITH_KNOTS('',1,(#977,#978),.UNSPECIFIED.,.F.,.F.,(2,
2),(137.,146.5),.UNSPECIFIED.);
#471=B_SPLINE_CURVE_WITH_KNOTS('',1,(#982,#983),.UNSPECIFIED.,.F.,.F.,(2,
2),(0.400000000000001,14.6),.UNSPECIFIED.);
#472=B_SPLINE_CURVE_WITH_KNOTS('',1,(#984,#985),.UNSPECIFIED.,.F.,.F.,(2,
2),(15.4,17.),.UNSPECIFIED.);
#473=B_SPLINE_CURVE_WITH_KNOTS('',1,(#986,#987),.UNSPECIFIED.,.F.,.F.,(2,
2),(17.8,32.),.UNSPECIFIED.);
#474=B_SPLINE_CURVE_WITH_KNOTS('',1,(#988,#989),.UNSPECIFIED.,.F.,.F.,(2,
2),(32.8,34.4),.UNSPECIFIED.);
#475=B_SPLINE_CURVE_WITH_KNOTS('',1,(#990,#991),.UNSPECIFIED.,.F.,.F.,(2,
2),(0.399999999999999,14.6),.UNSPECIFIED.);
#476=B_SPLINE_CURVE_WITH_KNOTS('',1,(#992,#993),.UNSPECIFIED.,.F.,.F.,(2,
2),(15.4,17.),.UNSPECIFIED.);
#477=B_SPLINE_CURVE_WITH_KNOTS('',1,(#994,#995),.UNSPECIFIED.,.F.,.F.,(2,
2),(17.8,32.),.UNSPECIFIED.);
#478=B_SPLINE_CURVE_WITH_KNOTS('',1,(#996,#997),.UNSPECIFIED.,.F.,.F.,(2,
2),(32.8,34.4),.UNSPECIFIED.);
#479=B_SPLINE_CURVE_WITH_KNOTS('',1,(#998,#999),.UNSPECIFIED.,.F.,.F.,(2,
2),(0.,2.4),.UNSPECIFIED.);
#480=B_SPLINE_CURVE_WITH_KNOTS('',1,(#1000,#1001),.UNSPECIFIED.,.F.,.F.,
(2,2),(0.,2.4),.UNSPECIFIED.);
#481=B_SPLINE_CURVE_WITH_KNOTS('',1,(#1002,#1003),.UNSPECIFIED.,.F.,.F.,
(2,2),(0.,2.4),.UNSPECIFIED.);
#482=B_SPLINE_CURVE_WITH_KNOTS('',1,(#1004,#1005),.UNSPECIFIED.,.F.,.F.,
(2,2),(0.,2.4),.UNSPECIFIED.);
#483=B_SPLINE_CURVE_WITH_KNOTS('',1,(#1006,#1007),.UNSPECIFIED.,.F.,.F.,
(2,2),(0.,2.4),.UNSPECIFIED.);
#484=B_SPLINE_CURVE_WITH_KNOTS('',1,(#1008,#1009),.UNSPECIFIED.,.F.,.F.,
(2,2),(0.,2.4),.UNSPECIFIED.);
#485=B_SPLINE_CURVE_WITH_KNOTS('',1,(#1010,#1011),.UNSPECIFIED.,.F.,.F.,
(2,2),(0.,2.4),.UNSPECIFIED.);
#486=B_SPLINE_CURVE_WITH_KNOTS('',1,(#1012,#1013),.UNSPECIFIED.,.F.,.F.,
(2,2),(0.,2.4),.UNSPECIFIED.);
#487=B_SPLINE_CURVE_WITH_KNOTS('',1,(#1014,#1015),.UNSPECIFIED.,.F.,.F.,
(2,2),(0.,0.565685424949239),.UNSPECIFIED.);
#488=B_SPLINE_CURVE_WITH_KNOTS('',1,(#1016,#1017),.UNSPECIFIED.,.F.,.F.,
(2,2),(-0.565685424949239,0.),.UNSPECIFIED.);
#489=B_SPLINE_CURVE_WITH_KNOTS('',1,(#1018,#1019),.UNSPECIFIED.,.F.,.F.,
(2,2),(-0.565685424949241,0.),.UNSPECIFIED.);
#490=B_SPLINE_CURVE_WITH_KNOTS('',1,(#1020,#1021),.UNSPECIFIED.,.F.,.F.,
(2,2),(0.,0.565685424949241),.UNSPECIFIED.);
#491=B_SPLINE_CURVE_WITH_KNOTS('',1,(#1022,#1023),.UNSPECIFIED.,.F.,.F.,
(2,2),(0.,0.565685424949246),.UNSPECIFIED.);
#492=B_SPLINE_CURVE_WITH_KNOTS('',1,(#1024,#1025),.UNSPECIFIED.,.F.,.F.,
(2,2),(-0.565685424949246,0.),.UNSPECIFIED.);
#493=B_SPLINE_CURVE_WITH_KNOTS('',1,(#1026,#1027),.UNSPECIFIED.,.F.,.F.,
(2,2),(0.,0.565685424949241),.UNSPECIFIED.);
#494=B_SPLINE_CURVE_WITH_KNOTS('',1,(#1028,#1029),.UNSPECIFIED.,.F.,.F.,
(2,2),(-0.565685424949241,0.),.UNSPECIFIED.);
#495=B_SPLINE_CURVE_WITH_KNOTS('',1,(#1030,#1031),.UNSPECIFIED.,.F.,.F.,
(2,2),(0.,8.8),.UNSPECIFIED.);
#496=B_SPLINE_CURVE_WITH_KNOTS('',1,(#1032,#1033),.UNSPECIFIED.,.F.,.F.,
(2,2),(0.,7.2),.UNSPECIFIED.);
#497=B_SPLINE_CURVE_WITH_KNOTS('',1,(#1034,#1035),.UNSPECIFIED.,.F.,.F.,
(2,2),(0.,8.8),.UNSPECIFIED.);
#498=B_SPLINE_CURVE_WITH_KNOTS('',1,(#1036,#1037),.UNSPECIFIED.,.F.,.F.,
(2,2),(0.,8.8),.UNSPECIFIED.);
#499=B_SPLINE_CURVE_WITH_KNOTS('',1,(#1038,#1039),.UNSPECIFIED.,.F.,.F.,
(2,2),(7.2,13.8),.UNSPECIFIED.);
#500=B_SPLINE_CURVE_WITH_KNOTS('',1,(#1040,#1041),.UNSPECIFIED.,.F.,.F.,
(2,2),(0.,8.8),.UNSPECIFIED.);
#501=B_SPLINE_CURVE_WITH_KNOTS('',1,(#1042,#1043),.UNSPECIFIED.,.F.,.F.,
(2,2),(13.8,21.),.UNSPECIFIED.);
#502=B_SPLINE_CURVE_WITH_KNOTS('',1,(#1044,#1045),.UNSPECIFIED.,.F.,.F.,
(2,2),(21.,27.6),.UNSPECIFIED.);
#503=B_SPLINE_CURVE_WITH_KNOTS('',1,(#1046,#1047),.UNSPECIFIED.,.F.,.F.,
(2,2),(0.,7.2),.UNSPECIFIED.);
#504=B_SPLINE_CURVE_WITH_KNOTS('',1,(#1048,#1049),.UNSPECIFIED.,.F.,.F.,
(2,2),(7.2,13.8),.UNSPECIFIED.);
#505=B_SPLINE_CURVE_WITH_KNOTS('',1,(#1050,#1051),.UNSPECIFIED.,.F.,.F.,
(2,2),(13.8,21.),.UNSPECIFIED.);
#506=B_SPLINE_CURVE_WITH_KNOTS('',1,(#1052,#1053),.UNSPECIFIED.,.F.,.F.,
(2,2),(21.,27.6),.UNSPECIFIED.);
#507=VERTEX_POINT('',#802);
#508=VERTEX_POINT('',#803);
#509=VERTEX_POINT('',#804);
#510=VERTEX_POINT('',#805);
#511=VERTEX_POINT('',#806);
#512=VERTEX_POINT('',#807);
#513=VERTEX_POINT('',#808);
#514=VERTEX_POINT('',#809);
#515=VERTEX_POINT('',#810);
#516=VERTEX_POINT('',#811);
#517=VERTEX_POINT('',#812);
#518=VERTEX_POINT('',#813);
#519=VERTEX_POINT('',#814);
#520=VERTEX_POINT('',#815);
#521=VERTEX_POINT('',#816);
#522=VERTEX_POINT('',#817);
#523=VERTEX_POINT('',#818);
#524=VERTEX_POINT('',#819);
#525=VERTEX_POINT('',#820);
#526=VERTEX_POINT('',#821);
#527=VERTEX_POINT('',#822);
#528=VERTEX_POINT('',#823);
#529=VERTEX_POINT('',#824);
#530=VERTEX_POINT('',#825);
#531=VERTEX_POINT('',#826);
#532=VERTEX_POINT('',#827);
#533=VERTEX_POINT('',#828);
#534=VERTEX_POINT('',#829);
#535=VERTEX_POINT('',#830);
#536=VERTEX_POINT('',#831);
#537=VERTEX_POINT('',#832);
#538=VERTEX_POINT('',#833);
#539=VERTEX_POINT('',#834);
#540=VERTEX_POINT('',#835);
#541=VERTEX_POINT('',#836);
#542=VERTEX_POINT('',#837);
#543=VERTEX_POINT('',#838);
#544=VERTEX_POINT('',#839);
#545=VERTEX_POINT('',#840);
#546=VERTEX_POINT('',#841);
#547=VERTEX_POINT('',#842);
#548=VERTEX_POINT('',#843);
#549=VERTEX_POINT('',#844);
#550=VERTEX_POINT('',#845);
#551=VERTEX_POINT('',#846);
#552=VERTEX_POINT('',#847);
#553=VERTEX_POINT('',#848);
#554=VERTEX_POINT('',#849);
#555=VERTEX_POINT('',#850);
#556=VERTEX_POINT('',#851);
#557=VERTEX_POINT('',#852);
#558=VERTEX_POINT('',#853);
#559=VERTEX_POINT('',#854);
#560=VERTEX_POINT('',#855);
#561=VERTEX_POINT('',#856);
#562=VERTEX_POINT('',#857);
#563=VERTEX_POINT('',#858);
#564=VERTEX_POINT('',#859);
#565=VERTEX_POINT('',#860);
#566=VERTEX_POINT('',#861);
#567=VERTEX_POINT('',#862);
#568=CYLINDRICAL_SURFACE('',#696,2.49999999999986);
#569=CYLINDRICAL_SURFACE('',#697,2.5);
#570=CYLINDRICAL_SURFACE('',#698,2.50000000000002);
#571=CYLINDRICAL_SURFACE('',#699,2.5000000000001);
#572=CYLINDRICAL_SURFACE('',#700,1.5);
#573=CYLINDRICAL_SURFACE('',#701,1.5);
#574=CYLINDRICAL_SURFACE('',#702,1.5);
#575=CYLINDRICAL_SURFACE('',#703,1.5);
#576=CYLINDRICAL_SURFACE('',#706,4.);
#577=CYLINDRICAL_SURFACE('',#721,1.5);
#578=CYLINDRICAL_SURFACE('',#722,1.5);
#579=CYLINDRICAL_SURFACE('',#723,1.5);
#580=CYLINDRICAL_SURFACE('',#724,1.5);
#581=CYLINDRICAL_SURFACE('',#725,4.);
#582=PLANE('',#691);
#583=PLANE('',#692);
#584=PLANE('',#693);
#585=PLANE('',#694);
#586=PLANE('',#695);
#587=PLANE('',#704);
#588=PLANE('',#705);
#589=PLANE('',#707);
#590=PLANE('',#708);
#591=PLANE('',#709);
#592=PLANE('',#710);
#593=PLANE('',#711);
#594=PLANE('',#712);
#595=PLANE('',#713);
#596=PLANE('',#714);
#597=PLANE('',#715);
#598=PLANE('',#716);
#599=PLANE('',#717);
#600=PLANE('',#718);
#601=PLANE('',#719);
#602=PLANE('',#720);
#603=SHAPE_DEFINITION_REPRESENTATION(#604,#689);
#604=PRODUCT_DEFINITION_SHAPE('Document','',#606);
#605=PRODUCT_DEFINITION_CONTEXT('3D Mechanical Parts',#678,'design');
#606=PRODUCT_DEFINITION('A','First version',#648,#605);
#607=DATE_TIME_ROLE('classification_date');
#608=DATE_TIME_ROLE('creation_date');
#609=APPLIED_DATE_AND_TIME_ASSIGNMENT(#633,#607,(#612));
#610=APPLIED_DATE_AND_TIME_ASSIGNMENT(#635,#608,(#606));
#611=SECURITY_CLASSIFICATION_LEVEL('unclassified');
#612=SECURITY_CLASSIFICATION('A','Security for version',#611);
#613=APPLIED_SECURITY_CLASSIFICATION_ASSIGNMENT(#612,(#648));
#614=APPROVAL_ROLE('Version approval');
#615=APPROVAL_ROLE('Version Security approval');
#616=APPROVAL_ROLE('Definition approval');
#617=APPROVAL_PERSON_ORGANIZATION(#666,#642,#614);
#618=APPROVAL_PERSON_ORGANIZATION(#667,#643,#615);
#619=APPROVAL_PERSON_ORGANIZATION(#670,#644,#616);
#620=COORDINATED_UNIVERSAL_TIME_OFFSET(5,0,.BEHIND.);
#621=LOCAL_TIME(0,0,0.,#620);
#622=LOCAL_TIME(0,0,0.,#620);
#623=LOCAL_TIME(0,0,0.,#620);
#624=LOCAL_TIME(0,0,0.,#620);
#625=LOCAL_TIME(0,0,0.,#620);
#626=CALENDAR_DATE(1999,1,1);
#627=CALENDAR_DATE(1999,1,1);
#628=CALENDAR_DATE(1999,1,1);
#629=CALENDAR_DATE(1999,1,1);
#630=CALENDAR_DATE(1999,1,1);
#631=DATE_AND_TIME(#626,#621);
#632=DATE_AND_TIME(#627,#622);
#633=DATE_AND_TIME(#628,#623);
#634=DATE_AND_TIME(#629,#624);
#635=DATE_AND_TIME(#630,#625);
#636=APPROVAL_DATE_TIME(#631,#642);
#637=APPROVAL_DATE_TIME(#632,#643);
#638=APPROVAL_DATE_TIME(#634,#644);
#639=APPROVAL_STATUS('not_yet_approved');
#640=APPROVAL_STATUS('not_yet_approved');
#641=APPROVAL_STATUS('approved');
#642=APPROVAL(#639,'Version approval');
#643=APPROVAL(#640,'Version Security approval');
#644=APPROVAL(#641,'Definition approval');
#645=APPLIED_APPROVAL_ASSIGNMENT(#642,(#648));
#646=APPLIED_APPROVAL_ASSIGNMENT(#643,(#612));
#647=APPLIED_APPROVAL_ASSIGNMENT(#644,(#606));
#648=PRODUCT_DEFINITION_FORMATION_WITH_SPECIFIED_SOURCE('A',
'First version',#680,.MADE.);
#649=PERSON_AND_ORGANIZATION_ROLE('design_owner');
#650=PERSON_AND_ORGANIZATION_ROLE('creator');
#651=PERSON_AND_ORGANIZATION_ROLE('design_supplier');
#652=PERSON_AND_ORGANIZATION_ROLE('classification_officer');
#653=PERSON_AND_ORGANIZATION_ROLE('creator');
#654=ORGANIZATION('STI','lab','lab');
#655=ORGANIZATION('STI','unknown','unknown');
#656=ORGANIZATION('STI','unknown','unknown');
#657=ORGANIZATION('STI','unknown','unknown');
#658=ORGANIZATION('STI','unknown','unknown');
#659=ORGANIZATION('STI','unknown','unknown');
#660=ORGANIZATION('STI','unknown','unknown');
#661=PERSON('1','Box','vc60',$,$,$);
#662=PERSON('2','last','first',$,$,$);
#663=PERSON('3','President','Mr.',$,$,$);
#664=PERSON_AND_ORGANIZATION(#661,#654);
#665=PERSON_AND_ORGANIZATION(#662,#655);
#666=PERSON_AND_ORGANIZATION(#663,#656);
#667=PERSON_AND_ORGANIZATION(#663,#657);
#668=PERSON_AND_ORGANIZATION(#663,#658);
#669=PERSON_AND_ORGANIZATION(#662,#659);
#670=PERSON_AND_ORGANIZATION(#663,#660);
#671=APPLIED_PERSON_AND_ORGANIZATION_ASSIGNMENT(#664,#649,(#680));
#672=APPLIED_PERSON_AND_ORGANIZATION_ASSIGNMENT(#665,#650,(#648));
#673=APPLIED_PERSON_AND_ORGANIZATION_ASSIGNMENT(#665,#651,(#648));
#674=APPLIED_PERSON_AND_ORGANIZATION_ASSIGNMENT(#668,#652,(#612));
#675=APPLIED_PERSON_AND_ORGANIZATION_ASSIGNMENT(#669,#653,(#606));
#676=PRODUCT_RELATED_PRODUCT_CATEGORY('detail','detail',(#680));
#677=APPLICATION_PROTOCOL_DEFINITION('International Standard',
'config_control_design',1994,#678);
#678=APPLICATION_CONTEXT(
'configuration controlled 3d designs of mechanical parts and assemblie
s');
#679=PRODUCT_CONTEXT('3D Mechanical Parts',#678,'mechanical');
#680=PRODUCT('Document','Document','',(#679));
#681=(
LENGTH_UNIT()
NAMED_UNIT(*)
SI_UNIT(.MILLI.,.METRE.)
);
#682=(
NAMED_UNIT(*)
PLANE_ANGLE_UNIT()
SI_UNIT($,.RADIAN.)
);
#683=DIMENSIONAL_EXPONENTS(0.,0.,0.,0.,0.,0.,0.);
#684=PLANE_ANGLE_MEASURE_WITH_UNIT(PLANE_ANGLE_MEASURE(0.01745329252),#682);
#685=(
CONVERSION_BASED_UNIT('DEGREES',#684)
NAMED_UNIT(#683)
PLANE_ANGLE_UNIT()
);
#686=(
NAMED_UNIT(*)
SI_UNIT($,.STERADIAN.)
SOLID_ANGLE_UNIT()
);
#687=UNCERTAINTY_MEASURE_WITH_UNIT(LENGTH_MEASURE(0.001),#681,
'DISTANCE_ACCURACY_VALUE',
'Maximum model space distance between geometric entities at asserted c
onnectivities');
#688=(
GEOMETRIC_REPRESENTATION_CONTEXT(3)
GLOBAL_UNCERTAINTY_ASSIGNED_CONTEXT((#687))
GLOBAL_UNIT_ASSIGNED_CONTEXT((#686,#685,#681))
REPRESENTATION_CONTEXT('ID1','3D')
);
#689=SHAPE_REPRESENTATION('Document',(#690,#726),#688);
#690=AXIS2_PLACEMENT_3D('',#766,#727,#728);
#691=AXIS2_PLACEMENT_3D('',#767,#729,$);
#692=AXIS2_PLACEMENT_3D('',#768,#730,$);
#693=AXIS2_PLACEMENT_3D('',#769,#731,$);
#694=AXIS2_PLACEMENT_3D('',#770,#732,$);
#695=AXIS2_PLACEMENT_3D('',#771,#733,$);
#696=AXIS2_PLACEMENT_3D('',#772,#734,$);
#697=AXIS2_PLACEMENT_3D('',#773,#735,$);
#698=AXIS2_PLACEMENT_3D('',#774,#736,$);
#699=AXIS2_PLACEMENT_3D('',#775,#737,$);
#700=AXIS2_PLACEMENT_3D('',#776,#738,$);
#701=AXIS2_PLACEMENT_3D('',#777,#739,$);
#702=AXIS2_PLACEMENT_3D('',#778,#740,$);
#703=AXIS2_PLACEMENT_3D('',#779,#741,$);
#704=AXIS2_PLACEMENT_3D('',#780,#742,$);
#705=AXIS2_PLACEMENT_3D('',#781,#743,$);
#706=AXIS2_PLACEMENT_3D('',#782,#744,$);
#707=AXIS2_PLACEMENT_3D('',#783,#745,$);
#708=AXIS2_PLACEMENT_3D('',#784,#746,$);
#709=AXIS2_PLACEMENT_3D('',#785,#747,$);
#710=AXIS2_PLACEMENT_3D('',#786,#748,$);
#711=AXIS2_PLACEMENT_3D('',#787,#749,$);
#712=AXIS2_PLACEMENT_3D('',#788,#750,$);
#713=AXIS2_PLACEMENT_3D('',#789,#751,$);
#714=AXIS2_PLACEMENT_3D('',#790,#752,$);
#715=AXIS2_PLACEMENT_3D('',#791,#753,$);
#716=AXIS2_PLACEMENT_3D('',#792,#754,$);
#717=AXIS2_PLACEMENT_3D('',#793,#755,$);
#718=AXIS2_PLACEMENT_3D('',#794,#756,$);
#719=AXIS2_PLACEMENT_3D('',#795,#757,$);
#720=AXIS2_PLACEMENT_3D('',#796,#758,$);
#721=AXIS2_PLACEMENT_3D('',#797,#759,$);
#722=AXIS2_PLACEMENT_3D('',#798,#760,$);
#723=AXIS2_PLACEMENT_3D('',#799,#761,$);
#724=AXIS2_PLACEMENT_3D('',#800,#762,$);
#725=AXIS2_PLACEMENT_3D('',#801,#763,$);
#726=AXIS2_PLACEMENT_3D('',#1114,#764,#765);
#727=DIRECTION('',(0.,0.,1.));
#728=DIRECTION('',(1.,0.,0.));
#729=DIRECTION('',(-1.,0.,0.));
#730=DIRECTION('',(0.,0.,-1.));
#731=DIRECTION('',(0.,-1.,0.));
#732=DIRECTION('',(1.,0.,0.));
#733=DIRECTION('',(0.,1.,0.));
#734=DIRECTION('',(-1.83947773623538E-17,1.96030461302376E-16,1.));
#735=DIRECTION('',(-5.96102163487906E-14,-5.96102163487906E-14,-1.));
#736=DIRECTION('',(6.20510121886805E-13,6.23263474987865E-13,1.));
#737=DIRECTION('',(6.73276854629866E-13,-6.7309921894589E-13,1.));
#738=DIRECTION('',(0.,0.,1.));
#739=DIRECTION('',(0.,0.,1.));
#740=DIRECTION('',(0.,0.,1.));
#741=DIRECTION('',(0.,0.,1.));
#742=DIRECTION('',(0.,-1.,0.));
#743=DIRECTION('',(0.,0.,1.));
#744=DIRECTION('',(0.,0.,1.));
#745=DIRECTION('',(0.,0.,1.));
#746=DIRECTION('',(0.,0.,1.));
#747=DIRECTION('',(1.,0.,0.));
#748=DIRECTION('',(0.,1.,0.));
#749=DIRECTION('',(-1.,0.,0.));
#750=DIRECTION('',(0.707106781186541,0.707106781186554,8.63550852276085E-16));
#751=DIRECTION('',(0.707106781186553,-0.707106781186542,7.85046229341882E-17));
#752=DIRECTION('',(-0.707106781186557,0.707106781186538,-9.81307786677372E-18));
#753=DIRECTION('',(-0.707106781186553,-0.707106781186542,1.07943856534509E-16));
#754=DIRECTION('',(0.,-1.,0.));
#755=DIRECTION('',(1.,0.,0.));
#756=DIRECTION('',(0.,1.,0.));
#757=DIRECTION('',(-1.,0.,0.));
#758=DIRECTION('',(0.,0.,1.));
#759=DIRECTION('',(0.,0.,1.));
#760=DIRECTION('',(0.,0.,1.));
#761=DIRECTION('',(0.,0.,1.));
#762=DIRECTION('',(0.,0.,1.));
#763=DIRECTION('',(0.,0.,1.));
#764=DIRECTION('',(0.,0.,1.));
#765=DIRECTION('',(1.,0.,0.));
#766=CARTESIAN_POINT('',(0.,0.,0.));
#767=CARTESIAN_POINT('',(0.,25.,0.));
#768=CARTESIAN_POINT('',(0.,0.,0.));
#769=CARTESIAN_POINT('',(0.,0.,0.));
#770=CARTESIAN_POINT('',(62.,0.,0.));
#771=CARTESIAN_POINT('',(62.,25.,0.));
#772=CARTESIAN_POINT('',(59.4999999999999,2.49999999999986,0.500000000000006));
#773=CARTESIAN_POINT('',(2.5,2.5,0.499999999999853));
#774=CARTESIAN_POINT('',(59.5,22.5,0.500000000001563));
#775=CARTESIAN_POINT('',(2.5000000000001,22.4999999999999,0.49999999999831));
#776=CARTESIAN_POINT('',(2.5,22.5,0.));
#777=CARTESIAN_POINT('',(2.5,2.5,0.));
#778=CARTESIAN_POINT('',(59.5,22.5,0.));
#779=CARTESIAN_POINT('',(59.5,2.5,0.));
#780=CARTESIAN_POINT('',(0.400000000000001,4.99999999999997,0.999999999999999));
#781=CARTESIAN_POINT('',(2.8,4.99999999999997,3.4));
#782=CARTESIAN_POINT('',(12.,21.,7.5));
#783=CARTESIAN_POINT('',(7.00000000000001,16.,14.));
#784=CARTESIAN_POINT('',(0.,0.,1.));
#785=CARTESIAN_POINT('',(2.8,4.99999999999997,0.999999999999999));
#786=CARTESIAN_POINT('',(2.8,20.,0.999999999999999));
#787=CARTESIAN_POINT('',(0.400000000000001,20.,0.999999999999999));
#788=CARTESIAN_POINT('',(2.8,19.6,3.8));
#789=CARTESIAN_POINT('',(2.8,5.39999999999997,0.599999999999997));
#790=CARTESIAN_POINT('',(0.799999999999999,20.,3.8));
#791=CARTESIAN_POINT('',(0.400000000000001,5.39999999999997,3.8));
#792=CARTESIAN_POINT('',(27.4,18.,0.999999999999999));
#793=CARTESIAN_POINT('',(34.6,18.,0.999999999999999));
#794=CARTESIAN_POINT('',(34.6,24.6,0.999999999999999));
#795=CARTESIAN_POINT('',(27.4,24.6,0.999999999999999));
#796=CARTESIAN_POINT('',(27.4,18.,9.8));
#797=CARTESIAN_POINT('',(2.5,22.5,0.));
#798=CARTESIAN_POINT('',(2.5,2.5,0.));
#799=CARTESIAN_POINT('',(59.5,22.5,0.));
#800=CARTESIAN_POINT('',(59.5,2.50000000000001,0.));
#801=CARTESIAN_POINT('',(12.,21.,7.5));
#802=CARTESIAN_POINT('',(59.5,0.,0.));
#803=CARTESIAN_POINT('',(2.5,0.,-9.9475983006414E-15));
#804=CARTESIAN_POINT('',(59.5,0.,1.));
#805=CARTESIAN_POINT('',(2.5,0.,1.));
#806=CARTESIAN_POINT('',(62.,22.5,4.2632564145606E-15));
#807=CARTESIAN_POINT('',(61.9999999999999,2.50000000000001,0.));
#808=CARTESIAN_POINT('',(62.,22.5,1.));
#809=CARTESIAN_POINT('',(61.9999999999999,2.50000000000001,1.));
#810=CARTESIAN_POINT('',(2.50000000000003,25.,0.));
#811=CARTESIAN_POINT('',(59.5,25.,1.4210854715202E-15));
#812=CARTESIAN_POINT('',(2.50000000000003,25.,1.));
#813=CARTESIAN_POINT('',(59.5,25.,0.999999999999997));
#814=CARTESIAN_POINT('',(0.,2.5,-9.9475983006414E-15));
#815=CARTESIAN_POINT('',(0.,22.5,0.));
#816=CARTESIAN_POINT('',(0.,2.5,0.999999999999997));
#817=CARTESIAN_POINT('',(0.,22.4999999999999,1.));
#818=CARTESIAN_POINT('',(4.,22.5,0.));
#819=CARTESIAN_POINT('',(4.,22.5,1.));
#820=CARTESIAN_POINT('',(4.,2.5,0.));
#821=CARTESIAN_POINT('',(4.,2.5,1.));
#822=CARTESIAN_POINT('',(61.,22.5,0.));
#823=CARTESIAN_POINT('',(61.,22.5,1.));
#824=CARTESIAN_POINT('',(61.,2.5,0.));
#825=CARTESIAN_POINT('',(61.,2.5,1.));
#826=CARTESIAN_POINT('',(16.,21.,14.));
#827=CARTESIAN_POINT('',(16.,21.,0.999999999999999));
#828=CARTESIAN_POINT('',(12.,25.,0.999999999999999));
#829=CARTESIAN_POINT('',(2.8,19.6,3.4));
#830=CARTESIAN_POINT('',(2.8,5.39999999999997,3.4));
#831=CARTESIAN_POINT('',(0.799999999999999,20.,3.4));
#832=CARTESIAN_POINT('',(2.4,20.,3.4));
#833=CARTESIAN_POINT('',(0.400000000000001,5.39999999999997,3.4));
#834=CARTESIAN_POINT('',(0.400000000000001,19.6,3.4));
#835=CARTESIAN_POINT('',(2.4,4.99999999999997,3.4));
#836=CARTESIAN_POINT('',(0.799999999999999,4.99999999999997,3.4));
#837=CARTESIAN_POINT('',(2.8,19.6,0.999999999999999));
#838=CARTESIAN_POINT('',(2.8,5.39999999999997,0.999999999999999));
#839=CARTESIAN_POINT('',(0.799999999999999,20.,1.));
#840=CARTESIAN_POINT('',(2.4,20.,0.999999999999999));
#841=CARTESIAN_POINT('',(0.400000000000001,5.39999999999997,0.999999999999999));
#842=CARTESIAN_POINT('',(0.400000000000001,19.6,1.));
#843=CARTESIAN_POINT('',(2.4,4.99999999999997,1.));
#844=CARTESIAN_POINT('',(0.799999999999999,4.99999999999997,1.));
#845=CARTESIAN_POINT('',(34.6,18.,9.8));
#846=CARTESIAN_POINT('',(27.4,18.,9.8));
#847=CARTESIAN_POINT('',(34.6,24.6,9.8));
#848=CARTESIAN_POINT('',(27.4,24.6,9.8));
#849=CARTESIAN_POINT('',(27.4,18.,0.999999999999999));
#850=CARTESIAN_POINT('',(34.6,18.,0.999999999999999));
#851=CARTESIAN_POINT('',(34.6,24.6,0.999999999999999));
#852=CARTESIAN_POINT('',(27.4,24.6,0.999999999999999));
#853=CARTESIAN_POINT('',(1.,22.5,8.88178419700125E-16));
#854=CARTESIAN_POINT('',(1.,22.5,1.));
#855=CARTESIAN_POINT('',(1.,2.5,8.88178419700125E-16));
#856=CARTESIAN_POINT('',(1.,2.5,1.));
#857=CARTESIAN_POINT('',(58.,22.5,8.88178419700125E-16));
#858=CARTESIAN_POINT('',(58.,22.5,1.));
#859=CARTESIAN_POINT('',(58.,2.5,8.88178419700125E-16));
#860=CARTESIAN_POINT('',(58.,2.5,1.));
#861=CARTESIAN_POINT('',(8.00000000000001,21.,0.999999999999999));
#862=CARTESIAN_POINT('',(8.00000000000001,21.,14.));
#863=CARTESIAN_POINT('',(2.5,0.,-9.9475983006414E-15));
#864=CARTESIAN_POINT('',(59.5,0.,0.));
#865=CARTESIAN_POINT('',(2.5,0.,1.));
#866=CARTESIAN_POINT('',(59.5,0.,1.));
#867=CARTESIAN_POINT('',(61.9999999999999,2.50000000000001,0.));
#868=CARTESIAN_POINT('',(62.,22.5,4.2632564145606E-15));
#869=CARTESIAN_POINT('',(61.9999999999999,2.50000000000001,1.));
#870=CARTESIAN_POINT('',(62.,22.5,1.));
#871=CARTESIAN_POINT('',(59.5,25.,1.4210854715202E-15));
#872=CARTESIAN_POINT('',(2.50000000000003,25.,0.));
#873=CARTESIAN_POINT('',(59.5,25.,0.999999999999997));
#874=CARTESIAN_POINT('',(12.,25.,0.999999999999999));
#875=CARTESIAN_POINT('',(0.,22.5,0.));
#876=CARTESIAN_POINT('',(0.,2.5,-9.9475983006414E-15));
#877=CARTESIAN_POINT('',(0.,22.4999999999999,1.));
#878=CARTESIAN_POINT('',(0.,2.5,0.999999999999997));
#879=CARTESIAN_POINT('',(59.5,0.,1.));
#880=CARTESIAN_POINT('',(59.5,0.,0.));
#881=CARTESIAN_POINT('',(2.5,0.,-9.9475983006414E-15));
#882=CARTESIAN_POINT('',(2.5,0.,1.));
#883=CARTESIAN_POINT('',(61.9999999999999,2.50000000000001,1.));
#884=CARTESIAN_POINT('',(61.9999999999999,2.50000000000001,0.));
#885=CARTESIAN_POINT('',(62.,22.5,1.));
#886=CARTESIAN_POINT('',(62.,22.5,4.2632564145606E-15));
#887=CARTESIAN_POINT('',(59.5,25.,0.999999999999997));
#888=CARTESIAN_POINT('',(59.5,25.,1.4210854715202E-15));
#889=CARTESIAN_POINT('',(2.50000000000003,25.,1.));
#890=CARTESIAN_POINT('',(2.50000000000003,25.,0.));
#891=CARTESIAN_POINT('',(0.,22.4999999999999,1.));
#892=CARTESIAN_POINT('',(0.,22.5,0.));
#893=CARTESIAN_POINT('',(0.,2.5,-9.9475983006414E-15));
#894=CARTESIAN_POINT('',(0.,2.5,0.999999999999997));
#895=CARTESIAN_POINT('',(59.5,0.,0.));
#896=CARTESIAN_POINT('',(62.,1.23900697135017E-13,0.));
#897=CARTESIAN_POINT('',(61.9999999999999,2.50000000000001,0.));
#898=CARTESIAN_POINT('',(59.5,0.,1.));
#899=CARTESIAN_POINT('',(62.,1.23900697135017E-13,0.999999999999999));
#900=CARTESIAN_POINT('',(61.9999999999999,2.50000000000001,1.));
#901=CARTESIAN_POINT('',(0.,2.5,-9.9475983006414E-15));
#902=CARTESIAN_POINT('',(6.96990000230246E-17,1.64781980812341E-16,1.40781277733001E-13));
#903=CARTESIAN_POINT('',(2.5,0.,-9.9475983006414E-15));
#904=CARTESIAN_POINT('',(0.,2.5,0.999999999999997));
#905=CARTESIAN_POINT('',(-6.70797455741498E-16,3.0624575679276E-16,1.00000000000015));
#906=CARTESIAN_POINT('',(2.5,0.,1.));
#907=CARTESIAN_POINT('',(62.,22.5,4.2632564145606E-15));
#908=CARTESIAN_POINT('',(62.,25.,-1.54672208782551E-12));
#909=CARTESIAN_POINT('',(59.5,25.,1.4210854715202E-15));
#910=CARTESIAN_POINT('',(62.,22.5,1.));
#911=CARTESIAN_POINT('',(62.,25.,0.999999999998441));
#912=CARTESIAN_POINT('',(59.5,25.,0.999999999999997));
#913=CARTESIAN_POINT('',(2.50000000000003,25.,0.));
#914=CARTESIAN_POINT('',(1.47084557726822E-14,24.9999999999999,1.67811481984116E-12));
#915=CARTESIAN_POINT('',(0.,22.5,0.));
#916=CARTESIAN_POINT('',(2.50000000000003,25.,1.));
#917=CARTESIAN_POINT('',(1.47799649341669E-14,24.9999999999999,1.00000000000168));
#918=CARTESIAN_POINT('',(0.,22.4999999999999,1.));
#919=CARTESIAN_POINT('',(4.,22.5,8.88178419700125E-16));
#920=CARTESIAN_POINT('',(4.,21.,9.42055475210265E-16));
#921=CARTESIAN_POINT('',(2.5,21.,8.88178419700125E-16));
#922=CARTESIAN_POINT('',(0.999999999999999,21.,9.42055475210265E-16));
#923=CARTESIAN_POINT('',(1.,22.5,8.88178419700125E-16));
#924=CARTESIAN_POINT('',(4.,22.5,1.));
#925=CARTESIAN_POINT('',(4.,21.,1.));
#926=CARTESIAN_POINT('',(2.5,21.,1.));
#927=CARTESIAN_POINT('',(1.,21.,1.));
#928=CARTESIAN_POINT('',(1.,22.5,1.));
#929=CARTESIAN_POINT('',(4.,22.5,0.));
#930=CARTESIAN_POINT('',(4.,22.5,1.));
#931=CARTESIAN_POINT('',(4.,2.5,8.88178419700125E-16));
#932=CARTESIAN_POINT('',(4.,1.,9.42055475210265E-16));
#933=CARTESIAN_POINT('',(2.5,1.,8.88178419700125E-16));
#934=CARTESIAN_POINT('',(1.,1.,9.42055475210265E-16));
#935=CARTESIAN_POINT('',(1.,2.5,8.88178419700125E-16));
#936=CARTESIAN_POINT('',(4.,2.5,1.));
#937=CARTESIAN_POINT('',(4.,1.,1.));
#938=CARTESIAN_POINT('',(2.5,1.,1.));
#939=CARTESIAN_POINT('',(1.,1.,1.));
#940=CARTESIAN_POINT('',(1.,2.5,1.));
#941=CARTESIAN_POINT('',(4.,2.5,0.));
#942=CARTESIAN_POINT('',(4.,2.5,1.));
#943=CARTESIAN_POINT('',(61.,22.5,8.88178419700125E-16));
#944=CARTESIAN_POINT('',(61.,21.,9.42055475210265E-16));
#945=CARTESIAN_POINT('',(59.5,21.,8.88178419700125E-16));
#946=CARTESIAN_POINT('',(58.,21.,9.42055475210265E-16));
#947=CARTESIAN_POINT('',(58.,22.5,8.88178419700125E-16));
#948=CARTESIAN_POINT('',(61.,22.5,1.));
#949=CARTESIAN_POINT('',(61.,21.,1.));
#950=CARTESIAN_POINT('',(59.5,21.,1.));
#951=CARTESIAN_POINT('',(58.,21.,1.));
#952=CARTESIAN_POINT('',(58.,22.5,1.));
#953=CARTESIAN_POINT('',(61.,22.5,0.));
#954=CARTESIAN_POINT('',(61.,22.5,1.));
#955=CARTESIAN_POINT('',(61.,2.5,8.88178419700125E-16));
#956=CARTESIAN_POINT('',(61.,1.,9.42055475210265E-16));
#957=CARTESIAN_POINT('',(59.5,1.,8.88178419700125E-16));
#958=CARTESIAN_POINT('',(58.,1.,9.42055475210265E-16));
#959=CARTESIAN_POINT('',(58.,2.5,8.88178419700125E-16));
#960=CARTESIAN_POINT('',(61.,2.5,1.));
#961=CARTESIAN_POINT('',(61.,1.,1.));
#962=CARTESIAN_POINT('',(59.5,1.,1.));
#963=CARTESIAN_POINT('',(58.,1.,1.));
#964=CARTESIAN_POINT('',(58.,2.5,1.));
#965=CARTESIAN_POINT('',(61.,2.5,0.));
#966=CARTESIAN_POINT('',(61.,2.5,1.));
#967=CARTESIAN_POINT('',(16.,21.,0.999999999999999));
#968=CARTESIAN_POINT('',(16.,25.,0.999999999999999));
#969=CARTESIAN_POINT('',(12.,25.,0.999999999999999));
#970=CARTESIAN_POINT('',(16.,21.,0.999999999999999));
#971=CARTESIAN_POINT('',(16.,21.,14.));
#972=CARTESIAN_POINT('',(16.,21.,14.));
#973=CARTESIAN_POINT('',(16.,25.,14.));
#974=CARTESIAN_POINT('',(12.,25.,14.));
#975=CARTESIAN_POINT('',(8.00000000000001,25.,14.));
#976=CARTESIAN_POINT('',(8.00000000000001,21.,14.));
#977=CARTESIAN_POINT('',(12.,25.,0.999999999999999));
#978=CARTESIAN_POINT('',(2.50000000000003,25.,1.));
#979=CARTESIAN_POINT('',(12.,25.,0.999999999999999));
#980=CARTESIAN_POINT('',(8.00000000000001,25.,0.999999999999999));
#981=CARTESIAN_POINT('',(8.00000000000001,21.,0.999999999999999));
#982=CARTESIAN_POINT('',(2.8,5.39999999999997,3.4));
#983=CARTESIAN_POINT('',(2.8,19.6,3.4));
#984=CARTESIAN_POINT('',(2.4,20.,3.4));
#985=CARTESIAN_POINT('',(0.799999999999999,20.,3.4));
#986=CARTESIAN_POINT('',(0.400000000000001,19.6,3.4));
#987=CARTESIAN_POINT('',(0.400000000000001,5.39999999999997,3.4));
#988=CARTESIAN_POINT('',(0.799999999999999,4.99999999999997,3.4));
#989=CARTESIAN_POINT('',(2.4,4.99999999999997,3.4));
#990=CARTESIAN_POINT('',(2.8,5.39999999999997,0.999999999999999));
#991=CARTESIAN_POINT('',(2.8,19.6,0.999999999999999));
#992=CARTESIAN_POINT('',(2.4,20.,0.999999999999999));
#993=CARTESIAN_POINT('',(0.799999999999999,20.,1.));
#994=CARTESIAN_POINT('',(0.400000000000001,19.6,1.));
#995=CARTESIAN_POINT('',(0.400000000000001,5.39999999999997,0.999999999999999));
#996=CARTESIAN_POINT('',(0.799999999999999,4.99999999999997,1.));
#997=CARTESIAN_POINT('',(2.4,4.99999999999997,1.));
#998=CARTESIAN_POINT('',(2.8,19.6,3.4));
#999=CARTESIAN_POINT('',(2.8,19.6,0.999999999999999));
#1000=CARTESIAN_POINT('',(2.8,5.39999999999997,0.999999999999999));
#1001=CARTESIAN_POINT('',(2.8,5.39999999999997,3.4));
#1002=CARTESIAN_POINT('',(2.4,20.,3.4));
#1003=CARTESIAN_POINT('',(2.4,20.,0.999999999999999));
#1004=CARTESIAN_POINT('',(0.799999999999999,20.,3.4));
#1005=CARTESIAN_POINT('',(0.799999999999999,20.,1.));
#1006=CARTESIAN_POINT('',(0.400000000000001,19.6,3.4));
#1007=CARTESIAN_POINT('',(0.400000000000001,19.6,1.));
#1008=CARTESIAN_POINT('',(0.400000000000001,5.39999999999997,3.4));
#1009=CARTESIAN_POINT('',(0.400000000000001,5.39999999999997,0.999999999999999));
#1010=CARTESIAN_POINT('',(0.799999999999999,4.99999999999997,3.4));
#1011=CARTESIAN_POINT('',(0.799999999999999,4.99999999999997,1.));
#1012=CARTESIAN_POINT('',(2.4,4.99999999999997,1.));
#1013=CARTESIAN_POINT('',(2.4,4.99999999999997,3.4));
#1014=CARTESIAN_POINT('',(2.8,19.6,3.4));
#1015=CARTESIAN_POINT('',(2.4,20.,3.4));
#1016=CARTESIAN_POINT('',(2.4,20.,0.999999999999999));
#1017=CARTESIAN_POINT('',(2.8,19.6,0.999999999999999));
#1018=CARTESIAN_POINT('',(2.4,4.99999999999997,3.4));
#1019=CARTESIAN_POINT('',(2.8,5.39999999999997,3.4));
#1020=CARTESIAN_POINT('',(2.8,5.39999999999997,0.999999999999999));
#1021=CARTESIAN_POINT('',(2.4,4.99999999999997,1.));
#1022=CARTESIAN_POINT('',(0.799999999999999,20.,3.4));
#1023=CARTESIAN_POINT('',(0.400000000000001,19.6,3.4));
#1024=CARTESIAN_POINT('',(0.400000000000001,19.6,1.));
#1025=CARTESIAN_POINT('',(0.799999999999999,20.,1.));
#1026=CARTESIAN_POINT('',(0.400000000000001,5.39999999999997,3.4));
#1027=CARTESIAN_POINT('',(0.799999999999999,4.99999999999997,3.4));
#1028=CARTESIAN_POINT('',(0.799999999999999,4.99999999999997,1.));
#1029=CARTESIAN_POINT('',(0.400000000000001,5.39999999999997,0.999999999999999));
#1030=CARTESIAN_POINT('',(34.6,18.,0.999999999999999));
#1031=CARTESIAN_POINT('',(34.6,18.,9.8));
#1032=CARTESIAN_POINT('',(27.4,18.,9.8));
#1033=CARTESIAN_POINT('',(34.6,18.,9.8));
#1034=CARTESIAN_POINT('',(27.4,18.,0.999999999999999));
#1035=CARTESIAN_POINT('',(27.4,18.,9.8));
#1036=CARTESIAN_POINT('',(34.6,24.6,0.999999999999999));
#1037=CARTESIAN_POINT('',(34.6,24.6,9.8));
#1038=CARTESIAN_POINT('',(34.6,18.,9.8));
#1039=CARTESIAN_POINT('',(34.6,24.6,9.8));
#1040=CARTESIAN_POINT('',(27.4,24.6,0.999999999999999));
#1041=CARTESIAN_POINT('',(27.4,24.6,9.8));
#1042=CARTESIAN_POINT('',(34.6,24.6,9.8));
#1043=CARTESIAN_POINT('',(27.4,24.6,9.8));
#1044=CARTESIAN_POINT('',(27.4,24.6,9.8));
#1045=CARTESIAN_POINT('',(27.4,18.,9.8));
#1046=CARTESIAN_POINT('',(27.4,18.,0.999999999999999));
#1047=CARTESIAN_POINT('',(34.6,18.,0.999999999999999));
#1048=CARTESIAN_POINT('',(34.6,18.,0.999999999999999));
#1049=CARTESIAN_POINT('',(34.6,24.6,0.999999999999999));
#1050=CARTESIAN_POINT('',(34.6,24.6,0.999999999999999));
#1051=CARTESIAN_POINT('',(27.4,24.6,0.999999999999999));
#1052=CARTESIAN_POINT('',(27.4,24.6,0.999999999999999));
#1053=CARTESIAN_POINT('',(27.4,18.,0.999999999999999));
#1054=CARTESIAN_POINT('',(1.,22.5,-8.88178419700125E-16));
#1055=CARTESIAN_POINT('',(1.,22.5,1.));
#1056=CARTESIAN_POINT('',(1.,22.5,8.88178419700125E-16));
#1057=CARTESIAN_POINT('',(1.,24.,9.42055475210265E-16));
#1058=CARTESIAN_POINT('',(2.5,24.,8.88178419700125E-16));
#1059=CARTESIAN_POINT('',(4.,24.,9.42055475210265E-16));
#1060=CARTESIAN_POINT('',(4.,22.5,8.88178419700125E-16));
#1061=CARTESIAN_POINT('',(1.,22.5,1.));
#1062=CARTESIAN_POINT('',(1.,24.,1.));
#1063=CARTESIAN_POINT('',(2.5,24.,1.));
#1064=CARTESIAN_POINT('',(4.,24.,1.));
#1065=CARTESIAN_POINT('',(4.,22.5,1.));
#1066=CARTESIAN_POINT('',(1.,2.5,-8.88178419700125E-16));
#1067=CARTESIAN_POINT('',(1.,2.5,1.));
#1068=CARTESIAN_POINT('',(1.,2.5,8.88178419700125E-16));
#1069=CARTESIAN_POINT('',(1.,4.,9.42055475210265E-16));
#1070=CARTESIAN_POINT('',(2.5,4.,8.88178419700125E-16));
#1071=CARTESIAN_POINT('',(4.,4.,9.42055475210265E-16));
#1072=CARTESIAN_POINT('',(4.,2.5,8.88178419700125E-16));
#1073=CARTESIAN_POINT('',(1.,2.5,1.));
#1074=CARTESIAN_POINT('',(1.,4.,1.));
#1075=CARTESIAN_POINT('',(2.5,4.,1.));
#1076=CARTESIAN_POINT('',(4.,4.,1.));
#1077=CARTESIAN_POINT('',(4.,2.5,1.));
#1078=CARTESIAN_POINT('',(58.,22.5,0.));
#1079=CARTESIAN_POINT('',(58.,22.5,1.));
#1080=CARTESIAN_POINT('',(58.,22.5,8.88178419700125E-16));
#1081=CARTESIAN_POINT('',(58.,24.,9.42055475210265E-16));
#1082=CARTESIAN_POINT('',(59.5,24.,8.88178419700125E-16));
#1083=CARTESIAN_POINT('',(61.,24.,9.42055475210265E-16));
#1084=CARTESIAN_POINT('',(61.,22.5,8.88178419700125E-16));
#1085=CARTESIAN_POINT('',(58.,22.5,1.));
#1086=CARTESIAN_POINT('',(58.,24.,1.));
#1087=CARTESIAN_POINT('',(59.5,24.,1.));
#1088=CARTESIAN_POINT('',(61.,24.,1.));
#1089=CARTESIAN_POINT('',(61.,22.5,1.));
#1090=CARTESIAN_POINT('',(58.,2.5,0.));
#1091=CARTESIAN_POINT('',(58.,2.5,1.));
#1092=CARTESIAN_POINT('',(58.,2.5,8.88178419700125E-16));
#1093=CARTESIAN_POINT('',(58.,4.,9.42055475210265E-16));
#1094=CARTESIAN_POINT('',(59.5,4.,8.88178419700125E-16));
#1095=CARTESIAN_POINT('',(61.,4.,9.42055475210265E-16));
#1096=CARTESIAN_POINT('',(61.,2.5,8.88178419700125E-16));
#1097=CARTESIAN_POINT('',(58.,2.5,1.));
#1098=CARTESIAN_POINT('',(58.,4.,1.));
#1099=CARTESIAN_POINT('',(59.5,4.,1.));
#1100=CARTESIAN_POINT('',(61.,4.,1.));
#1101=CARTESIAN_POINT('',(61.,2.5,1.));
#1102=CARTESIAN_POINT('',(8.00000000000001,21.,0.999999999999999));
#1103=CARTESIAN_POINT('',(8.00000000000001,21.,14.));
#1104=CARTESIAN_POINT('',(8.00000000000001,21.,14.));
#1105=CARTESIAN_POINT('',(8.00000000000001,17.,14.));
#1106=CARTESIAN_POINT('',(12.,17.,14.));
#1107=CARTESIAN_POINT('',(16.,17.,14.));
#1108=CARTESIAN_POINT('',(16.,21.,14.));
#1109=CARTESIAN_POINT('',(8.00000000000001,21.,0.999999999999999));
#1110=CARTESIAN_POINT('',(8.00000000000001,17.,0.999999999999999));
#1111=CARTESIAN_POINT('',(12.,17.,0.999999999999999));
#1112=CARTESIAN_POINT('',(16.,17.,0.999999999999999));
#1113=CARTESIAN_POINT('',(16.,21.,0.999999999999999));
#1114=CARTESIAN_POINT('',(0.,0.,0.));
ENDSEC;
END-ISO-10303-21;
