ISO-10303-21;
HEADER;
/* Generated by software containing ST-Developer
 * from STEP Tools, Inc. (www.steptools.com) 
 */
/* OPTION: using custom schema-name function */

FILE_DESCRIPTION(
/* description */ (''),
/* implementation_level */ '2;1');

FILE_NAME(
/* name */ '\X2\964D538B6A215757\X0\',
/* time_stamp */ '2026-03-30T21:34:15+08:00',
/* author */ (''),
/* organization */ (''),
/* preprocessor_version */ 'ST-DEVELOPER v16.5',
/* originating_system */ 'Rhino 7.15',
/* authorisation */ '');

FILE_SCHEMA (('CONFIG_CONTROL_DESIGN'));
ENDSEC;

DATA;
#10=SHAPE_REPRESENTATION_RELATIONSHIP('','',#710,#13);
#11=MANIFOLD_SOLID_BREP('brep_1',#14);
#12=MANIFOLD_SOLID_BREP('brep_2',#15);
#13=ADVANCED_BREP_SHAPE_REPRESENTATION('brep_rep_0',(#11,#12,#752),#709);
#14=CLOSED_SHELL('',(#30,#31,#32,#33,#34,#35,#36,#37,#38,#39,#40,#41,#42,
#43,#44,#45,#46,#47,#48,#49,#50,#51,#52,#53,#54,#55,#56,#57,#58,#59,#60,
#61,#62,#63));
#15=CLOSED_SHELL('',(#64,#65,#66,#67,#68,#69));
#16=FACE_BOUND('',#139,.T.);
#17=FACE_BOUND('',#140,.T.);
#18=FACE_BOUND('',#141,.T.);
#19=FACE_BOUND('',#142,.T.);
#20=FACE_BOUND('',#144,.T.);
#21=FACE_BOUND('',#145,.T.);
#22=FACE_BOUND('',#146,.T.);
#23=FACE_BOUND('',#147,.T.);
#24=FACE_BOUND('',#148,.T.);
#25=FACE_BOUND('',#149,.T.);
#26=FACE_BOUND('',#150,.T.);
#27=FACE_BOUND('',#151,.T.);
#28=FACE_BOUND('',#152,.T.);
#29=FACE_BOUND('',#153,.T.);
#30=ADVANCED_FACE('',(#70),#590,.T.);
#31=ADVANCED_FACE('',(#71),#591,.T.);
#32=ADVANCED_FACE('',(#72),#592,.T.);
#33=ADVANCED_FACE('',(#73),#593,.T.);
#34=ADVANCED_FACE('',(#74),#594,.T.);
#35=ADVANCED_FACE('',(#75),#595,.T.);
#36=ADVANCED_FACE('',(#76),#596,.T.);
#37=ADVANCED_FACE('',(#77),#597,.T.);
#38=ADVANCED_FACE('',(#78),#598,.T.);
#39=ADVANCED_FACE('',(#79),#599,.T.);
#40=ADVANCED_FACE('',(#80),#600,.T.);
#41=ADVANCED_FACE('',(#81),#601,.T.);
#42=ADVANCED_FACE('',(#82),#602,.T.);
#43=ADVANCED_FACE('',(#83),#603,.T.);
#44=ADVANCED_FACE('',(#84),#604,.T.);
#45=ADVANCED_FACE('',(#85),#605,.T.);
#46=ADVANCED_FACE('',(#86),#606,.T.);
#47=ADVANCED_FACE('',(#87),#607,.T.);
#48=ADVANCED_FACE('',(#88),#608,.T.);
#49=ADVANCED_FACE('',(#89),#609,.T.);
#50=ADVANCED_FACE('',(#90),#584,.T.);
#51=ADVANCED_FACE('',(#91),#610,.T.);
#52=ADVANCED_FACE('',(#92),#585,.T.);
#53=ADVANCED_FACE('',(#93),#611,.T.);
#54=ADVANCED_FACE('',(#94),#612,.T.);
#55=ADVANCED_FACE('',(#95),#613,.T.);
#56=ADVANCED_FACE('',(#96),#614,.T.);
#57=ADVANCED_FACE('',(#97),#615,.T.);
#58=ADVANCED_FACE('',(#98,#16,#17,#18,#19),#616,.T.);
#59=ADVANCED_FACE('',(#99,#20,#21,#22,#23,#24,#25,#26,#27,#28,#29),#617,
 .T.);
#60=ADVANCED_FACE('',(#100),#586,.F.);
#61=ADVANCED_FACE('',(#101),#587,.F.);
#62=ADVANCED_FACE('',(#102),#588,.F.);
#63=ADVANCED_FACE('',(#103),#589,.F.);
#64=ADVANCED_FACE('',(#104),#618,.T.);
#65=ADVANCED_FACE('',(#105),#619,.T.);
#66=ADVANCED_FACE('',(#106),#620,.T.);
#67=ADVANCED_FACE('',(#107),#621,.T.);
#68=ADVANCED_FACE('',(#108),#622,.T.);
#69=ADVANCED_FACE('',(#109),#623,.T.);
#70=FACE_OUTER_BOUND('',#110,.T.);
#71=FACE_OUTER_BOUND('',#111,.T.);
#72=FACE_OUTER_BOUND('',#112,.T.);
#73=FACE_OUTER_BOUND('',#113,.T.);
#74=FACE_OUTER_BOUND('',#114,.T.);
#75=FACE_OUTER_BOUND('',#115,.T.);
#76=FACE_OUTER_BOUND('',#116,.T.);
#77=FACE_OUTER_BOUND('',#117,.T.);
#78=FACE_OUTER_BOUND('',#118,.T.);
#79=FACE_OUTER_BOUND('',#119,.T.);
#80=FACE_OUTER_BOUND('',#120,.T.);
#81=FACE_OUTER_BOUND('',#121,.T.);
#82=FACE_OUTER_BOUND('',#122,.T.);
#83=FACE_OUTER_BOUND('',#123,.T.);
#84=FACE_OUTER_BOUND('',#124,.T.);
#85=FACE_OUTER_BOUND('',#125,.T.);
#86=FACE_OUTER_BOUND('',#126,.T.);
#87=FACE_OUTER_BOUND('',#127,.T.);
#88=FACE_OUTER_BOUND('',#128,.T.);
#89=FACE_OUTER_BOUND('',#129,.T.);
#90=FACE_OUTER_BOUND('',#130,.T.);
#91=FACE_OUTER_BOUND('',#131,.T.);
#92=FACE_OUTER_BOUND('',#132,.T.);
#93=FACE_OUTER_BOUND('',#133,.T.);
#94=FACE_OUTER_BOUND('',#134,.T.);
#95=FACE_OUTER_BOUND('',#135,.T.);
#96=FACE_OUTER_BOUND('',#136,.T.);
#97=FACE_OUTER_BOUND('',#137,.T.);
#98=FACE_OUTER_BOUND('',#138,.T.);
#99=FACE_OUTER_BOUND('',#143,.T.);
#100=FACE_OUTER_BOUND('',#154,.T.);
#101=FACE_OUTER_BOUND('',#155,.T.);
#102=FACE_OUTER_BOUND('',#156,.T.);
#103=FACE_OUTER_BOUND('',#157,.T.);
#104=FACE_OUTER_BOUND('',#158,.T.);
#105=FACE_OUTER_BOUND('',#159,.T.);
#106=FACE_OUTER_BOUND('',#160,.T.);
#107=FACE_OUTER_BOUND('',#161,.T.);
#108=FACE_OUTER_BOUND('',#162,.T.);
#109=FACE_OUTER_BOUND('',#163,.T.);
#110=EDGE_LOOP('',(#164,#165,#166,#167));
#111=EDGE_LOOP('',(#168,#169,#170,#171));
#112=EDGE_LOOP('',(#172,#173,#174,#175));
#113=EDGE_LOOP('',(#176,#177,#178,#179));
#114=EDGE_LOOP('',(#180,#181,#182,#183));
#115=EDGE_LOOP('',(#184,#185,#186,#187));
#116=EDGE_LOOP('',(#188,#189,#190,#191));
#117=EDGE_LOOP('',(#192,#193,#194,#195));
#118=EDGE_LOOP('',(#196,#197,#198,#199));
#119=EDGE_LOOP('',(#200,#201,#202,#203));
#120=EDGE_LOOP('',(#204,#205,#206,#207));
#121=EDGE_LOOP('',(#208,#209,#210,#211));
#122=EDGE_LOOP('',(#212,#213,#214,#215));
#123=EDGE_LOOP('',(#216,#217,#218,#219));
#124=EDGE_LOOP('',(#220,#221,#222,#223));
#125=EDGE_LOOP('',(#224,#225,#226,#227));
#126=EDGE_LOOP('',(#228,#229,#230,#231));
#127=EDGE_LOOP('',(#232,#233,#234,#235));
#128=EDGE_LOOP('',(#236,#237,#238,#239));
#129=EDGE_LOOP('',(#240,#241,#242,#243));
#130=EDGE_LOOP('',(#244,#245,#246,#247));
#131=EDGE_LOOP('',(#248));
#132=EDGE_LOOP('',(#249,#250,#251,#252));
#133=EDGE_LOOP('',(#253));
#134=EDGE_LOOP('',(#254,#255,#256,#257));
#135=EDGE_LOOP('',(#258,#259,#260,#261));
#136=EDGE_LOOP('',(#262,#263,#264,#265));
#137=EDGE_LOOP('',(#266,#267,#268,#269));
#138=EDGE_LOOP('',(#270,#271,#272,#273));
#139=EDGE_LOOP('',(#274));
#140=EDGE_LOOP('',(#275));
#141=EDGE_LOOP('',(#276));
#142=EDGE_LOOP('',(#277));
#143=EDGE_LOOP('',(#278,#279,#280,#281));
#144=EDGE_LOOP('',(#282));
#145=EDGE_LOOP('',(#283));
#146=EDGE_LOOP('',(#284));
#147=EDGE_LOOP('',(#285));
#148=EDGE_LOOP('',(#286));
#149=EDGE_LOOP('',(#287));
#150=EDGE_LOOP('',(#288,#289,#290,#291));
#151=EDGE_LOOP('',(#292,#293,#294,#295));
#152=EDGE_LOOP('',(#296,#297,#298,#299));
#153=EDGE_LOOP('',(#300,#301,#302,#303));
#154=EDGE_LOOP('',(#304,#305,#306,#307));
#155=EDGE_LOOP('',(#308,#309,#310,#311));
#156=EDGE_LOOP('',(#312,#313,#314,#315));
#157=EDGE_LOOP('',(#316,#317,#318,#319));
#158=EDGE_LOOP('',(#320,#321,#322,#323));
#159=EDGE_LOOP('',(#324,#325,#326,#327));
#160=EDGE_LOOP('',(#328,#329,#330,#331));
#161=EDGE_LOOP('',(#332,#333,#334,#335));
#162=EDGE_LOOP('',(#336,#337,#338,#339));
#163=EDGE_LOOP('',(#340,#341,#342,#343));
#164=ORIENTED_EDGE('',*,*,#344,.T.);
#165=ORIENTED_EDGE('',*,*,#345,.T.);
#166=ORIENTED_EDGE('',*,*,#346,.F.);
#167=ORIENTED_EDGE('',*,*,#347,.F.);
#168=ORIENTED_EDGE('',*,*,#348,.T.);
#169=ORIENTED_EDGE('',*,*,#349,.T.);
#170=ORIENTED_EDGE('',*,*,#350,.F.);
#171=ORIENTED_EDGE('',*,*,#345,.F.);
#172=ORIENTED_EDGE('',*,*,#351,.T.);
#173=ORIENTED_EDGE('',*,*,#352,.T.);
#174=ORIENTED_EDGE('',*,*,#353,.F.);
#175=ORIENTED_EDGE('',*,*,#349,.F.);
#176=ORIENTED_EDGE('',*,*,#354,.T.);
#177=ORIENTED_EDGE('',*,*,#347,.T.);
#178=ORIENTED_EDGE('',*,*,#355,.F.);
#179=ORIENTED_EDGE('',*,*,#352,.F.);
#180=ORIENTED_EDGE('',*,*,#346,.T.);
#181=ORIENTED_EDGE('',*,*,#350,.T.);
#182=ORIENTED_EDGE('',*,*,#353,.T.);
#183=ORIENTED_EDGE('',*,*,#355,.T.);
#184=ORIENTED_EDGE('',*,*,#356,.T.);
#185=ORIENTED_EDGE('',*,*,#357,.T.);
#186=ORIENTED_EDGE('',*,*,#358,.F.);
#187=ORIENTED_EDGE('',*,*,#359,.F.);
#188=ORIENTED_EDGE('',*,*,#360,.T.);
#189=ORIENTED_EDGE('',*,*,#361,.T.);
#190=ORIENTED_EDGE('',*,*,#362,.F.);
#191=ORIENTED_EDGE('',*,*,#357,.F.);
#192=ORIENTED_EDGE('',*,*,#363,.T.);
#193=ORIENTED_EDGE('',*,*,#364,.T.);
#194=ORIENTED_EDGE('',*,*,#365,.F.);
#195=ORIENTED_EDGE('',*,*,#361,.F.);
#196=ORIENTED_EDGE('',*,*,#366,.T.);
#197=ORIENTED_EDGE('',*,*,#359,.T.);
#198=ORIENTED_EDGE('',*,*,#367,.F.);
#199=ORIENTED_EDGE('',*,*,#364,.F.);
#200=ORIENTED_EDGE('',*,*,#358,.T.);
#201=ORIENTED_EDGE('',*,*,#362,.T.);
#202=ORIENTED_EDGE('',*,*,#365,.T.);
#203=ORIENTED_EDGE('',*,*,#367,.T.);
#204=ORIENTED_EDGE('',*,*,#368,.T.);
#205=ORIENTED_EDGE('',*,*,#369,.T.);
#206=ORIENTED_EDGE('',*,*,#370,.F.);
#207=ORIENTED_EDGE('',*,*,#371,.F.);
#208=ORIENTED_EDGE('',*,*,#372,.T.);
#209=ORIENTED_EDGE('',*,*,#373,.T.);
#210=ORIENTED_EDGE('',*,*,#374,.F.);
#211=ORIENTED_EDGE('',*,*,#369,.F.);
#212=ORIENTED_EDGE('',*,*,#375,.T.);
#213=ORIENTED_EDGE('',*,*,#376,.T.);
#214=ORIENTED_EDGE('',*,*,#377,.F.);
#215=ORIENTED_EDGE('',*,*,#373,.F.);
#216=ORIENTED_EDGE('',*,*,#378,.T.);
#217=ORIENTED_EDGE('',*,*,#371,.T.);
#218=ORIENTED_EDGE('',*,*,#379,.F.);
#219=ORIENTED_EDGE('',*,*,#376,.F.);
#220=ORIENTED_EDGE('',*,*,#370,.T.);
#221=ORIENTED_EDGE('',*,*,#374,.T.);
#222=ORIENTED_EDGE('',*,*,#377,.T.);
#223=ORIENTED_EDGE('',*,*,#379,.T.);
#224=ORIENTED_EDGE('',*,*,#380,.T.);
#225=ORIENTED_EDGE('',*,*,#381,.T.);
#226=ORIENTED_EDGE('',*,*,#382,.F.);
#227=ORIENTED_EDGE('',*,*,#383,.F.);
#228=ORIENTED_EDGE('',*,*,#384,.T.);
#229=ORIENTED_EDGE('',*,*,#385,.T.);
#230=ORIENTED_EDGE('',*,*,#386,.F.);
#231=ORIENTED_EDGE('',*,*,#381,.F.);
#232=ORIENTED_EDGE('',*,*,#387,.T.);
#233=ORIENTED_EDGE('',*,*,#388,.T.);
#234=ORIENTED_EDGE('',*,*,#389,.F.);
#235=ORIENTED_EDGE('',*,*,#385,.F.);
#236=ORIENTED_EDGE('',*,*,#390,.T.);
#237=ORIENTED_EDGE('',*,*,#383,.T.);
#238=ORIENTED_EDGE('',*,*,#391,.F.);
#239=ORIENTED_EDGE('',*,*,#388,.F.);
#240=ORIENTED_EDGE('',*,*,#382,.T.);
#241=ORIENTED_EDGE('',*,*,#386,.T.);
#242=ORIENTED_EDGE('',*,*,#389,.T.);
#243=ORIENTED_EDGE('',*,*,#391,.T.);
#244=ORIENTED_EDGE('',*,*,#392,.T.);
#245=ORIENTED_EDGE('',*,*,#393,.T.);
#246=ORIENTED_EDGE('',*,*,#394,.F.);
#247=ORIENTED_EDGE('',*,*,#393,.F.);
#248=ORIENTED_EDGE('',*,*,#394,.T.);
#249=ORIENTED_EDGE('',*,*,#395,.T.);
#250=ORIENTED_EDGE('',*,*,#396,.T.);
#251=ORIENTED_EDGE('',*,*,#397,.F.);
#252=ORIENTED_EDGE('',*,*,#396,.F.);
#253=ORIENTED_EDGE('',*,*,#397,.T.);
#254=ORIENTED_EDGE('',*,*,#398,.T.);
#255=ORIENTED_EDGE('',*,*,#399,.T.);
#256=ORIENTED_EDGE('',*,*,#400,.F.);
#257=ORIENTED_EDGE('',*,*,#401,.F.);
#258=ORIENTED_EDGE('',*,*,#402,.T.);
#259=ORIENTED_EDGE('',*,*,#403,.T.);
#260=ORIENTED_EDGE('',*,*,#404,.F.);
#261=ORIENTED_EDGE('',*,*,#399,.F.);
#262=ORIENTED_EDGE('',*,*,#405,.T.);
#263=ORIENTED_EDGE('',*,*,#406,.T.);
#264=ORIENTED_EDGE('',*,*,#407,.F.);
#265=ORIENTED_EDGE('',*,*,#403,.F.);
#266=ORIENTED_EDGE('',*,*,#408,.T.);
#267=ORIENTED_EDGE('',*,*,#401,.T.);
#268=ORIENTED_EDGE('',*,*,#409,.F.);
#269=ORIENTED_EDGE('',*,*,#406,.F.);
#270=ORIENTED_EDGE('',*,*,#408,.F.);
#271=ORIENTED_EDGE('',*,*,#405,.F.);
#272=ORIENTED_EDGE('',*,*,#402,.F.);
#273=ORIENTED_EDGE('',*,*,#398,.F.);
#274=ORIENTED_EDGE('',*,*,#410,.F.);
#275=ORIENTED_EDGE('',*,*,#413,.F.);
#276=ORIENTED_EDGE('',*,*,#416,.F.);
#277=ORIENTED_EDGE('',*,*,#419,.F.);
#278=ORIENTED_EDGE('',*,*,#400,.T.);
#279=ORIENTED_EDGE('',*,*,#404,.T.);
#280=ORIENTED_EDGE('',*,*,#407,.T.);
#281=ORIENTED_EDGE('',*,*,#409,.T.);
#282=ORIENTED_EDGE('',*,*,#411,.T.);
#283=ORIENTED_EDGE('',*,*,#414,.T.);
#284=ORIENTED_EDGE('',*,*,#417,.T.);
#285=ORIENTED_EDGE('',*,*,#420,.T.);
#286=ORIENTED_EDGE('',*,*,#395,.F.);
#287=ORIENTED_EDGE('',*,*,#392,.F.);
#288=ORIENTED_EDGE('',*,*,#390,.F.);
#289=ORIENTED_EDGE('',*,*,#387,.F.);
#290=ORIENTED_EDGE('',*,*,#384,.F.);
#291=ORIENTED_EDGE('',*,*,#380,.F.);
#292=ORIENTED_EDGE('',*,*,#378,.F.);
#293=ORIENTED_EDGE('',*,*,#375,.F.);
#294=ORIENTED_EDGE('',*,*,#372,.F.);
#295=ORIENTED_EDGE('',*,*,#368,.F.);
#296=ORIENTED_EDGE('',*,*,#366,.F.);
#297=ORIENTED_EDGE('',*,*,#363,.F.);
#298=ORIENTED_EDGE('',*,*,#360,.F.);
#299=ORIENTED_EDGE('',*,*,#356,.F.);
#300=ORIENTED_EDGE('',*,*,#354,.F.);
#301=ORIENTED_EDGE('',*,*,#351,.F.);
#302=ORIENTED_EDGE('',*,*,#348,.F.);
#303=ORIENTED_EDGE('',*,*,#344,.F.);
#304=ORIENTED_EDGE('',*,*,#410,.T.);
#305=ORIENTED_EDGE('',*,*,#412,.T.);
#306=ORIENTED_EDGE('',*,*,#411,.F.);
#307=ORIENTED_EDGE('',*,*,#412,.F.);
#308=ORIENTED_EDGE('',*,*,#413,.T.);
#309=ORIENTED_EDGE('',*,*,#415,.T.);
#310=ORIENTED_EDGE('',*,*,#414,.F.);
#311=ORIENTED_EDGE('',*,*,#415,.F.);
#312=ORIENTED_EDGE('',*,*,#416,.T.);
#313=ORIENTED_EDGE('',*,*,#418,.T.);
#314=ORIENTED_EDGE('',*,*,#417,.F.);
#315=ORIENTED_EDGE('',*,*,#418,.F.);
#316=ORIENTED_EDGE('',*,*,#419,.T.);
#317=ORIENTED_EDGE('',*,*,#421,.T.);
#318=ORIENTED_EDGE('',*,*,#420,.F.);
#319=ORIENTED_EDGE('',*,*,#421,.F.);
#320=ORIENTED_EDGE('',*,*,#422,.T.);
#321=ORIENTED_EDGE('',*,*,#423,.T.);
#322=ORIENTED_EDGE('',*,*,#424,.F.);
#323=ORIENTED_EDGE('',*,*,#425,.F.);
#324=ORIENTED_EDGE('',*,*,#426,.T.);
#325=ORIENTED_EDGE('',*,*,#427,.T.);
#326=ORIENTED_EDGE('',*,*,#428,.F.);
#327=ORIENTED_EDGE('',*,*,#423,.F.);
#328=ORIENTED_EDGE('',*,*,#429,.T.);
#329=ORIENTED_EDGE('',*,*,#430,.T.);
#330=ORIENTED_EDGE('',*,*,#431,.F.);
#331=ORIENTED_EDGE('',*,*,#427,.F.);
#332=ORIENTED_EDGE('',*,*,#432,.T.);
#333=ORIENTED_EDGE('',*,*,#425,.T.);
#334=ORIENTED_EDGE('',*,*,#433,.F.);
#335=ORIENTED_EDGE('',*,*,#430,.F.);
#336=ORIENTED_EDGE('',*,*,#432,.F.);
#337=ORIENTED_EDGE('',*,*,#429,.F.);
#338=ORIENTED_EDGE('',*,*,#426,.F.);
#339=ORIENTED_EDGE('',*,*,#422,.F.);
#340=ORIENTED_EDGE('',*,*,#424,.T.);
#341=ORIENTED_EDGE('',*,*,#428,.T.);
#342=ORIENTED_EDGE('',*,*,#431,.T.);
#343=ORIENTED_EDGE('',*,*,#433,.T.);
#344=EDGE_CURVE('',#524,#525,#452,.T.);
#345=EDGE_CURVE('',#525,#526,#453,.T.);
#346=EDGE_CURVE('',#527,#526,#454,.T.);
#347=EDGE_CURVE('',#524,#527,#455,.T.);
#348=EDGE_CURVE('',#525,#528,#456,.T.);
#349=EDGE_CURVE('',#528,#529,#457,.T.);
#350=EDGE_CURVE('',#526,#529,#458,.T.);
#351=EDGE_CURVE('',#528,#530,#459,.T.);
#352=EDGE_CURVE('',#530,#531,#460,.T.);
#353=EDGE_CURVE('',#529,#531,#461,.T.);
#354=EDGE_CURVE('',#530,#524,#462,.T.);
#355=EDGE_CURVE('',#531,#527,#463,.T.);
#356=EDGE_CURVE('',#532,#533,#464,.T.);
#357=EDGE_CURVE('',#533,#534,#465,.T.);
#358=EDGE_CURVE('',#535,#534,#466,.T.);
#359=EDGE_CURVE('',#532,#535,#467,.T.);
#360=EDGE_CURVE('',#533,#536,#468,.T.);
#361=EDGE_CURVE('',#536,#537,#469,.T.);
#362=EDGE_CURVE('',#534,#537,#470,.T.);
#363=EDGE_CURVE('',#536,#538,#471,.T.);
#364=EDGE_CURVE('',#538,#539,#472,.T.);
#365=EDGE_CURVE('',#537,#539,#473,.T.);
#366=EDGE_CURVE('',#538,#532,#474,.T.);
#367=EDGE_CURVE('',#539,#535,#475,.T.);
#368=EDGE_CURVE('',#540,#541,#476,.T.);
#369=EDGE_CURVE('',#541,#542,#477,.T.);
#370=EDGE_CURVE('',#543,#542,#478,.T.);
#371=EDGE_CURVE('',#540,#543,#479,.T.);
#372=EDGE_CURVE('',#541,#544,#480,.T.);
#373=EDGE_CURVE('',#544,#545,#481,.T.);
#374=EDGE_CURVE('',#542,#545,#482,.T.);
#375=EDGE_CURVE('',#544,#546,#483,.T.);
#376=EDGE_CURVE('',#546,#547,#484,.T.);
#377=EDGE_CURVE('',#545,#547,#485,.T.);
#378=EDGE_CURVE('',#546,#540,#486,.T.);
#379=EDGE_CURVE('',#547,#543,#487,.T.);
#380=EDGE_CURVE('',#548,#549,#488,.T.);
#381=EDGE_CURVE('',#549,#550,#489,.T.);
#382=EDGE_CURVE('',#551,#550,#490,.T.);
#383=EDGE_CURVE('',#548,#551,#491,.T.);
#384=EDGE_CURVE('',#549,#552,#492,.T.);
#385=EDGE_CURVE('',#552,#553,#493,.T.);
#386=EDGE_CURVE('',#550,#553,#494,.T.);
#387=EDGE_CURVE('',#552,#554,#495,.T.);
#388=EDGE_CURVE('',#554,#555,#496,.T.);
#389=EDGE_CURVE('',#553,#555,#497,.T.);
#390=EDGE_CURVE('',#554,#548,#498,.T.);
#391=EDGE_CURVE('',#555,#551,#499,.T.);
#392=EDGE_CURVE('',#556,#556,#434,.T.);
#393=EDGE_CURVE('',#556,#557,#435,.T.);
#394=EDGE_CURVE('',#557,#557,#436,.T.);
#395=EDGE_CURVE('',#558,#558,#437,.T.);
#396=EDGE_CURVE('',#558,#559,#438,.T.);
#397=EDGE_CURVE('',#559,#559,#439,.T.);
#398=EDGE_CURVE('',#560,#561,#500,.T.);
#399=EDGE_CURVE('',#561,#562,#501,.T.);
#400=EDGE_CURVE('',#563,#562,#502,.T.);
#401=EDGE_CURVE('',#560,#563,#503,.T.);
#402=EDGE_CURVE('',#561,#564,#504,.T.);
#403=EDGE_CURVE('',#564,#565,#505,.T.);
#404=EDGE_CURVE('',#562,#565,#506,.T.);
#405=EDGE_CURVE('',#564,#566,#507,.T.);
#406=EDGE_CURVE('',#566,#567,#508,.T.);
#407=EDGE_CURVE('',#565,#567,#509,.T.);
#408=EDGE_CURVE('',#566,#560,#510,.T.);
#409=EDGE_CURVE('',#567,#563,#511,.T.);
#410=EDGE_CURVE('',#568,#568,#440,.T.);
#411=EDGE_CURVE('',#569,#569,#441,.T.);
#412=EDGE_CURVE('',#568,#569,#442,.T.);
#413=EDGE_CURVE('',#570,#570,#443,.T.);
#414=EDGE_CURVE('',#571,#571,#444,.T.);
#415=EDGE_CURVE('',#570,#571,#445,.T.);
#416=EDGE_CURVE('',#572,#572,#446,.T.);
#417=EDGE_CURVE('',#573,#573,#447,.T.);
#418=EDGE_CURVE('',#572,#573,#448,.T.);
#419=EDGE_CURVE('',#574,#574,#449,.T.);
#420=EDGE_CURVE('',#575,#575,#450,.T.);
#421=EDGE_CURVE('',#574,#575,#451,.T.);
#422=EDGE_CURVE('',#576,#577,#512,.T.);
#423=EDGE_CURVE('',#577,#578,#513,.T.);
#424=EDGE_CURVE('',#579,#578,#514,.T.);
#425=EDGE_CURVE('',#576,#579,#515,.T.);
#426=EDGE_CURVE('',#577,#580,#516,.T.);
#427=EDGE_CURVE('',#580,#581,#517,.T.);
#428=EDGE_CURVE('',#578,#581,#518,.T.);
#429=EDGE_CURVE('',#580,#582,#519,.T.);
#430=EDGE_CURVE('',#582,#583,#520,.T.);
#431=EDGE_CURVE('',#581,#583,#521,.T.);
#432=EDGE_CURVE('',#582,#576,#522,.T.);
#433=EDGE_CURVE('',#583,#579,#523,.T.);
#434=(
BOUNDED_CURVE()
B_SPLINE_CURVE(2,(#980,#981,#982,#983,#984,#985,#986,#987,#988),
 .UNSPECIFIED.,.T.,.F.)
B_SPLINE_CURVE_WITH_KNOTS((3,2,2,2,3),(0.,7.85398163397448,15.707963267949,
23.5619449019234,31.4159265358979),.UNSPECIFIED.)
CURVE()
GEOMETRIC_REPRESENTATION_ITEM()
RATIONAL_B_SPLINE_CURVE((1.,0.707106781186548,1.,0.707106781186548,1.,0.707106781186548,
1.,0.707106781186548,1.))
REPRESENTATION_ITEM('')
);
#435=(
BOUNDED_CURVE()
B_SPLINE_CURVE(1,(#989,#990),.UNSPECIFIED.,.F.,.F.)
B_SPLINE_CURVE_WITH_KNOTS((2,2),(0.,11.),.UNSPECIFIED.)
CURVE()
GEOMETRIC_REPRESENTATION_ITEM()
RATIONAL_B_SPLINE_CURVE((1.,1.))
REPRESENTATION_ITEM('')
);
#436=(
BOUNDED_CURVE()
B_SPLINE_CURVE(2,(#991,#992,#993,#994,#995,#996,#997,#998,#999),
 .UNSPECIFIED.,.T.,.F.)
B_SPLINE_CURVE_WITH_KNOTS((3,2,2,2,3),(0.,7.85398163397448,15.707963267949,
23.5619449019234,31.4159265358979),.UNSPECIFIED.)
CURVE()
GEOMETRIC_REPRESENTATION_ITEM()
RATIONAL_B_SPLINE_CURVE((1.,0.707106781186548,1.,0.707106781186548,1.,0.707106781186548,
1.,0.707106781186548,1.))
REPRESENTATION_ITEM('')
);
#437=(
BOUNDED_CURVE()
B_SPLINE_CURVE(2,(#1000,#1001,#1002,#1003,#1004,#1005,#1006,#1007,#1008),
 .UNSPECIFIED.,.T.,.F.)
B_SPLINE_CURVE_WITH_KNOTS((3,2,2,2,3),(0.,7.85398163397448,15.707963267949,
23.5619449019234,31.4159265358979),.UNSPECIFIED.)
CURVE()
GEOMETRIC_REPRESENTATION_ITEM()
RATIONAL_B_SPLINE_CURVE((1.,0.707106781186548,1.,0.707106781186548,1.,0.707106781186548,
1.,0.707106781186548,1.))
REPRESENTATION_ITEM('')
);
#438=(
BOUNDED_CURVE()
B_SPLINE_CURVE(1,(#1009,#1010),.UNSPECIFIED.,.F.,.F.)
B_SPLINE_CURVE_WITH_KNOTS((2,2),(0.,11.),.UNSPECIFIED.)
CURVE()
GEOMETRIC_REPRESENTATION_ITEM()
RATIONAL_B_SPLINE_CURVE((1.,1.))
REPRESENTATION_ITEM('')
);
#439=(
BOUNDED_CURVE()
B_SPLINE_CURVE(2,(#1011,#1012,#1013,#1014,#1015,#1016,#1017,#1018,#1019),
 .UNSPECIFIED.,.T.,.F.)
B_SPLINE_CURVE_WITH_KNOTS((3,2,2,2,3),(0.,7.85398163397448,15.707963267949,
23.5619449019234,31.4159265358979),.UNSPECIFIED.)
CURVE()
GEOMETRIC_REPRESENTATION_ITEM()
RATIONAL_B_SPLINE_CURVE((1.,0.707106781186548,1.,0.707106781186548,1.,0.707106781186548,
1.,0.707106781186548,1.))
REPRESENTATION_ITEM('')
);
#440=(
BOUNDED_CURVE()
B_SPLINE_CURVE(2,(#1044,#1045,#1046,#1047,#1048,#1049,#1050,#1051,#1052),
 .UNSPECIFIED.,.T.,.F.)
B_SPLINE_CURVE_WITH_KNOTS((3,2,2,2,3),(-9.42477796076938,-7.06858347057703,
-4.71238898038469,-2.35619449019234,0.),.UNSPECIFIED.)
CURVE()
GEOMETRIC_REPRESENTATION_ITEM()
RATIONAL_B_SPLINE_CURVE((1.,0.707106781186548,1.,0.707106781186548,1.,0.707106781186548,
1.,0.707106781186548,1.))
REPRESENTATION_ITEM('')
);
#441=(
BOUNDED_CURVE()
B_SPLINE_CURVE(2,(#1053,#1054,#1055,#1056,#1057,#1058,#1059,#1060,#1061),
 .UNSPECIFIED.,.T.,.F.)
B_SPLINE_CURVE_WITH_KNOTS((3,2,2,2,3),(-9.42477796076938,-7.06858347057703,
-4.71238898038469,-2.35619449019234,0.),.UNSPECIFIED.)
CURVE()
GEOMETRIC_REPRESENTATION_ITEM()
RATIONAL_B_SPLINE_CURVE((1.,0.707106781186548,1.,0.707106781186548,1.,0.707106781186548,
1.,0.707106781186548,1.))
REPRESENTATION_ITEM('')
);
#442=(
BOUNDED_CURVE()
B_SPLINE_CURVE(1,(#1062,#1063),.UNSPECIFIED.,.F.,.F.)
B_SPLINE_CURVE_WITH_KNOTS((2,2),(8.6,10.),.UNSPECIFIED.)
CURVE()
GEOMETRIC_REPRESENTATION_ITEM()
RATIONAL_B_SPLINE_CURVE((1.,1.))
REPRESENTATION_ITEM('')
);
#443=(
BOUNDED_CURVE()
B_SPLINE_CURVE(2,(#1064,#1065,#1066,#1067,#1068,#1069,#1070,#1071,#1072),
 .UNSPECIFIED.,.T.,.F.)
B_SPLINE_CURVE_WITH_KNOTS((3,2,2,2,3),(-9.42477796076938,-7.06858347057703,
-4.71238898038469,-2.35619449019234,0.),.UNSPECIFIED.)
CURVE()
GEOMETRIC_REPRESENTATION_ITEM()
RATIONAL_B_SPLINE_CURVE((1.,0.707106781186548,1.,0.707106781186548,1.,0.707106781186548,
1.,0.707106781186548,1.))
REPRESENTATION_ITEM('')
);
#444=(
BOUNDED_CURVE()
B_SPLINE_CURVE(2,(#1073,#1074,#1075,#1076,#1077,#1078,#1079,#1080,#1081),
 .UNSPECIFIED.,.T.,.F.)
B_SPLINE_CURVE_WITH_KNOTS((3,2,2,2,3),(-9.42477796076938,-7.06858347057703,
-4.71238898038469,-2.35619449019234,0.),.UNSPECIFIED.)
CURVE()
GEOMETRIC_REPRESENTATION_ITEM()
RATIONAL_B_SPLINE_CURVE((1.,0.707106781186548,1.,0.707106781186548,1.,0.707106781186548,
1.,0.707106781186548,1.))
REPRESENTATION_ITEM('')
);
#445=(
BOUNDED_CURVE()
B_SPLINE_CURVE(1,(#1082,#1083),.UNSPECIFIED.,.F.,.F.)
B_SPLINE_CURVE_WITH_KNOTS((2,2),(8.6,10.),.UNSPECIFIED.)
CURVE()
GEOMETRIC_REPRESENTATION_ITEM()
RATIONAL_B_SPLINE_CURVE((1.,1.))
REPRESENTATION_ITEM('')
);
#446=(
BOUNDED_CURVE()
B_SPLINE_CURVE(2,(#1084,#1085,#1086,#1087,#1088,#1089,#1090,#1091,#1092),
 .UNSPECIFIED.,.T.,.F.)
B_SPLINE_CURVE_WITH_KNOTS((3,2,2,2,3),(-9.42477796076938,-7.06858347057703,
-4.71238898038469,-2.35619449019234,0.),.UNSPECIFIED.)
CURVE()
GEOMETRIC_REPRESENTATION_ITEM()
RATIONAL_B_SPLINE_CURVE((1.,0.707106781186548,1.,0.707106781186548,1.,0.707106781186548,
1.,0.707106781186548,1.))
REPRESENTATION_ITEM('')
);
#447=(
BOUNDED_CURVE()
B_SPLINE_CURVE(2,(#1093,#1094,#1095,#1096,#1097,#1098,#1099,#1100,#1101),
 .UNSPECIFIED.,.T.,.F.)
B_SPLINE_CURVE_WITH_KNOTS((3,2,2,2,3),(-9.42477796076938,-7.06858347057703,
-4.71238898038469,-2.35619449019234,0.),.UNSPECIFIED.)
CURVE()
GEOMETRIC_REPRESENTATION_ITEM()
RATIONAL_B_SPLINE_CURVE((1.,0.707106781186548,1.,0.707106781186548,1.,0.707106781186548,
1.,0.707106781186548,1.))
REPRESENTATION_ITEM('')
);
#448=(
BOUNDED_CURVE()
B_SPLINE_CURVE(1,(#1102,#1103),.UNSPECIFIED.,.F.,.F.)
B_SPLINE_CURVE_WITH_KNOTS((2,2),(8.6,10.),.UNSPECIFIED.)
CURVE()
GEOMETRIC_REPRESENTATION_ITEM()
RATIONAL_B_SPLINE_CURVE((1.,1.))
REPRESENTATION_ITEM('')
);
#449=(
BOUNDED_CURVE()
B_SPLINE_CURVE(2,(#1104,#1105,#1106,#1107,#1108,#1109,#1110,#1111,#1112),
 .UNSPECIFIED.,.T.,.F.)
B_SPLINE_CURVE_WITH_KNOTS((3,2,2,2,3),(-9.42477796076938,-7.06858347057703,
-4.71238898038469,-2.35619449019234,0.),.UNSPECIFIED.)
CURVE()
GEOMETRIC_REPRESENTATION_ITEM()
RATIONAL_B_SPLINE_CURVE((1.,0.707106781186548,1.,0.707106781186548,1.,0.707106781186548,
1.,0.707106781186548,1.))
REPRESENTATION_ITEM('')
);
#450=(
BOUNDED_CURVE()
B_SPLINE_CURVE(2,(#1113,#1114,#1115,#1116,#1117,#1118,#1119,#1120,#1121),
 .UNSPECIFIED.,.T.,.F.)
B_SPLINE_CURVE_WITH_KNOTS((3,2,2,2,3),(-9.42477796076938,-7.06858347057703,
-4.71238898038469,-2.35619449019234,0.),.UNSPECIFIED.)
CURVE()
GEOMETRIC_REPRESENTATION_ITEM()
RATIONAL_B_SPLINE_CURVE((1.,0.707106781186548,1.,0.707106781186548,1.,0.707106781186548,
1.,0.707106781186548,1.))
REPRESENTATION_ITEM('')
);
#451=(
BOUNDED_CURVE()
B_SPLINE_CURVE(1,(#1122,#1123),.UNSPECIFIED.,.F.,.F.)
B_SPLINE_CURVE_WITH_KNOTS((2,2),(8.6,10.),.UNSPECIFIED.)
CURVE()
GEOMETRIC_REPRESENTATION_ITEM()
RATIONAL_B_SPLINE_CURVE((1.,1.))
REPRESENTATION_ITEM('')
);
#452=B_SPLINE_CURVE_WITH_KNOTS('',1,(#884,#885),.UNSPECIFIED.,.F.,.F.,(2,
2),(0.,4.2),.UNSPECIFIED.);
#453=B_SPLINE_CURVE_WITH_KNOTS('',1,(#886,#887),.UNSPECIFIED.,.F.,.F.,(2,
2),(0.,9.8),.UNSPECIFIED.);
#454=B_SPLINE_CURVE_WITH_KNOTS('',1,(#888,#889),.UNSPECIFIED.,.F.,.F.,(2,
2),(0.,4.2),.UNSPECIFIED.);
#455=B_SPLINE_CURVE_WITH_KNOTS('',1,(#890,#891),.UNSPECIFIED.,.F.,.F.,(2,
2),(0.,9.8),.UNSPECIFIED.);
#456=B_SPLINE_CURVE_WITH_KNOTS('',1,(#892,#893),.UNSPECIFIED.,.F.,.F.,(2,
2),(4.2,13.7),.UNSPECIFIED.);
#457=B_SPLINE_CURVE_WITH_KNOTS('',1,(#894,#895),.UNSPECIFIED.,.F.,.F.,(2,
2),(0.,9.8),.UNSPECIFIED.);
#458=B_SPLINE_CURVE_WITH_KNOTS('',1,(#896,#897),.UNSPECIFIED.,.F.,.F.,(2,
2),(4.2,13.7),.UNSPECIFIED.);
#459=B_SPLINE_CURVE_WITH_KNOTS('',1,(#898,#899),.UNSPECIFIED.,.F.,.F.,(2,
2),(13.7,17.9),.UNSPECIFIED.);
#460=B_SPLINE_CURVE_WITH_KNOTS('',1,(#900,#901),.UNSPECIFIED.,.F.,.F.,(2,
2),(0.,9.8),.UNSPECIFIED.);
#461=B_SPLINE_CURVE_WITH_KNOTS('',1,(#902,#903),.UNSPECIFIED.,.F.,.F.,(2,
2),(13.7,17.9),.UNSPECIFIED.);
#462=B_SPLINE_CURVE_WITH_KNOTS('',1,(#904,#905),.UNSPECIFIED.,.F.,.F.,(2,
2),(17.9,27.4),.UNSPECIFIED.);
#463=B_SPLINE_CURVE_WITH_KNOTS('',1,(#906,#907),.UNSPECIFIED.,.F.,.F.,(2,
2),(17.9,27.4),.UNSPECIFIED.);
#464=B_SPLINE_CURVE_WITH_KNOTS('',1,(#908,#909),.UNSPECIFIED.,.F.,.F.,(2,
2),(0.,7.4),.UNSPECIFIED.);
#465=B_SPLINE_CURVE_WITH_KNOTS('',1,(#910,#911),.UNSPECIFIED.,.F.,.F.,(2,
2),(0.,10.),.UNSPECIFIED.);
#466=B_SPLINE_CURVE_WITH_KNOTS('',1,(#912,#913),.UNSPECIFIED.,.F.,.F.,(2,
2),(0.,7.4),.UNSPECIFIED.);
#467=B_SPLINE_CURVE_WITH_KNOTS('',1,(#914,#915),.UNSPECIFIED.,.F.,.F.,(2,
2),(0.,10.),.UNSPECIFIED.);
#468=B_SPLINE_CURVE_WITH_KNOTS('',1,(#916,#917),.UNSPECIFIED.,.F.,.F.,(2,
2),(7.4,17.4),.UNSPECIFIED.);
#469=B_SPLINE_CURVE_WITH_KNOTS('',1,(#918,#919),.UNSPECIFIED.,.F.,.F.,(2,
2),(0.,10.),.UNSPECIFIED.);
#470=B_SPLINE_CURVE_WITH_KNOTS('',1,(#920,#921),.UNSPECIFIED.,.F.,.F.,(2,
2),(7.4,17.4),.UNSPECIFIED.);
#471=B_SPLINE_CURVE_WITH_KNOTS('',1,(#922,#923),.UNSPECIFIED.,.F.,.F.,(2,
2),(17.4,24.8),.UNSPECIFIED.);
#472=B_SPLINE_CURVE_WITH_KNOTS('',1,(#924,#925),.UNSPECIFIED.,.F.,.F.,(2,
2),(0.,10.),.UNSPECIFIED.);
#473=B_SPLINE_CURVE_WITH_KNOTS('',1,(#926,#927),.UNSPECIFIED.,.F.,.F.,(2,
2),(17.4,24.8),.UNSPECIFIED.);
#474=B_SPLINE_CURVE_WITH_KNOTS('',1,(#928,#929),.UNSPECIFIED.,.F.,.F.,(2,
2),(24.8,34.8),.UNSPECIFIED.);
#475=B_SPLINE_CURVE_WITH_KNOTS('',1,(#930,#931),.UNSPECIFIED.,.F.,.F.,(2,
2),(24.8,34.8),.UNSPECIFIED.);
#476=B_SPLINE_CURVE_WITH_KNOTS('',1,(#932,#933),.UNSPECIFIED.,.F.,.F.,(2,
2),(0.,7.4),.UNSPECIFIED.);
#477=B_SPLINE_CURVE_WITH_KNOTS('',1,(#934,#935),.UNSPECIFIED.,.F.,.F.,(2,
2),(0.,10.),.UNSPECIFIED.);
#478=B_SPLINE_CURVE_WITH_KNOTS('',1,(#936,#937),.UNSPECIFIED.,.F.,.F.,(2,
2),(0.,7.4),.UNSPECIFIED.);
#479=B_SPLINE_CURVE_WITH_KNOTS('',1,(#938,#939),.UNSPECIFIED.,.F.,.F.,(2,
2),(0.,10.),.UNSPECIFIED.);
#480=B_SPLINE_CURVE_WITH_KNOTS('',1,(#940,#941),.UNSPECIFIED.,.F.,.F.,(2,
2),(7.4,17.4),.UNSPECIFIED.);
#481=B_SPLINE_CURVE_WITH_KNOTS('',1,(#942,#943),.UNSPECIFIED.,.F.,.F.,(2,
2),(0.,10.),.UNSPECIFIED.);
#482=B_SPLINE_CURVE_WITH_KNOTS('',1,(#944,#945),.UNSPECIFIED.,.F.,.F.,(2,
2),(7.4,17.4),.UNSPECIFIED.);
#483=B_SPLINE_CURVE_WITH_KNOTS('',1,(#946,#947),.UNSPECIFIED.,.F.,.F.,(2,
2),(17.4,24.8),.UNSPECIFIED.);
#484=B_SPLINE_CURVE_WITH_KNOTS('',1,(#948,#949),.UNSPECIFIED.,.F.,.F.,(2,
2),(0.,10.),.UNSPECIFIED.);
#485=B_SPLINE_CURVE_WITH_KNOTS('',1,(#950,#951),.UNSPECIFIED.,.F.,.F.,(2,
2),(17.4,24.8),.UNSPECIFIED.);
#486=B_SPLINE_CURVE_WITH_KNOTS('',1,(#952,#953),.UNSPECIFIED.,.F.,.F.,(2,
2),(24.8,34.8),.UNSPECIFIED.);
#487=B_SPLINE_CURVE_WITH_KNOTS('',1,(#954,#955),.UNSPECIFIED.,.F.,.F.,(2,
2),(24.8,34.8),.UNSPECIFIED.);
#488=B_SPLINE_CURVE_WITH_KNOTS('',1,(#956,#957),.UNSPECIFIED.,.F.,.F.,(2,
2),(0.,14.),.UNSPECIFIED.);
#489=B_SPLINE_CURVE_WITH_KNOTS('',1,(#958,#959),.UNSPECIFIED.,.F.,.F.,(2,
2),(0.,7.),.UNSPECIFIED.);
#490=B_SPLINE_CURVE_WITH_KNOTS('',1,(#960,#961),.UNSPECIFIED.,.F.,.F.,(2,
2),(0.,14.),.UNSPECIFIED.);
#491=B_SPLINE_CURVE_WITH_KNOTS('',1,(#962,#963),.UNSPECIFIED.,.F.,.F.,(2,
2),(0.,7.),.UNSPECIFIED.);
#492=B_SPLINE_CURVE_WITH_KNOTS('',1,(#964,#965),.UNSPECIFIED.,.F.,.F.,(2,
2),(14.,36.4),.UNSPECIFIED.);
#493=B_SPLINE_CURVE_WITH_KNOTS('',1,(#966,#967),.UNSPECIFIED.,.F.,.F.,(2,
2),(0.,7.),.UNSPECIFIED.);
#494=B_SPLINE_CURVE_WITH_KNOTS('',1,(#968,#969),.UNSPECIFIED.,.F.,.F.,(2,
2),(14.,36.4),.UNSPECIFIED.);
#495=B_SPLINE_CURVE_WITH_KNOTS('',1,(#970,#971),.UNSPECIFIED.,.F.,.F.,(2,
2),(36.4,50.4),.UNSPECIFIED.);
#496=B_SPLINE_CURVE_WITH_KNOTS('',1,(#972,#973),.UNSPECIFIED.,.F.,.F.,(2,
2),(0.,7.),.UNSPECIFIED.);
#497=B_SPLINE_CURVE_WITH_KNOTS('',1,(#974,#975),.UNSPECIFIED.,.F.,.F.,(2,
2),(36.4,50.4),.UNSPECIFIED.);
#498=B_SPLINE_CURVE_WITH_KNOTS('',1,(#976,#977),.UNSPECIFIED.,.F.,.F.,(2,
2),(50.4,72.8),.UNSPECIFIED.);
#499=B_SPLINE_CURVE_WITH_KNOTS('',1,(#978,#979),.UNSPECIFIED.,.F.,.F.,(2,
2),(50.4,72.8),.UNSPECIFIED.);
#500=B_SPLINE_CURVE_WITH_KNOTS('',1,(#1020,#1021),.UNSPECIFIED.,.F.,.F.,
(2,2),(0.,40.),.UNSPECIFIED.);
#501=B_SPLINE_CURVE_WITH_KNOTS('',1,(#1022,#1023),.UNSPECIFIED.,.F.,.F.,
(2,2),(0.,1.4),.UNSPECIFIED.);
#502=B_SPLINE_CURVE_WITH_KNOTS('',1,(#1024,#1025),.UNSPECIFIED.,.F.,.F.,
(2,2),(0.,40.),.UNSPECIFIED.);
#503=B_SPLINE_CURVE_WITH_KNOTS('',1,(#1026,#1027),.UNSPECIFIED.,.F.,.F.,
(2,2),(0.,1.4),.UNSPECIFIED.);
#504=B_SPLINE_CURVE_WITH_KNOTS('',1,(#1028,#1029),.UNSPECIFIED.,.F.,.F.,
(2,2),(40.,106.),.UNSPECIFIED.);
#505=B_SPLINE_CURVE_WITH_KNOTS('',1,(#1030,#1031),.UNSPECIFIED.,.F.,.F.,
(2,2),(0.,1.4),.UNSPECIFIED.);
#506=B_SPLINE_CURVE_WITH_KNOTS('',1,(#1032,#1033),.UNSPECIFIED.,.F.,.F.,
(2,2),(40.,106.),.UNSPECIFIED.);
#507=B_SPLINE_CURVE_WITH_KNOTS('',1,(#1034,#1035),.UNSPECIFIED.,.F.,.F.,
(2,2),(106.,146.),.UNSPECIFIED.);
#508=B_SPLINE_CURVE_WITH_KNOTS('',1,(#1036,#1037),.UNSPECIFIED.,.F.,.F.,
(2,2),(0.,1.4),.UNSPECIFIED.);
#509=B_SPLINE_CURVE_WITH_KNOTS('',1,(#1038,#1039),.UNSPECIFIED.,.F.,.F.,
(2,2),(106.,146.),.UNSPECIFIED.);
#510=B_SPLINE_CURVE_WITH_KNOTS('',1,(#1040,#1041),.UNSPECIFIED.,.F.,.F.,
(2,2),(146.,212.),.UNSPECIFIED.);
#511=B_SPLINE_CURVE_WITH_KNOTS('',1,(#1042,#1043),.UNSPECIFIED.,.F.,.F.,
(2,2),(146.,212.),.UNSPECIFIED.);
#512=B_SPLINE_CURVE_WITH_KNOTS('',1,(#1138,#1139),.UNSPECIFIED.,.F.,.F.,
(2,2),(0.,11.),.UNSPECIFIED.);
#513=B_SPLINE_CURVE_WITH_KNOTS('',1,(#1140,#1141),.UNSPECIFIED.,.F.,.F.,
(2,2),(0.,5.2),.UNSPECIFIED.);
#514=B_SPLINE_CURVE_WITH_KNOTS('',1,(#1142,#1143),.UNSPECIFIED.,.F.,.F.,
(2,2),(0.,11.),.UNSPECIFIED.);
#515=B_SPLINE_CURVE_WITH_KNOTS('',1,(#1144,#1145),.UNSPECIFIED.,.F.,.F.,
(2,2),(0.,5.2),.UNSPECIFIED.);
#516=B_SPLINE_CURVE_WITH_KNOTS('',1,(#1146,#1147),.UNSPECIFIED.,.F.,.F.,
(2,2),(11.,26.),.UNSPECIFIED.);
#517=B_SPLINE_CURVE_WITH_KNOTS('',1,(#1148,#1149),.UNSPECIFIED.,.F.,.F.,
(2,2),(0.,5.2),.UNSPECIFIED.);
#518=B_SPLINE_CURVE_WITH_KNOTS('',1,(#1150,#1151),.UNSPECIFIED.,.F.,.F.,
(2,2),(11.,26.),.UNSPECIFIED.);
#519=B_SPLINE_CURVE_WITH_KNOTS('',1,(#1152,#1153),.UNSPECIFIED.,.F.,.F.,
(2,2),(26.,37.),.UNSPECIFIED.);
#520=B_SPLINE_CURVE_WITH_KNOTS('',1,(#1154,#1155),.UNSPECIFIED.,.F.,.F.,
(2,2),(0.,5.2),.UNSPECIFIED.);
#521=B_SPLINE_CURVE_WITH_KNOTS('',1,(#1156,#1157),.UNSPECIFIED.,.F.,.F.,
(2,2),(26.,37.),.UNSPECIFIED.);
#522=B_SPLINE_CURVE_WITH_KNOTS('',1,(#1158,#1159),.UNSPECIFIED.,.F.,.F.,
(2,2),(37.,52.),.UNSPECIFIED.);
#523=B_SPLINE_CURVE_WITH_KNOTS('',1,(#1160,#1161),.UNSPECIFIED.,.F.,.F.,
(2,2),(37.,52.),.UNSPECIFIED.);
#524=VERTEX_POINT('',#832);
#525=VERTEX_POINT('',#833);
#526=VERTEX_POINT('',#834);
#527=VERTEX_POINT('',#835);
#528=VERTEX_POINT('',#836);
#529=VERTEX_POINT('',#837);
#530=VERTEX_POINT('',#838);
#531=VERTEX_POINT('',#839);
#532=VERTEX_POINT('',#840);
#533=VERTEX_POINT('',#841);
#534=VERTEX_POINT('',#842);
#535=VERTEX_POINT('',#843);
#536=VERTEX_POINT('',#844);
#537=VERTEX_POINT('',#845);
#538=VERTEX_POINT('',#846);
#539=VERTEX_POINT('',#847);
#540=VERTEX_POINT('',#848);
#541=VERTEX_POINT('',#849);
#542=VERTEX_POINT('',#850);
#543=VERTEX_POINT('',#851);
#544=VERTEX_POINT('',#852);
#545=VERTEX_POINT('',#853);
#546=VERTEX_POINT('',#854);
#547=VERTEX_POINT('',#855);
#548=VERTEX_POINT('',#856);
#549=VERTEX_POINT('',#857);
#550=VERTEX_POINT('',#858);
#551=VERTEX_POINT('',#859);
#552=VERTEX_POINT('',#860);
#553=VERTEX_POINT('',#861);
#554=VERTEX_POINT('',#862);
#555=VERTEX_POINT('',#863);
#556=VERTEX_POINT('',#864);
#557=VERTEX_POINT('',#865);
#558=VERTEX_POINT('',#866);
#559=VERTEX_POINT('',#867);
#560=VERTEX_POINT('',#868);
#561=VERTEX_POINT('',#869);
#562=VERTEX_POINT('',#870);
#563=VERTEX_POINT('',#871);
#564=VERTEX_POINT('',#872);
#565=VERTEX_POINT('',#873);
#566=VERTEX_POINT('',#874);
#567=VERTEX_POINT('',#875);
#568=VERTEX_POINT('',#876);
#569=VERTEX_POINT('',#877);
#570=VERTEX_POINT('',#878);
#571=VERTEX_POINT('',#879);
#572=VERTEX_POINT('',#880);
#573=VERTEX_POINT('',#881);
#574=VERTEX_POINT('',#882);
#575=VERTEX_POINT('',#883);
#576=VERTEX_POINT('',#1130);
#577=VERTEX_POINT('',#1131);
#578=VERTEX_POINT('',#1132);
#579=VERTEX_POINT('',#1133);
#580=VERTEX_POINT('',#1134);
#581=VERTEX_POINT('',#1135);
#582=VERTEX_POINT('',#1136);
#583=VERTEX_POINT('',#1137);
#584=CYLINDRICAL_SURFACE('',#732,5.);
#585=CYLINDRICAL_SURFACE('',#734,5.);
#586=CYLINDRICAL_SURFACE('',#742,1.5);
#587=CYLINDRICAL_SURFACE('',#743,1.5);
#588=CYLINDRICAL_SURFACE('',#744,1.49999999999999);
#589=CYLINDRICAL_SURFACE('',#745,1.50000000000001);
#590=PLANE('',#712);
#591=PLANE('',#713);
#592=PLANE('',#714);
#593=PLANE('',#715);
#594=PLANE('',#716);
#595=PLANE('',#717);
#596=PLANE('',#718);
#597=PLANE('',#719);
#598=PLANE('',#720);
#599=PLANE('',#721);
#600=PLANE('',#722);
#601=PLANE('',#723);
#602=PLANE('',#724);
#603=PLANE('',#725);
#604=PLANE('',#726);
#605=PLANE('',#727);
#606=PLANE('',#728);
#607=PLANE('',#729);
#608=PLANE('',#730);
#609=PLANE('',#731);
#610=PLANE('',#733);
#611=PLANE('',#735);
#612=PLANE('',#736);
#613=PLANE('',#737);
#614=PLANE('',#738);
#615=PLANE('',#739);
#616=PLANE('',#740);
#617=PLANE('',#741);
#618=PLANE('',#746);
#619=PLANE('',#747);
#620=PLANE('',#748);
#621=PLANE('',#749);
#622=PLANE('',#750);
#623=PLANE('',#751);
#624=SHAPE_DEFINITION_REPRESENTATION(#625,#710);
#625=PRODUCT_DEFINITION_SHAPE('Document','',#627);
#626=PRODUCT_DEFINITION_CONTEXT('3D Mechanical Parts',#699,'design');
#627=PRODUCT_DEFINITION('A','First version',#669,#626);
#628=DATE_TIME_ROLE('classification_date');
#629=DATE_TIME_ROLE('creation_date');
#630=APPLIED_DATE_AND_TIME_ASSIGNMENT(#654,#628,(#633));
#631=APPLIED_DATE_AND_TIME_ASSIGNMENT(#656,#629,(#627));
#632=SECURITY_CLASSIFICATION_LEVEL('unclassified');
#633=SECURITY_CLASSIFICATION('A','Security for version',#632);
#634=APPLIED_SECURITY_CLASSIFICATION_ASSIGNMENT(#633,(#669));
#635=APPROVAL_ROLE('Version approval');
#636=APPROVAL_ROLE('Version Security approval');
#637=APPROVAL_ROLE('Definition approval');
#638=APPROVAL_PERSON_ORGANIZATION(#687,#663,#635);
#639=APPROVAL_PERSON_ORGANIZATION(#688,#664,#636);
#640=APPROVAL_PERSON_ORGANIZATION(#691,#665,#637);
#641=COORDINATED_UNIVERSAL_TIME_OFFSET(5,0,.BEHIND.);
#642=LOCAL_TIME(0,0,0.,#641);
#643=LOCAL_TIME(0,0,0.,#641);
#644=LOCAL_TIME(0,0,0.,#641);
#645=LOCAL_TIME(0,0,0.,#641);
#646=LOCAL_TIME(0,0,0.,#641);
#647=CALENDAR_DATE(1999,1,1);
#648=CALENDAR_DATE(1999,1,1);
#649=CALENDAR_DATE(1999,1,1);
#650=CALENDAR_DATE(1999,1,1);
#651=CALENDAR_DATE(1999,1,1);
#652=DATE_AND_TIME(#647,#642);
#653=DATE_AND_TIME(#648,#643);
#654=DATE_AND_TIME(#649,#644);
#655=DATE_AND_TIME(#650,#645);
#656=DATE_AND_TIME(#651,#646);
#657=APPROVAL_DATE_TIME(#652,#663);
#658=APPROVAL_DATE_TIME(#653,#664);
#659=APPROVAL_DATE_TIME(#655,#665);
#660=APPROVAL_STATUS('not_yet_approved');
#661=APPROVAL_STATUS('not_yet_approved');
#662=APPROVAL_STATUS('approved');
#663=APPROVAL(#660,'Version approval');
#664=APPROVAL(#661,'Version Security approval');
#665=APPROVAL(#662,'Definition approval');
#666=APPLIED_APPROVAL_ASSIGNMENT(#663,(#669));
#667=APPLIED_APPROVAL_ASSIGNMENT(#664,(#633));
#668=APPLIED_APPROVAL_ASSIGNMENT(#665,(#627));
#669=PRODUCT_DEFINITION_FORMATION_WITH_SPECIFIED_SOURCE('A',
'First version',#701,.MADE.);
#670=PERSON_AND_ORGANIZATION_ROLE('design_owner');
#671=PERSON_AND_ORGANIZATION_ROLE('creator');
#672=PERSON_AND_ORGANIZATION_ROLE('design_supplier');
#673=PERSON_AND_ORGANIZATION_ROLE('classification_officer');
#674=PERSON_AND_ORGANIZATION_ROLE('creator');
#675=ORGANIZATION('STI','lab','lab');
#676=ORGANIZATION('STI','unknown','unknown');
#677=ORGANIZATION('STI','unknown','unknown');
#678=ORGANIZATION('STI','unknown','unknown');
#679=ORGANIZATION('STI','unknown','unknown');
#680=ORGANIZATION('STI','unknown','unknown');
#681=ORGANIZATION('STI','unknown','unknown');
#682=PERSON('1','Box','vc60',$,$,$);
#683=PERSON('2','last','first',$,$,$);
#684=PERSON('3','President','Mr.',$,$,$);
#685=PERSON_AND_ORGANIZATION(#682,#675);
#686=PERSON_AND_ORGANIZATION(#683,#676);
#687=PERSON_AND_ORGANIZATION(#684,#677);
#688=PERSON_AND_ORGANIZATION(#684,#678);
#689=PERSON_AND_ORGANIZATION(#684,#679);
#690=PERSON_AND_ORGANIZATION(#683,#680);
#691=PERSON_AND_ORGANIZATION(#684,#681);
#692=APPLIED_PERSON_AND_ORGANIZATION_ASSIGNMENT(#685,#670,(#701));
#693=APPLIED_PERSON_AND_ORGANIZATION_ASSIGNMENT(#686,#671,(#669));
#694=APPLIED_PERSON_AND_ORGANIZATION_ASSIGNMENT(#686,#672,(#669));
#695=APPLIED_PERSON_AND_ORGANIZATION_ASSIGNMENT(#689,#673,(#633));
#696=APPLIED_PERSON_AND_ORGANIZATION_ASSIGNMENT(#690,#674,(#627));
#697=PRODUCT_RELATED_PRODUCT_CATEGORY('detail','detail',(#701));
#698=APPLICATION_PROTOCOL_DEFINITION('International Standard',
'config_control_design',1994,#699);
#699=APPLICATION_CONTEXT(
'configuration controlled 3d designs of mechanical parts and assemblie
s');
#700=PRODUCT_CONTEXT('3D Mechanical Parts',#699,'mechanical');
#701=PRODUCT('Document','Document','',(#700));
#702=(
LENGTH_UNIT()
NAMED_UNIT(*)
SI_UNIT(.MILLI.,.METRE.)
);
#703=(
NAMED_UNIT(*)
PLANE_ANGLE_UNIT()
SI_UNIT($,.RADIAN.)
);
#704=DIMENSIONAL_EXPONENTS(0.,0.,0.,0.,0.,0.,0.);
#705=PLANE_ANGLE_MEASURE_WITH_UNIT(PLANE_ANGLE_MEASURE(0.01745329252),#703);
#706=(
CONVERSION_BASED_UNIT('DEGREES',#705)
NAMED_UNIT(#704)
PLANE_ANGLE_UNIT()
);
#707=(
NAMED_UNIT(*)
SI_UNIT($,.STERADIAN.)
SOLID_ANGLE_UNIT()
);
#708=UNCERTAINTY_MEASURE_WITH_UNIT(LENGTH_MEASURE(0.001),#702,
'DISTANCE_ACCURACY_VALUE',
'Maximum model space distance between geometric entities at asserted c
onnectivities');
#709=(
GEOMETRIC_REPRESENTATION_CONTEXT(3)
GLOBAL_UNCERTAINTY_ASSIGNED_CONTEXT((#708))
GLOBAL_UNIT_ASSIGNED_CONTEXT((#707,#706,#702))
REPRESENTATION_CONTEXT('ID1','3D')
);
#710=SHAPE_REPRESENTATION('Document',(#711,#752),#709);
#711=AXIS2_PLACEMENT_3D('',#797,#753,#754);
#712=AXIS2_PLACEMENT_3D('',#798,#755,$);
#713=AXIS2_PLACEMENT_3D('',#799,#756,$);
#714=AXIS2_PLACEMENT_3D('',#800,#757,$);
#715=AXIS2_PLACEMENT_3D('',#801,#758,$);
#716=AXIS2_PLACEMENT_3D('',#802,#759,$);
#717=AXIS2_PLACEMENT_3D('',#803,#760,$);
#718=AXIS2_PLACEMENT_3D('',#804,#761,$);
#719=AXIS2_PLACEMENT_3D('',#805,#762,$);
#720=AXIS2_PLACEMENT_3D('',#806,#763,$);
#721=AXIS2_PLACEMENT_3D('',#807,#764,$);
#722=AXIS2_PLACEMENT_3D('',#808,#765,$);
#723=AXIS2_PLACEMENT_3D('',#809,#766,$);
#724=AXIS2_PLACEMENT_3D('',#810,#767,$);
#725=AXIS2_PLACEMENT_3D('',#811,#768,$);
#726=AXIS2_PLACEMENT_3D('',#812,#769,$);
#727=AXIS2_PLACEMENT_3D('',#813,#770,$);
#728=AXIS2_PLACEMENT_3D('',#814,#771,$);
#729=AXIS2_PLACEMENT_3D('',#815,#772,$);
#730=AXIS2_PLACEMENT_3D('',#816,#773,$);
#731=AXIS2_PLACEMENT_3D('',#817,#774,$);
#732=AXIS2_PLACEMENT_3D('',#818,#775,$);
#733=AXIS2_PLACEMENT_3D('',#819,#776,$);
#734=AXIS2_PLACEMENT_3D('',#820,#777,$);
#735=AXIS2_PLACEMENT_3D('',#821,#778,$);
#736=AXIS2_PLACEMENT_3D('',#822,#779,$);
#737=AXIS2_PLACEMENT_3D('',#823,#780,$);
#738=AXIS2_PLACEMENT_3D('',#824,#781,$);
#739=AXIS2_PLACEMENT_3D('',#825,#782,$);
#740=AXIS2_PLACEMENT_3D('',#826,#783,$);
#741=AXIS2_PLACEMENT_3D('',#827,#784,$);
#742=AXIS2_PLACEMENT_3D('',#828,#785,$);
#743=AXIS2_PLACEMENT_3D('',#829,#786,$);
#744=AXIS2_PLACEMENT_3D('',#830,#787,$);
#745=AXIS2_PLACEMENT_3D('',#831,#788,$);
#746=AXIS2_PLACEMENT_3D('',#1124,#789,$);
#747=AXIS2_PLACEMENT_3D('',#1125,#790,$);
#748=AXIS2_PLACEMENT_3D('',#1126,#791,$);
#749=AXIS2_PLACEMENT_3D('',#1127,#792,$);
#750=AXIS2_PLACEMENT_3D('',#1128,#793,$);
#751=AXIS2_PLACEMENT_3D('',#1129,#794,$);
#752=AXIS2_PLACEMENT_3D('',#1162,#795,#796);
#753=DIRECTION('',(0.,0.,1.));
#754=DIRECTION('',(1.,0.,0.));
#755=DIRECTION('',(-1.,0.,0.));
#756=DIRECTION('',(0.,-1.,0.));
#757=DIRECTION('',(1.,0.,0.));
#758=DIRECTION('',(0.,1.,0.));
#759=DIRECTION('',(0.,0.,1.));
#760=DIRECTION('',(0.,-1.,0.));
#761=DIRECTION('',(1.,0.,0.));
#762=DIRECTION('',(0.,1.,0.));
#763=DIRECTION('',(-1.,0.,0.));
#764=DIRECTION('',(0.,0.,1.));
#765=DIRECTION('',(0.,-1.,0.));
#766=DIRECTION('',(1.,0.,0.));
#767=DIRECTION('',(0.,1.,0.));
#768=DIRECTION('',(-1.,0.,0.));
#769=DIRECTION('',(0.,0.,1.));
#770=DIRECTION('',(-1.,0.,0.));
#771=DIRECTION('',(0.,-1.,0.));
#772=DIRECTION('',(1.,0.,0.));
#773=DIRECTION('',(0.,1.,0.));
#774=DIRECTION('',(0.,0.,1.));
#775=DIRECTION('',(0.,0.,1.));
#776=DIRECTION('',(0.,0.,1.));
#777=DIRECTION('',(0.,0.,1.));
#778=DIRECTION('',(0.,0.,1.));
#779=DIRECTION('',(-1.,0.,0.));
#780=DIRECTION('',(0.,-1.,0.));
#781=DIRECTION('',(1.,0.,0.));
#782=DIRECTION('',(0.,1.,0.));
#783=DIRECTION('',(0.,0.,-1.));
#784=DIRECTION('',(0.,0.,1.));
#785=DIRECTION('',(0.,0.,1.));
#786=DIRECTION('',(0.,0.,1.));
#787=DIRECTION('',(0.,0.,1.));
#788=DIRECTION('',(0.,0.,1.));
#789=DIRECTION('',(-1.,0.,0.));
#790=DIRECTION('',(0.,-1.,0.));
#791=DIRECTION('',(1.,0.,0.));
#792=DIRECTION('',(0.,1.,0.));
#793=DIRECTION('',(0.,0.,-1.));
#794=DIRECTION('',(0.,0.,1.));
#795=DIRECTION('',(0.,0.,1.));
#796=DIRECTION('',(1.,0.,0.));
#797=CARTESIAN_POINT('',(0.,0.,0.));
#798=CARTESIAN_POINT('',(28.2,-4.4,1.4));
#799=CARTESIAN_POINT('',(28.2,-8.6,1.4));
#800=CARTESIAN_POINT('',(37.7,-8.6,1.4));
#801=CARTESIAN_POINT('',(37.7,-4.4,1.4));
#802=CARTESIAN_POINT('',(28.2,-4.4,11.2));
#803=CARTESIAN_POINT('',(58.2,-29.,1.4));
#804=CARTESIAN_POINT('',(65.6,-29.,1.4));
#805=CARTESIAN_POINT('',(65.6,-19.,1.4));
#806=CARTESIAN_POINT('',(58.2,-19.,1.4));
#807=CARTESIAN_POINT('',(58.2,-29.,11.4));
#808=CARTESIAN_POINT('',(0.400000000000001,-29.,1.4));
#809=CARTESIAN_POINT('',(7.8,-29.,1.4));
#810=CARTESIAN_POINT('',(7.8,-19.,1.4));
#811=CARTESIAN_POINT('',(0.400000000000001,-19.,1.4));
#812=CARTESIAN_POINT('',(0.400000000000001,-29.,11.4));
#813=CARTESIAN_POINT('',(21.8,-29.6,1.4));
#814=CARTESIAN_POINT('',(21.8,-43.6,1.4));
#815=CARTESIAN_POINT('',(44.2,-43.6,1.4));
#816=CARTESIAN_POINT('',(44.2,-29.6,1.4));
#817=CARTESIAN_POINT('',(21.8,-29.6,8.4));
#818=CARTESIAN_POINT('',(14.,-12.,6.9));
#819=CARTESIAN_POINT('',(7.75,-18.25,12.4));
#820=CARTESIAN_POINT('',(54.5,-12.,6.9));
#821=CARTESIAN_POINT('',(48.25,-18.25,12.4));
#822=CARTESIAN_POINT('',(0.,-4.,0.));
#823=CARTESIAN_POINT('',(0.,-44.,0.));
#824=CARTESIAN_POINT('',(66.,-44.,0.));
#825=CARTESIAN_POINT('',(66.,-4.,0.));
#826=CARTESIAN_POINT('',(0.,-4.,0.));
#827=CARTESIAN_POINT('',(0.,-4.,1.4));
#828=CARTESIAN_POINT('',(2.5,-6.5,0.9));
#829=CARTESIAN_POINT('',(2.5,-41.5,0.9));
#830=CARTESIAN_POINT('',(63.5,-41.5,0.9));
#831=CARTESIAN_POINT('',(63.5,-6.50000000000001,0.9));
#832=CARTESIAN_POINT('',(28.2,-4.4,1.4));
#833=CARTESIAN_POINT('',(28.2,-8.6,1.4));
#834=CARTESIAN_POINT('',(28.2,-8.6,11.2));
#835=CARTESIAN_POINT('',(28.2,-4.4,11.2));
#836=CARTESIAN_POINT('',(37.7,-8.6,1.4));
#837=CARTESIAN_POINT('',(37.7,-8.6,11.2));
#838=CARTESIAN_POINT('',(37.7,-4.4,1.4));
#839=CARTESIAN_POINT('',(37.7,-4.4,11.2));
#840=CARTESIAN_POINT('',(58.2,-29.,1.4));
#841=CARTESIAN_POINT('',(65.6,-29.,1.4));
#842=CARTESIAN_POINT('',(65.6,-29.,11.4));
#843=CARTESIAN_POINT('',(58.2,-29.,11.4));
#844=CARTESIAN_POINT('',(65.6,-19.,1.4));
#845=CARTESIAN_POINT('',(65.6,-19.,11.4));
#846=CARTESIAN_POINT('',(58.2,-19.,1.4));
#847=CARTESIAN_POINT('',(58.2,-19.,11.4));
#848=CARTESIAN_POINT('',(0.400000000000001,-29.,1.4));
#849=CARTESIAN_POINT('',(7.8,-29.,1.4));
#850=CARTESIAN_POINT('',(7.8,-29.,11.4));
#851=CARTESIAN_POINT('',(0.400000000000001,-29.,11.4));
#852=CARTESIAN_POINT('',(7.8,-19.,1.4));
#853=CARTESIAN_POINT('',(7.8,-19.,11.4));
#854=CARTESIAN_POINT('',(0.400000000000001,-19.,1.4));
#855=CARTESIAN_POINT('',(0.400000000000001,-19.,11.4));
#856=CARTESIAN_POINT('',(21.8,-29.6,1.4));
#857=CARTESIAN_POINT('',(21.8,-43.6,1.4));
#858=CARTESIAN_POINT('',(21.8,-43.6,8.4));
#859=CARTESIAN_POINT('',(21.8,-29.6,8.4));
#860=CARTESIAN_POINT('',(44.2,-43.6,1.4));
#861=CARTESIAN_POINT('',(44.2,-43.6,8.4));
#862=CARTESIAN_POINT('',(44.2,-29.6,1.4));
#863=CARTESIAN_POINT('',(44.2,-29.6,8.4));
#864=CARTESIAN_POINT('',(19.,-12.,1.4));
#865=CARTESIAN_POINT('',(19.,-12.,12.4));
#866=CARTESIAN_POINT('',(59.5,-12.,1.4));
#867=CARTESIAN_POINT('',(59.5,-12.,12.4));
#868=CARTESIAN_POINT('',(0.,-4.,0.));
#869=CARTESIAN_POINT('',(0.,-44.,0.));
#870=CARTESIAN_POINT('',(0.,-44.,1.4));
#871=CARTESIAN_POINT('',(0.,-4.,1.4));
#872=CARTESIAN_POINT('',(66.,-44.,0.));
#873=CARTESIAN_POINT('',(66.,-44.,1.4));
#874=CARTESIAN_POINT('',(66.,-4.,0.));
#875=CARTESIAN_POINT('',(66.,-4.,1.4));
#876=CARTESIAN_POINT('',(4.,-6.5,8.88178419700125E-16));
#877=CARTESIAN_POINT('',(4.,-6.5,1.4));
#878=CARTESIAN_POINT('',(4.,-41.5,8.88178419700125E-16));
#879=CARTESIAN_POINT('',(4.,-41.5,1.4));
#880=CARTESIAN_POINT('',(65.,-41.5,8.88178419700125E-16));
#881=CARTESIAN_POINT('',(65.,-41.5,1.4));
#882=CARTESIAN_POINT('',(65.,-6.5,8.88178419700125E-16));
#883=CARTESIAN_POINT('',(65.,-6.5,1.4));
#884=CARTESIAN_POINT('',(28.2,-4.4,1.4));
#885=CARTESIAN_POINT('',(28.2,-8.6,1.4));
#886=CARTESIAN_POINT('',(28.2,-8.6,1.4));
#887=CARTESIAN_POINT('',(28.2,-8.6,11.2));
#888=CARTESIAN_POINT('',(28.2,-4.4,11.2));
#889=CARTESIAN_POINT('',(28.2,-8.6,11.2));
#890=CARTESIAN_POINT('',(28.2,-4.4,1.4));
#891=CARTESIAN_POINT('',(28.2,-4.4,11.2));
#892=CARTESIAN_POINT('',(28.2,-8.6,1.4));
#893=CARTESIAN_POINT('',(37.7,-8.6,1.4));
#894=CARTESIAN_POINT('',(37.7,-8.6,1.4));
#895=CARTESIAN_POINT('',(37.7,-8.6,11.2));
#896=CARTESIAN_POINT('',(28.2,-8.6,11.2));
#897=CARTESIAN_POINT('',(37.7,-8.6,11.2));
#898=CARTESIAN_POINT('',(37.7,-8.6,1.4));
#899=CARTESIAN_POINT('',(37.7,-4.4,1.4));
#900=CARTESIAN_POINT('',(37.7,-4.4,1.4));
#901=CARTESIAN_POINT('',(37.7,-4.4,11.2));
#902=CARTESIAN_POINT('',(37.7,-8.6,11.2));
#903=CARTESIAN_POINT('',(37.7,-4.4,11.2));
#904=CARTESIAN_POINT('',(37.7,-4.4,1.4));
#905=CARTESIAN_POINT('',(28.2,-4.4,1.4));
#906=CARTESIAN_POINT('',(37.7,-4.4,11.2));
#907=CARTESIAN_POINT('',(28.2,-4.4,11.2));
#908=CARTESIAN_POINT('',(58.2,-29.,1.4));
#909=CARTESIAN_POINT('',(65.6,-29.,1.4));
#910=CARTESIAN_POINT('',(65.6,-29.,1.4));
#911=CARTESIAN_POINT('',(65.6,-29.,11.4));
#912=CARTESIAN_POINT('',(58.2,-29.,11.4));
#913=CARTESIAN_POINT('',(65.6,-29.,11.4));
#914=CARTESIAN_POINT('',(58.2,-29.,1.4));
#915=CARTESIAN_POINT('',(58.2,-29.,11.4));
#916=CARTESIAN_POINT('',(65.6,-29.,1.4));
#917=CARTESIAN_POINT('',(65.6,-19.,1.4));
#918=CARTESIAN_POINT('',(65.6,-19.,1.4));
#919=CARTESIAN_POINT('',(65.6,-19.,11.4));
#920=CARTESIAN_POINT('',(65.6,-29.,11.4));
#921=CARTESIAN_POINT('',(65.6,-19.,11.4));
#922=CARTESIAN_POINT('',(65.6,-19.,1.4));
#923=CARTESIAN_POINT('',(58.2,-19.,1.4));
#924=CARTESIAN_POINT('',(58.2,-19.,1.4));
#925=CARTESIAN_POINT('',(58.2,-19.,11.4));
#926=CARTESIAN_POINT('',(65.6,-19.,11.4));
#927=CARTESIAN_POINT('',(58.2,-19.,11.4));
#928=CARTESIAN_POINT('',(58.2,-19.,1.4));
#929=CARTESIAN_POINT('',(58.2,-29.,1.4));
#930=CARTESIAN_POINT('',(58.2,-19.,11.4));
#931=CARTESIAN_POINT('',(58.2,-29.,11.4));
#932=CARTESIAN_POINT('',(0.400000000000001,-29.,1.4));
#933=CARTESIAN_POINT('',(7.8,-29.,1.4));
#934=CARTESIAN_POINT('',(7.8,-29.,1.4));
#935=CARTESIAN_POINT('',(7.8,-29.,11.4));
#936=CARTESIAN_POINT('',(0.400000000000001,-29.,11.4));
#937=CARTESIAN_POINT('',(7.8,-29.,11.4));
#938=CARTESIAN_POINT('',(0.400000000000001,-29.,1.4));
#939=CARTESIAN_POINT('',(0.400000000000001,-29.,11.4));
#940=CARTESIAN_POINT('',(7.8,-29.,1.4));
#941=CARTESIAN_POINT('',(7.8,-19.,1.4));
#942=CARTESIAN_POINT('',(7.8,-19.,1.4));
#943=CARTESIAN_POINT('',(7.8,-19.,11.4));
#944=CARTESIAN_POINT('',(7.8,-29.,11.4));
#945=CARTESIAN_POINT('',(7.8,-19.,11.4));
#946=CARTESIAN_POINT('',(7.8,-19.,1.4));
#947=CARTESIAN_POINT('',(0.400000000000001,-19.,1.4));
#948=CARTESIAN_POINT('',(0.400000000000001,-19.,1.4));
#949=CARTESIAN_POINT('',(0.400000000000001,-19.,11.4));
#950=CARTESIAN_POINT('',(7.8,-19.,11.4));
#951=CARTESIAN_POINT('',(0.400000000000001,-19.,11.4));
#952=CARTESIAN_POINT('',(0.400000000000001,-19.,1.4));
#953=CARTESIAN_POINT('',(0.400000000000001,-29.,1.4));
#954=CARTESIAN_POINT('',(0.400000000000001,-19.,11.4));
#955=CARTESIAN_POINT('',(0.400000000000001,-29.,11.4));
#956=CARTESIAN_POINT('',(21.8,-29.6,1.4));
#957=CARTESIAN_POINT('',(21.8,-43.6,1.4));
#958=CARTESIAN_POINT('',(21.8,-43.6,1.4));
#959=CARTESIAN_POINT('',(21.8,-43.6,8.4));
#960=CARTESIAN_POINT('',(21.8,-29.6,8.4));
#961=CARTESIAN_POINT('',(21.8,-43.6,8.4));
#962=CARTESIAN_POINT('',(21.8,-29.6,1.4));
#963=CARTESIAN_POINT('',(21.8,-29.6,8.4));
#964=CARTESIAN_POINT('',(21.8,-43.6,1.4));
#965=CARTESIAN_POINT('',(44.2,-43.6,1.4));
#966=CARTESIAN_POINT('',(44.2,-43.6,1.4));
#967=CARTESIAN_POINT('',(44.2,-43.6,8.4));
#968=CARTESIAN_POINT('',(21.8,-43.6,8.4));
#969=CARTESIAN_POINT('',(44.2,-43.6,8.4));
#970=CARTESIAN_POINT('',(44.2,-43.6,1.4));
#971=CARTESIAN_POINT('',(44.2,-29.6,1.4));
#972=CARTESIAN_POINT('',(44.2,-29.6,1.4));
#973=CARTESIAN_POINT('',(44.2,-29.6,8.4));
#974=CARTESIAN_POINT('',(44.2,-43.6,8.4));
#975=CARTESIAN_POINT('',(44.2,-29.6,8.4));
#976=CARTESIAN_POINT('',(44.2,-29.6,1.4));
#977=CARTESIAN_POINT('',(21.8,-29.6,1.4));
#978=CARTESIAN_POINT('',(44.2,-29.6,8.4));
#979=CARTESIAN_POINT('',(21.8,-29.6,8.4));
#980=CARTESIAN_POINT('',(19.,-12.,1.4));
#981=CARTESIAN_POINT('',(19.,-7.,1.4));
#982=CARTESIAN_POINT('',(14.,-7.,1.4));
#983=CARTESIAN_POINT('',(9.,-7.,1.4));
#984=CARTESIAN_POINT('',(9.,-12.,1.4));
#985=CARTESIAN_POINT('',(9.,-17.,1.4));
#986=CARTESIAN_POINT('',(14.,-17.,1.4));
#987=CARTESIAN_POINT('',(19.,-17.,1.4));
#988=CARTESIAN_POINT('',(19.,-12.,1.4));
#989=CARTESIAN_POINT('',(19.,-12.,1.4));
#990=CARTESIAN_POINT('',(19.,-12.,12.4));
#991=CARTESIAN_POINT('',(19.,-12.,12.4));
#992=CARTESIAN_POINT('',(19.,-7.,12.4));
#993=CARTESIAN_POINT('',(14.,-7.,12.4));
#994=CARTESIAN_POINT('',(9.,-7.,12.4));
#995=CARTESIAN_POINT('',(9.,-12.,12.4));
#996=CARTESIAN_POINT('',(9.,-17.,12.4));
#997=CARTESIAN_POINT('',(14.,-17.,12.4));
#998=CARTESIAN_POINT('',(19.,-17.,12.4));
#999=CARTESIAN_POINT('',(19.,-12.,12.4));
#1000=CARTESIAN_POINT('',(59.5,-12.,1.4));
#1001=CARTESIAN_POINT('',(59.5,-7.,1.4));
#1002=CARTESIAN_POINT('',(54.5,-7.,1.4));
#1003=CARTESIAN_POINT('',(49.5,-7.,1.4));
#1004=CARTESIAN_POINT('',(49.5,-12.,1.4));
#1005=CARTESIAN_POINT('',(49.5,-17.,1.4));
#1006=CARTESIAN_POINT('',(54.5,-17.,1.4));
#1007=CARTESIAN_POINT('',(59.5,-17.,1.4));
#1008=CARTESIAN_POINT('',(59.5,-12.,1.4));
#1009=CARTESIAN_POINT('',(59.5,-12.,1.4));
#1010=CARTESIAN_POINT('',(59.5,-12.,12.4));
#1011=CARTESIAN_POINT('',(59.5,-12.,12.4));
#1012=CARTESIAN_POINT('',(59.5,-7.,12.4));
#1013=CARTESIAN_POINT('',(54.5,-7.,12.4));
#1014=CARTESIAN_POINT('',(49.5,-7.,12.4));
#1015=CARTESIAN_POINT('',(49.5,-12.,12.4));
#1016=CARTESIAN_POINT('',(49.5,-17.,12.4));
#1017=CARTESIAN_POINT('',(54.5,-17.,12.4));
#1018=CARTESIAN_POINT('',(59.5,-17.,12.4));
#1019=CARTESIAN_POINT('',(59.5,-12.,12.4));
#1020=CARTESIAN_POINT('',(0.,-4.,0.));
#1021=CARTESIAN_POINT('',(0.,-44.,0.));
#1022=CARTESIAN_POINT('',(0.,-44.,0.));
#1023=CARTESIAN_POINT('',(0.,-44.,1.4));
#1024=CARTESIAN_POINT('',(0.,-4.,1.4));
#1025=CARTESIAN_POINT('',(0.,-44.,1.4));
#1026=CARTESIAN_POINT('',(0.,-4.,0.));
#1027=CARTESIAN_POINT('',(0.,-4.,1.4));
#1028=CARTESIAN_POINT('',(0.,-44.,0.));
#1029=CARTESIAN_POINT('',(66.,-44.,0.));
#1030=CARTESIAN_POINT('',(66.,-44.,0.));
#1031=CARTESIAN_POINT('',(66.,-44.,1.4));
#1032=CARTESIAN_POINT('',(0.,-44.,1.4));
#1033=CARTESIAN_POINT('',(66.,-44.,1.4));
#1034=CARTESIAN_POINT('',(66.,-44.,0.));
#1035=CARTESIAN_POINT('',(66.,-4.,0.));
#1036=CARTESIAN_POINT('',(66.,-4.,0.));
#1037=CARTESIAN_POINT('',(66.,-4.,1.4));
#1038=CARTESIAN_POINT('',(66.,-44.,1.4));
#1039=CARTESIAN_POINT('',(66.,-4.,1.4));
#1040=CARTESIAN_POINT('',(66.,-4.,0.));
#1041=CARTESIAN_POINT('',(0.,-4.,0.));
#1042=CARTESIAN_POINT('',(66.,-4.,1.4));
#1043=CARTESIAN_POINT('',(0.,-4.,1.4));
#1044=CARTESIAN_POINT('',(4.,-6.5,1.77635683940025E-15));
#1045=CARTESIAN_POINT('',(4.,-8.,1.25607396694702E-15));
#1046=CARTESIAN_POINT('',(2.5,-8.,1.77635683940025E-15));
#1047=CARTESIAN_POINT('',(1.,-8.,1.25607396694702E-15));
#1048=CARTESIAN_POINT('',(1.,-6.5,1.77635683940025E-15));
#1049=CARTESIAN_POINT('',(1.,-5.,1.25607396694702E-15));
#1050=CARTESIAN_POINT('',(2.5,-5.,1.77635683940025E-15));
#1051=CARTESIAN_POINT('',(4.,-5.,1.25607396694702E-15));
#1052=CARTESIAN_POINT('',(4.,-6.5,1.77635683940025E-15));
#1053=CARTESIAN_POINT('',(4.,-6.5,1.4));
#1054=CARTESIAN_POINT('',(4.,-8.,1.4));
#1055=CARTESIAN_POINT('',(2.5,-8.,1.4));
#1056=CARTESIAN_POINT('',(1.,-8.,1.4));
#1057=CARTESIAN_POINT('',(1.,-6.5,1.4));
#1058=CARTESIAN_POINT('',(1.,-5.,1.4));
#1059=CARTESIAN_POINT('',(2.5,-5.,1.4));
#1060=CARTESIAN_POINT('',(4.,-5.,1.4));
#1061=CARTESIAN_POINT('',(4.,-6.5,1.4));
#1062=CARTESIAN_POINT('',(4.,-6.5,8.88178419700125E-16));
#1063=CARTESIAN_POINT('',(4.,-6.5,1.4));
#1064=CARTESIAN_POINT('',(4.,-41.5,1.77635683940025E-15));
#1065=CARTESIAN_POINT('',(4.,-43.,1.25607396694702E-15));
#1066=CARTESIAN_POINT('',(2.5,-43.,1.77635683940025E-15));
#1067=CARTESIAN_POINT('',(1.,-43.,1.25607396694702E-15));
#1068=CARTESIAN_POINT('',(1.,-41.5,1.77635683940025E-15));
#1069=CARTESIAN_POINT('',(1.,-40.,1.25607396694702E-15));
#1070=CARTESIAN_POINT('',(2.5,-40.,1.77635683940025E-15));
#1071=CARTESIAN_POINT('',(4.,-40.,1.25607396694702E-15));
#1072=CARTESIAN_POINT('',(4.,-41.5,1.77635683940025E-15));
#1073=CARTESIAN_POINT('',(4.,-41.5,1.4));
#1074=CARTESIAN_POINT('',(4.,-43.,1.4));
#1075=CARTESIAN_POINT('',(2.5,-43.,1.4));
#1076=CARTESIAN_POINT('',(1.,-43.,1.4));
#1077=CARTESIAN_POINT('',(1.,-41.5,1.4));
#1078=CARTESIAN_POINT('',(1.,-40.,1.4));
#1079=CARTESIAN_POINT('',(2.5,-40.,1.4));
#1080=CARTESIAN_POINT('',(4.,-40.,1.4));
#1081=CARTESIAN_POINT('',(4.,-41.5,1.4));
#1082=CARTESIAN_POINT('',(4.,-41.5,8.88178419700125E-16));
#1083=CARTESIAN_POINT('',(4.,-41.5,1.4));
#1084=CARTESIAN_POINT('',(65.,-41.5,1.77635683940025E-15));
#1085=CARTESIAN_POINT('',(65.,-43.,1.25607396694702E-15));
#1086=CARTESIAN_POINT('',(63.5,-43.,1.77635683940025E-15));
#1087=CARTESIAN_POINT('',(62.,-43.,1.25607396694702E-15));
#1088=CARTESIAN_POINT('',(62.,-41.5,1.77635683940025E-15));
#1089=CARTESIAN_POINT('',(62.,-40.,1.25607396694702E-15));
#1090=CARTESIAN_POINT('',(63.5,-40.,1.77635683940025E-15));
#1091=CARTESIAN_POINT('',(65.,-40.,1.25607396694702E-15));
#1092=CARTESIAN_POINT('',(65.,-41.5,1.77635683940025E-15));
#1093=CARTESIAN_POINT('',(65.,-41.5,1.4));
#1094=CARTESIAN_POINT('',(65.,-43.,1.4));
#1095=CARTESIAN_POINT('',(63.5,-43.,1.4));
#1096=CARTESIAN_POINT('',(62.,-43.,1.4));
#1097=CARTESIAN_POINT('',(62.,-41.5,1.4));
#1098=CARTESIAN_POINT('',(62.,-40.,1.4));
#1099=CARTESIAN_POINT('',(63.5,-40.,1.4));
#1100=CARTESIAN_POINT('',(65.,-40.,1.4));
#1101=CARTESIAN_POINT('',(65.,-41.5,1.4));
#1102=CARTESIAN_POINT('',(65.,-41.5,8.88178419700125E-16));
#1103=CARTESIAN_POINT('',(65.,-41.5,1.4));
#1104=CARTESIAN_POINT('',(65.,-6.5,1.77635683940025E-15));
#1105=CARTESIAN_POINT('',(65.,-8.,1.25607396694702E-15));
#1106=CARTESIAN_POINT('',(63.5,-8.,1.77635683940025E-15));
#1107=CARTESIAN_POINT('',(62.,-8.,1.25607396694702E-15));
#1108=CARTESIAN_POINT('',(62.,-6.5,1.77635683940025E-15));
#1109=CARTESIAN_POINT('',(62.,-5.,1.25607396694702E-15));
#1110=CARTESIAN_POINT('',(63.5,-5.,1.77635683940025E-15));
#1111=CARTESIAN_POINT('',(65.,-5.,1.25607396694702E-15));
#1112=CARTESIAN_POINT('',(65.,-6.5,1.77635683940025E-15));
#1113=CARTESIAN_POINT('',(65.,-6.5,1.4));
#1114=CARTESIAN_POINT('',(65.,-8.,1.4));
#1115=CARTESIAN_POINT('',(63.5,-8.,1.4));
#1116=CARTESIAN_POINT('',(62.,-8.,1.4));
#1117=CARTESIAN_POINT('',(62.,-6.5,1.4));
#1118=CARTESIAN_POINT('',(62.,-5.,1.4));
#1119=CARTESIAN_POINT('',(63.5,-5.,1.4));
#1120=CARTESIAN_POINT('',(65.,-5.,1.4));
#1121=CARTESIAN_POINT('',(65.,-6.5,1.4));
#1122=CARTESIAN_POINT('',(65.,-6.5,8.88178419700125E-16));
#1123=CARTESIAN_POINT('',(65.,-6.5,1.4));
#1124=CARTESIAN_POINT('',(23.,-18.,-5.2));
#1125=CARTESIAN_POINT('',(23.,-29.,-5.2));
#1126=CARTESIAN_POINT('',(38.,-29.,-5.2));
#1127=CARTESIAN_POINT('',(38.,-18.,-5.2));
#1128=CARTESIAN_POINT('',(23.,-18.,-5.2));
#1129=CARTESIAN_POINT('',(23.,-18.,0.));
#1130=CARTESIAN_POINT('',(23.,-18.,-5.2));
#1131=CARTESIAN_POINT('',(23.,-29.,-5.2));
#1132=CARTESIAN_POINT('',(23.,-29.,0.));
#1133=CARTESIAN_POINT('',(23.,-18.,0.));
#1134=CARTESIAN_POINT('',(38.,-29.,-5.2));
#1135=CARTESIAN_POINT('',(38.,-29.,0.));
#1136=CARTESIAN_POINT('',(38.,-18.,-5.2));
#1137=CARTESIAN_POINT('',(38.,-18.,0.));
#1138=CARTESIAN_POINT('',(23.,-18.,-5.2));
#1139=CARTESIAN_POINT('',(23.,-29.,-5.2));
#1140=CARTESIAN_POINT('',(23.,-29.,-5.2));
#1141=CARTESIAN_POINT('',(23.,-29.,0.));
#1142=CARTESIAN_POINT('',(23.,-18.,0.));
#1143=CARTESIAN_POINT('',(23.,-29.,0.));
#1144=CARTESIAN_POINT('',(23.,-18.,-5.2));
#1145=CARTESIAN_POINT('',(23.,-18.,0.));
#1146=CARTESIAN_POINT('',(23.,-29.,-5.2));
#1147=CARTESIAN_POINT('',(38.,-29.,-5.2));
#1148=CARTESIAN_POINT('',(38.,-29.,-5.2));
#1149=CARTESIAN_POINT('',(38.,-29.,0.));
#1150=CARTESIAN_POINT('',(23.,-29.,0.));
#1151=CARTESIAN_POINT('',(38.,-29.,0.));
#1152=CARTESIAN_POINT('',(38.,-29.,-5.2));
#1153=CARTESIAN_POINT('',(38.,-18.,-5.2));
#1154=CARTESIAN_POINT('',(38.,-18.,-5.2));
#1155=CARTESIAN_POINT('',(38.,-18.,0.));
#1156=CARTESIAN_POINT('',(38.,-29.,0.));
#1157=CARTESIAN_POINT('',(38.,-18.,0.));
#1158=CARTESIAN_POINT('',(38.,-18.,-5.2));
#1159=CARTESIAN_POINT('',(23.,-18.,-5.2));
#1160=CARTESIAN_POINT('',(38.,-18.,0.));
#1161=CARTESIAN_POINT('',(23.,-18.,0.));
#1162=CARTESIAN_POINT('',(0.,0.,0.));
ENDSEC;
END-ISO-10303-21;
